<svg xmlns="http://www.w3.org/2000/svg" xmlns:xlink="http://www.w3.org/1999/xlink" width="1050.768" height="205.508" viewBox="0 0 1050.768 205.508">
  <defs>
    <radialGradient id="radial-gradient" cx="0.5" cy="0.5" r="1.217" gradientTransform="translate(-0.013 0.014) rotate(-1.532)" gradientUnits="objectBoundingBox">
      <stop offset="0" stop-color="#fff"/>
      <stop offset="1" stop-color="#ebebeb"/>
    </radialGradient>
    <filter id="Trazado_233822" x="207.579" y="0" width="239.132" height="205.508" filterUnits="userSpaceOnUse">
      <feOffset dy="3" input="SourceAlpha"/>
      <feGaussianBlur stdDeviation="3" result="blur"/>
      <feFlood flood-opacity="0.161"/>
      <feComposite operator="in" in2="blur"/>
      <feComposite in="SourceGraphic"/>
    </filter>
    <filter id="Trazado_233824" x="0" y="0" width="239.107" height="205.508" filterUnits="userSpaceOnUse">
      <feOffset dy="3" input="SourceAlpha"/>
      <feGaussianBlur stdDeviation="3" result="blur-2"/>
      <feFlood flood-opacity="0.161"/>
      <feComposite operator="in" in2="blur-2"/>
      <feComposite in="SourceGraphic"/>
    </filter>
    <filter id="Trazado_233826" x="415.157" y="0" width="239.132" height="205.508" filterUnits="userSpaceOnUse">
      <feOffset dy="3" input="SourceAlpha"/>
      <feGaussianBlur stdDeviation="3" result="blur-3"/>
      <feFlood flood-opacity="0.161"/>
      <feComposite operator="in" in2="blur-3"/>
      <feComposite in="SourceGraphic"/>
    </filter>
    <filter id="Trazado_233828" x="830.684" y="0" width="220.084" height="205.508" filterUnits="userSpaceOnUse">
      <feOffset dy="3" input="SourceAlpha"/>
      <feGaussianBlur stdDeviation="3" result="blur-4"/>
      <feFlood flood-opacity="0.161"/>
      <feComposite operator="in" in2="blur-4"/>
      <feComposite in="SourceGraphic"/>
    </filter>
    <filter id="Trazado_233830" x="623.106" y="0" width="239.132" height="205.508" filterUnits="userSpaceOnUse">
      <feOffset dy="3" input="SourceAlpha"/>
      <feGaussianBlur stdDeviation="3" result="blur-5"/>
      <feFlood flood-opacity="0.161"/>
      <feComposite operator="in" in2="blur-5"/>
      <feComposite in="SourceGraphic"/>
    </filter>
    <clipPath id="clip-path">
      <rect id="Rectángulo_314220" data-name="Rectángulo 314220" width="60.594" height="60.493" transform="translate(0 0)" fill="none"/>
    </clipPath>
    <clipPath id="clip-path-2">
      <rect id="Rectángulo_314223" data-name="Rectángulo 314223" width="60.594" height="60.594" transform="translate(0 0)" fill="none"/>
    </clipPath>
    <clipPath id="clip-path-3">
      <rect id="Rectángulo_314233" data-name="Rectángulo 314233" width="60.721" height="60.594" transform="translate(0 0)" fill="none"/>
    </clipPath>
    <clipPath id="clip-path-4">
      <rect id="Rectángulo_314236" data-name="Rectángulo 314236" width="60.796" height="59.283" transform="translate(0 0)" fill="none"/>
    </clipPath>
  </defs>
  <g id="Grupo_238743" data-name="Grupo 238743" transform="translate(-274.999 -1799.991)">
    <g transform="matrix(1, 0, 0, 1, 275, 1799.99)" filter="url(#Trazado_233822)">
      <path id="Trazado_233822-2" data-name="Trazado 233822" d="M408.247,77.339V17.991A16.656,16.656,0,0,0,391.64,1.384H225.579a16.656,16.656,0,0,0-16.607,16.607l-.01,59.348,18.371,16.307-18.361,16.511v59.36a16.656,16.656,0,0,0,16.607,16.607H391.64a16.656,16.656,0,0,0,16.607-16.607l.032-59.36,18.353-16.471Z" transform="translate(9 6)" stroke="#2f077f" stroke-miterlimit="10" stroke-width="2.768" fill="url(#radial-gradient)"/>
    </g>
    <g transform="matrix(1, 0, 0, 1, 275, 1799.99)" filter="url(#Trazado_233824)">
      <path id="Trazado_233824-2" data-name="Trazado 233824" d="M184.051,186.124H17.99A16.656,16.656,0,0,1,1.383,169.517V17.991A16.656,16.656,0,0,1,17.99,1.384H184.051a16.656,16.656,0,0,1,16.607,16.607V77.339l18.371,16.307-18.361,16.511-.01,59.36A16.656,16.656,0,0,1,184.051,186.124Z" transform="translate(9 6)" stroke="#8628a5" stroke-miterlimit="10" stroke-width="2.768" fill="url(#radial-gradient)"/>
    </g>
    <g transform="matrix(1, 0, 0, 1, 275, 1799.99)" filter="url(#Trazado_233826)">
      <path id="Trazado_233826-2" data-name="Trazado 233826" d="M615.825,77.339V17.991A16.656,16.656,0,0,0,599.218,1.384H433.157A16.656,16.656,0,0,0,416.55,17.991l-.01,59.348,18.371,16.307L416.55,110.157v59.36a16.656,16.656,0,0,0,16.607,16.607H599.218a16.656,16.656,0,0,0,16.607-16.607l.032-59.36L634.21,93.686Z" transform="translate(9 6)" stroke="#f8a800" stroke-miterlimit="10" stroke-width="2.768" fill="url(#radial-gradient)"/>
    </g>
    <g transform="matrix(1, 0, 0, 1, 275, 1799.99)" filter="url(#Trazado_233828)">
      <path id="Trazado_233828-2" data-name="Trazado 233828" d="M1031.352,77.339V17.991a16.656,16.656,0,0,0-16.607-16.607H848.684a16.656,16.656,0,0,0-16.607,16.607l-.01,59.348,18.386,16.347L832.1,110.157l-.022,59.36a16.656,16.656,0,0,0,16.607,16.607h166.061a16.656,16.656,0,0,0,16.607-16.607l.031-59.36Z" transform="translate(9 6)" stroke="#8628a5" stroke-miterlimit="10" stroke-width="2.768" fill="url(#radial-gradient)"/>
    </g>
    <g transform="matrix(1, 0, 0, 1, 275, 1799.99)" filter="url(#Trazado_233830)">
      <path id="Trazado_233830-2" data-name="Trazado 233830" d="M823.774,77.339V17.991A16.656,16.656,0,0,0,807.167,1.384H641.106A16.656,16.656,0,0,0,624.5,17.991l-.01,59.348L642.86,93.646,624.5,110.157v59.36a16.656,16.656,0,0,0,16.607,16.607H807.167a16.656,16.656,0,0,0,16.607-16.607l.032-59.36,18.353-16.471Z" transform="translate(9 6)" stroke="#2f077f" stroke-miterlimit="10" stroke-width="2.768" fill="url(#radial-gradient)"/>
    </g>
    <path id="Trazado_234522" data-name="Trazado 234522" d="M63.611,15.133,66.443,4.781h3.828L65.486,19h-3.75L56.99,4.781h3.8ZM76.658,19a3.716,3.716,0,0,1-.312-.947A3.06,3.06,0,0,1,73.807,19.2a3.749,3.749,0,0,1-2.539-.9,2.875,2.875,0,0,1-1.045-2.271,2.955,2.955,0,0,1,1.27-2.6,6.468,6.468,0,0,1,3.691-.879H76.2v-.559q0-1.462-1.26-1.462a1.03,1.03,0,0,0-1.172,1.158H70.477a2.95,2.95,0,0,1,1.3-2.487,5.479,5.479,0,0,1,3.325-.956,4.8,4.8,0,0,1,3.193.986,3.429,3.429,0,0,1,1.2,2.705v4.678a4.79,4.79,0,0,0,.449,2.227V19ZM74.6,16.852a1.836,1.836,0,0,0,1.021-.264,1.653,1.653,0,0,0,.581-.6V14.3h-.957q-1.719,0-1.719,1.543a.942.942,0,0,0,.3.728A1.1,1.1,0,0,0,74.6,16.852Zm13.115-5.439-1.084-.078a1.947,1.947,0,0,0-1.992.977V19H81.346V8.434h3.086l.107,1.357a2.548,2.548,0,0,1,2.314-1.553,3.209,3.209,0,0,1,.918.117ZM92.371,19h-3.3V8.434h3.3Zm-3.5-13.291a1.469,1.469,0,0,1,.508-1.152,2.159,2.159,0,0,1,2.637,0,1.469,1.469,0,0,1,.508,1.152,1.469,1.469,0,0,1-.508,1.152,2.159,2.159,0,0,1-2.637,0A1.469,1.469,0,0,1,88.875,5.709ZM100.35,19a3.716,3.716,0,0,1-.312-.947A3.06,3.06,0,0,1,97.5,19.2a3.749,3.749,0,0,1-2.539-.9,2.875,2.875,0,0,1-1.045-2.271,2.955,2.955,0,0,1,1.27-2.6,6.468,6.468,0,0,1,3.691-.879h1.016v-.559q0-1.462-1.26-1.462a1.03,1.03,0,0,0-1.172,1.158H94.168a2.95,2.95,0,0,1,1.3-2.487A5.479,5.479,0,0,1,98.8,8.238a4.8,4.8,0,0,1,3.193.986,3.429,3.429,0,0,1,1.2,2.705v4.678a4.79,4.79,0,0,0,.449,2.227V19Zm-2.061-2.148a1.836,1.836,0,0,0,1.021-.264,1.653,1.653,0,0,0,.581-.6V14.3h-.957q-1.719,0-1.719,1.543a.942.942,0,0,0,.3.728A1.1,1.1,0,0,0,98.289,16.852ZM114.822,13.8a6.44,6.44,0,0,1-1.074,3.994,3.6,3.6,0,0,1-3.027,1.4,3.122,3.122,0,0,1-2.6-1.279L107.986,19h-2.949V4h3.291V9.283A3.013,3.013,0,0,1,110.7,8.238a3.6,3.6,0,0,1,3.047,1.416,6.473,6.473,0,0,1,1.074,3.984Zm-3.3-.21a4.3,4.3,0,0,0-.405-2.169,1.366,1.366,0,0,0-1.245-.648,1.576,1.576,0,0,0-1.543.848v4.192a1.585,1.585,0,0,0,1.563.838,1.4,1.4,0,0,0,1.475-1.131A8.121,8.121,0,0,0,111.521,13.595ZM119.744,19h-3.3V4h3.3Zm7.139.2a5.432,5.432,0,0,1-3.936-1.45,5.008,5.008,0,0,1-1.5-3.774V13.7a6.489,6.489,0,0,1,.6-2.861A4.395,4.395,0,0,1,123.8,8.917a5.292,5.292,0,0,1,2.734-.679,4.574,4.574,0,0,1,3.516,1.382,5.43,5.43,0,0,1,1.289,3.853v1.279h-6.543a2.372,2.372,0,0,0,.771,1.4,2.3,2.3,0,0,0,1.543.508,2.958,2.958,0,0,0,2.441-1.094l1.5,1.777a4.2,4.2,0,0,1-1.743,1.353A5.891,5.891,0,0,1,126.883,19.2Zm-.371-8.418q-1.445,0-1.719,1.914h3.32v-.254a1.63,1.63,0,0,0-.4-1.226A1.593,1.593,0,0,0,126.512,10.777Zm11.68,5.254a.76.76,0,0,0-.439-.674,6.685,6.685,0,0,0-1.67-.527,7.615,7.615,0,0,1-2.031-.718,3.4,3.4,0,0,1-1.221-1.079,2.577,2.577,0,0,1-.42-1.455,2.92,2.92,0,0,1,1.2-2.4,4.948,4.948,0,0,1,3.145-.942,5.482,5.482,0,0,1,3.359.947,2.962,2.962,0,0,1,1.27,2.49h-3.3q0-1.27-1.338-1.27a1.326,1.326,0,0,0-.869.288.892.892,0,0,0-.352.718.819.819,0,0,0,.43.713,4.06,4.06,0,0,0,1.372.449,11.857,11.857,0,0,1,1.655.42,3.007,3.007,0,0,1,2.383,2.939,2.767,2.767,0,0,1-1.284,2.354,5.632,5.632,0,0,1-3.325.908,5.747,5.747,0,0,1-2.422-.488,4.05,4.05,0,0,1-1.66-1.328,3.007,3.007,0,0,1-.6-1.768h3.076a1.272,1.272,0,0,0,.488,1.069,2.009,2.009,0,0,0,1.2.337,1.58,1.58,0,0,0,1.011-.273A.875.875,0,0,0,138.191,16.031Z" transform="translate(285 1921)" fill="#12263f"/>
    <path id="Trazado_234523" data-name="Trazado 234523" d="M58.748,16.344h-4.7L53.23,19H49.568L54.783,4.781h3.223L63.26,19H59.578ZM54.871,13.7h3.057L56.395,8.766ZM67.615,19h-3.3V4h3.3Zm6.494-2.344a1.464,1.464,0,0,0,1.074-.376,1.379,1.379,0,0,0,.371-1.05h3.086A3.653,3.653,0,0,1,77.4,18.082,4.631,4.631,0,0,1,74.188,19.2a4.689,4.689,0,0,1-3.633-1.445,5.7,5.7,0,0,1-1.328-4v-.137a6.436,6.436,0,0,1,.591-2.827,4.3,4.3,0,0,1,1.7-1.885,5.081,5.081,0,0,1,2.637-.659A4.573,4.573,0,0,1,77.43,9.381a4.053,4.053,0,0,1,1.211,3.1H75.555a1.806,1.806,0,0,0-.4-1.26,1.382,1.382,0,0,0-1.074-.439q-1.279,0-1.494,1.631a11.508,11.508,0,0,0-.068,1.426,4.52,4.52,0,0,0,.381,2.207A1.319,1.319,0,0,0,74.109,16.656ZM85.984,19a3.716,3.716,0,0,1-.312-.947A3.06,3.06,0,0,1,83.133,19.2a3.749,3.749,0,0,1-2.539-.9,2.875,2.875,0,0,1-1.045-2.271,2.955,2.955,0,0,1,1.27-2.6,6.468,6.468,0,0,1,3.691-.879h1.016v-.559q0-1.462-1.26-1.462a1.03,1.03,0,0,0-1.172,1.158H79.8a2.95,2.95,0,0,1,1.3-2.487,5.479,5.479,0,0,1,3.325-.956,4.8,4.8,0,0,1,3.193.986,3.429,3.429,0,0,1,1.2,2.705v4.678a4.79,4.79,0,0,0,.449,2.227V19Zm-2.061-2.148a1.836,1.836,0,0,0,1.021-.264,1.653,1.653,0,0,0,.581-.6V14.3h-.957q-1.719,0-1.719,1.543a.942.942,0,0,0,.3.728A1.1,1.1,0,0,0,83.924,16.852ZM93.67,8.434l.107,1.24a3.583,3.583,0,0,1,3.018-1.436,3.015,3.015,0,0,1,2.466.986,4.7,4.7,0,0,1,.845,2.969V19H96.8V12.33a1.783,1.783,0,0,0-.322-1.177,1.491,1.491,0,0,0-1.172-.376,1.569,1.569,0,0,0-1.436.762V19H90.584V8.434Zm12.725,8.223a1.464,1.464,0,0,0,1.074-.376,1.379,1.379,0,0,0,.371-1.05h3.086a3.653,3.653,0,0,1-1.245,2.852,4.631,4.631,0,0,1-3.208,1.113,4.689,4.689,0,0,1-3.633-1.445,5.7,5.7,0,0,1-1.328-4v-.137a6.436,6.436,0,0,1,.591-2.827,4.3,4.3,0,0,1,1.7-1.885,5.081,5.081,0,0,1,2.637-.659,4.573,4.573,0,0,1,3.271,1.143,4.053,4.053,0,0,1,1.211,3.1H107.84a1.806,1.806,0,0,0-.4-1.26,1.382,1.382,0,0,0-1.074-.439q-1.279,0-1.494,1.631a11.508,11.508,0,0,0-.068,1.426,4.52,4.52,0,0,0,.381,2.207A1.319,1.319,0,0,0,106.395,16.656ZM117.43,19.2a5.432,5.432,0,0,1-3.936-1.45,5.008,5.008,0,0,1-1.5-3.774V13.7a6.489,6.489,0,0,1,.6-2.861,4.395,4.395,0,0,1,1.753-1.919,5.292,5.292,0,0,1,2.734-.679,4.574,4.574,0,0,1,3.516,1.382,5.43,5.43,0,0,1,1.289,3.853v1.279H115.34a2.372,2.372,0,0,0,.771,1.4,2.3,2.3,0,0,0,1.543.508,2.958,2.958,0,0,0,2.441-1.094l1.5,1.777a4.2,4.2,0,0,1-1.743,1.353A5.891,5.891,0,0,1,117.43,19.2Zm-.371-8.418q-1.445,0-1.719,1.914h3.32v-.254a1.63,1.63,0,0,0-.4-1.226A1.593,1.593,0,0,0,117.059,10.777Zm10.713,2.861a6.455,6.455,0,0,1,1.084-3.955,3.568,3.568,0,0,1,3.027-1.445,3.035,3.035,0,0,1,2.383,1.113V4h3.3V19h-2.959l-.166-1.133a3.116,3.116,0,0,1-2.578,1.328,3.562,3.562,0,0,1-2.988-1.445A6.659,6.659,0,0,1,127.771,13.639Zm3.291.205q0,2.813,1.641,2.813a1.62,1.62,0,0,0,1.563-.918V11.715a1.576,1.576,0,0,0-1.543-.937q-1.523,0-1.65,2.461ZM144.549,19.2a5.432,5.432,0,0,1-3.936-1.45,5.008,5.008,0,0,1-1.5-3.774V13.7a6.489,6.489,0,0,1,.6-2.861,4.395,4.395,0,0,1,1.753-1.919,5.292,5.292,0,0,1,2.734-.679,4.574,4.574,0,0,1,3.516,1.382A5.43,5.43,0,0,1,149,13.473v1.279h-6.543a2.372,2.372,0,0,0,.771,1.4,2.3,2.3,0,0,0,1.543.508,2.958,2.958,0,0,0,2.441-1.094l1.5,1.777a4.2,4.2,0,0,1-1.743,1.353A5.891,5.891,0,0,1,144.549,19.2Zm-.371-8.418q-1.445,0-1.719,1.914h3.32v-.254a1.63,1.63,0,0,0-.4-1.226A1.593,1.593,0,0,0,144.178,10.777ZM47.034,41h-3.3V26h3.3Zm7.979,0a3.716,3.716,0,0,1-.312-.947A3.06,3.06,0,0,1,52.161,41.2a3.749,3.749,0,0,1-2.539-.9,2.875,2.875,0,0,1-1.045-2.271,2.955,2.955,0,0,1,1.27-2.6,6.468,6.468,0,0,1,3.691-.879h1.016v-.559q0-1.462-1.26-1.462a1.03,1.03,0,0,0-1.172,1.158H48.831a2.95,2.95,0,0,1,1.3-2.487,5.479,5.479,0,0,1,3.325-.956,4.8,4.8,0,0,1,3.193.986,3.429,3.429,0,0,1,1.2,2.705v4.678a4.79,4.79,0,0,0,.449,2.227V41Zm-2.061-2.148a1.836,1.836,0,0,0,1.021-.264,1.653,1.653,0,0,0,.581-.6V36.3H53.6q-1.719,0-1.719,1.543a.942.942,0,0,0,.3.728A1.1,1.1,0,0,0,52.952,38.852Zm12.256-.82a.76.76,0,0,0-.439-.674,6.685,6.685,0,0,0-1.67-.527,7.615,7.615,0,0,1-2.031-.718,3.4,3.4,0,0,1-1.221-1.079,2.577,2.577,0,0,1-.42-1.455,2.92,2.92,0,0,1,1.2-2.4,4.948,4.948,0,0,1,3.145-.942,5.482,5.482,0,0,1,3.359.947,2.962,2.962,0,0,1,1.27,2.49H65.1q0-1.27-1.338-1.27a1.326,1.326,0,0,0-.869.288.892.892,0,0,0-.352.718.819.819,0,0,0,.43.713,4.06,4.06,0,0,0,1.372.449,11.856,11.856,0,0,1,1.655.42,3.007,3.007,0,0,1,2.383,2.939A2.767,2.767,0,0,1,67.1,40.287a5.631,5.631,0,0,1-3.325.908,5.747,5.747,0,0,1-2.422-.488,4.05,4.05,0,0,1-1.66-1.328,3.007,3.007,0,0,1-.6-1.768h3.076a1.272,1.272,0,0,0,.488,1.069,2.009,2.009,0,0,0,1.2.337,1.58,1.58,0,0,0,1.011-.273A.875.875,0,0,0,65.208,38.031Zm13.906-.947,1.67-6.65h3.467L80.8,41H77.444L74,30.434h3.477ZM91.038,41a3.716,3.716,0,0,1-.312-.947A3.06,3.06,0,0,1,88.187,41.2a3.749,3.749,0,0,1-2.539-.9A2.875,2.875,0,0,1,84.6,38.021a2.955,2.955,0,0,1,1.27-2.6,6.468,6.468,0,0,1,3.691-.879h1.016v-.559q0-1.462-1.26-1.462a1.03,1.03,0,0,0-1.172,1.158H84.856a2.95,2.95,0,0,1,1.3-2.487,5.479,5.479,0,0,1,3.325-.956,4.8,4.8,0,0,1,3.193.986,3.429,3.429,0,0,1,1.2,2.705v4.678a4.79,4.79,0,0,0,.449,2.227V41Zm-2.061-2.148A1.836,1.836,0,0,0,90,38.588a1.653,1.653,0,0,0,.581-.6V36.3h-.957q-1.719,0-1.719,1.543a.942.942,0,0,0,.3.728A1.1,1.1,0,0,0,88.978,38.852Zm13.115-5.439-1.084-.078a1.947,1.947,0,0,0-1.992.977V41H95.726V30.434h3.086l.107,1.357a2.548,2.548,0,0,1,2.314-1.553,3.209,3.209,0,0,1,.918.117ZM106.751,41h-3.3V30.434h3.3Zm-3.5-13.291a1.469,1.469,0,0,1,.508-1.152,2.159,2.159,0,0,1,2.637,0,1.561,1.561,0,0,1,0,2.3,2.159,2.159,0,0,1-2.637,0A1.469,1.469,0,0,1,103.255,27.709ZM114.729,41a3.716,3.716,0,0,1-.312-.947,3.06,3.06,0,0,1-2.539,1.143,3.749,3.749,0,0,1-2.539-.9,2.875,2.875,0,0,1-1.045-2.271,2.955,2.955,0,0,1,1.27-2.6,6.468,6.468,0,0,1,3.691-.879h1.016v-.559q0-1.462-1.26-1.462a1.03,1.03,0,0,0-1.172,1.158h-3.291a2.95,2.95,0,0,1,1.3-2.487,5.479,5.479,0,0,1,3.325-.956,4.8,4.8,0,0,1,3.193.986,3.429,3.429,0,0,1,1.2,2.705v4.678a4.79,4.79,0,0,0,.449,2.227V41Zm-2.061-2.148a1.836,1.836,0,0,0,1.021-.264,1.653,1.653,0,0,0,.581-.6V36.3h-.957q-1.719,0-1.719,1.543a.942.942,0,0,0,.3.728A1.1,1.1,0,0,0,112.669,38.852ZM129.2,35.8a6.44,6.44,0,0,1-1.074,3.994,3.6,3.6,0,0,1-3.027,1.4,3.122,3.122,0,0,1-2.6-1.279L122.366,41h-2.949V26h3.291v5.283a3.012,3.012,0,0,1,2.373-1.045,3.6,3.6,0,0,1,3.047,1.416,6.473,6.473,0,0,1,1.074,3.984Zm-3.3-.21a4.3,4.3,0,0,0-.405-2.169,1.366,1.366,0,0,0-1.245-.648,1.576,1.576,0,0,0-1.543.848v4.192a1.585,1.585,0,0,0,1.563.838,1.4,1.4,0,0,0,1.475-1.131A8.121,8.121,0,0,0,125.9,35.595ZM134.124,41h-3.3V26h3.3Zm7.139.2a5.432,5.432,0,0,1-3.936-1.45,5.008,5.008,0,0,1-1.5-3.774V35.7a6.489,6.489,0,0,1,.6-2.861,4.395,4.395,0,0,1,1.753-1.919,5.292,5.292,0,0,1,2.734-.679,4.574,4.574,0,0,1,3.516,1.382,5.43,5.43,0,0,1,1.289,3.853v1.279h-6.543a2.372,2.372,0,0,0,.771,1.4,2.3,2.3,0,0,0,1.543.508,2.958,2.958,0,0,0,2.441-1.094l1.5,1.777a4.2,4.2,0,0,1-1.743,1.353A5.891,5.891,0,0,1,141.263,41.2Zm-.371-8.418q-1.445,0-1.719,1.914h3.32v-.254a1.63,1.63,0,0,0-.4-1.226A1.593,1.593,0,0,0,140.892,32.777Zm11.68,5.254a.76.76,0,0,0-.439-.674,6.685,6.685,0,0,0-1.67-.527,7.615,7.615,0,0,1-2.031-.718,3.4,3.4,0,0,1-1.221-1.079,2.577,2.577,0,0,1-.42-1.455,2.92,2.92,0,0,1,1.2-2.4,4.948,4.948,0,0,1,3.145-.942,5.482,5.482,0,0,1,3.359.947,2.962,2.962,0,0,1,1.27,2.49h-3.3q0-1.27-1.338-1.27a1.326,1.326,0,0,0-.869.288.892.892,0,0,0-.352.718.819.819,0,0,0,.43.713,4.06,4.06,0,0,0,1.372.449,11.857,11.857,0,0,1,1.655.42,3.007,3.007,0,0,1,2.383,2.939,2.767,2.767,0,0,1-1.284,2.354,5.632,5.632,0,0,1-3.325.908,5.747,5.747,0,0,1-2.422-.488,4.05,4.05,0,0,1-1.66-1.328,3.007,3.007,0,0,1-.6-1.768h3.076a1.272,1.272,0,0,0,.488,1.069,2.009,2.009,0,0,0,1.2.337,1.58,1.58,0,0,0,1.011-.273A.875.875,0,0,0,152.571,38.031Z" transform="translate(493 1921)" fill="#12263f"/>
    <path id="Trazado_234524" data-name="Trazado 234524" d="M60.184,12.184a8.385,8.385,0,0,1-.771,3.682,5.7,5.7,0,0,1-2.192,2.466,6.1,6.1,0,0,1-3.237.864,6.191,6.191,0,0,1-3.223-.835,5.692,5.692,0,0,1-2.192-2.388,8.144,8.144,0,0,1-.825-3.564v-.8a8.422,8.422,0,0,1,.767-3.687,5.688,5.688,0,0,1,2.2-2.466,6.5,6.5,0,0,1,6.479-.01,5.79,5.79,0,0,1,2.2,2.446,8.18,8.18,0,0,1,.8,3.638Zm-3.486-.6a5.979,5.979,0,0,0-.708-3.218,2.271,2.271,0,0,0-2.026-1.1q-2.578,0-2.725,3.867l-.01,1.045a6.149,6.149,0,0,0,.693,3.213,2.268,2.268,0,0,0,2.061,1.123,2.24,2.24,0,0,0,2-1.1,5.982,5.982,0,0,0,.713-3.174Zm14.912,2.207A6.372,6.372,0,0,1,70.5,17.726a3.554,3.554,0,0,1-2.993,1.47,3.046,3.046,0,0,1-2.393-1.064v4.932H61.824V8.434H64.9l.1.977a3.046,3.046,0,0,1,2.49-1.172,3.582,3.582,0,0,1,3.037,1.44,6.45,6.45,0,0,1,1.084,3.96Zm-3.291-.205q0-2.812-1.641-2.812a1.549,1.549,0,0,0-1.562.84v4.16a1.6,1.6,0,0,0,1.582.879q1.572,0,1.621-2.715ZM78.172,19.2a5.432,5.432,0,0,1-3.936-1.45,5.008,5.008,0,0,1-1.5-3.774V13.7a6.489,6.489,0,0,1,.6-2.861,4.395,4.395,0,0,1,1.753-1.919,5.292,5.292,0,0,1,2.734-.679A4.574,4.574,0,0,1,81.336,9.62a5.43,5.43,0,0,1,1.289,3.853v1.279H76.082a2.372,2.372,0,0,0,.771,1.4,2.3,2.3,0,0,0,1.543.508,2.958,2.958,0,0,0,2.441-1.094l1.5,1.777A4.2,4.2,0,0,1,80.6,18.692,5.891,5.891,0,0,1,78.172,19.2ZM77.8,10.777q-1.445,0-1.719,1.914H79.4v-.254a1.63,1.63,0,0,0-.4-1.226A1.593,1.593,0,0,0,77.8,10.777Zm12.539.635-1.084-.078a1.947,1.947,0,0,0-1.992.977V19H83.973V8.434h3.086l.107,1.357A2.548,2.548,0,0,1,89.48,8.238a3.209,3.209,0,0,1,.918.117ZM97.186,19a3.716,3.716,0,0,1-.312-.947A3.06,3.06,0,0,1,94.334,19.2a3.749,3.749,0,0,1-2.539-.9,2.875,2.875,0,0,1-1.045-2.271,2.955,2.955,0,0,1,1.27-2.6,6.468,6.468,0,0,1,3.691-.879h1.016v-.559q0-1.462-1.26-1.462a1.03,1.03,0,0,0-1.172,1.158H91a2.95,2.95,0,0,1,1.3-2.487,5.479,5.479,0,0,1,3.325-.956,4.8,4.8,0,0,1,3.193.986,3.429,3.429,0,0,1,1.2,2.705v4.678a4.79,4.79,0,0,0,.449,2.227V19Zm-2.061-2.148a1.836,1.836,0,0,0,1.021-.264,1.653,1.653,0,0,0,.581-.6V14.3H95.77q-1.719,0-1.719,1.543a.942.942,0,0,0,.3.728A1.1,1.1,0,0,0,95.125,16.852Zm6.309-3.213a6.455,6.455,0,0,1,1.084-3.955,3.568,3.568,0,0,1,3.027-1.445,3.035,3.035,0,0,1,2.383,1.113V4h3.3V19H108.27l-.166-1.133a3.116,3.116,0,0,1-2.578,1.328,3.562,3.562,0,0,1-2.988-1.445A6.659,6.659,0,0,1,101.434,13.639Zm3.291.205q0,2.813,1.641,2.813a1.62,1.62,0,0,0,1.563-.918V11.715a1.576,1.576,0,0,0-1.543-.937q-1.523,0-1.65,2.461Zm7.959-.225A6.236,6.236,0,0,1,113.3,10.8a4.4,4.4,0,0,1,1.768-1.9,5.323,5.323,0,0,1,2.705-.664,4.858,4.858,0,0,1,3.74,1.47,5.64,5.64,0,0,1,1.367,4v.117a5.472,5.472,0,0,1-1.372,3.921,4.871,4.871,0,0,1-3.716,1.45,4.927,4.927,0,0,1-3.623-1.353,5.29,5.29,0,0,1-1.475-3.667Zm3.291.205a3.932,3.932,0,0,0,.459,2.148,1.529,1.529,0,0,0,1.357.684q1.758,0,1.8-2.705v-.332q0-2.842-1.816-2.842-1.65,0-1.787,2.451Zm14.746-2.412-1.084-.078a1.947,1.947,0,0,0-1.992.977V19h-3.291V8.434h3.086l.107,1.357a2.548,2.548,0,0,1,2.314-1.553,3.209,3.209,0,0,1,.918.117Zm6.113,7.783a5.432,5.432,0,0,1-3.936-1.45,5.008,5.008,0,0,1-1.5-3.774V13.7a6.489,6.489,0,0,1,.6-2.861,4.395,4.395,0,0,1,1.753-1.919,5.292,5.292,0,0,1,2.734-.679A4.574,4.574,0,0,1,140,9.62a5.43,5.43,0,0,1,1.289,3.853v1.279h-6.543a2.372,2.372,0,0,0,.771,1.4,2.3,2.3,0,0,0,1.543.508,2.958,2.958,0,0,0,2.441-1.094L141,17.34a4.2,4.2,0,0,1-1.743,1.353A5.891,5.891,0,0,1,136.834,19.2Zm-.371-8.418q-1.445,0-1.719,1.914h3.32v-.254a1.63,1.63,0,0,0-.4-1.226A1.593,1.593,0,0,0,136.463,10.777Zm11.68,5.254a.76.76,0,0,0-.439-.674,6.685,6.685,0,0,0-1.67-.527A7.615,7.615,0,0,1,144,14.112a3.4,3.4,0,0,1-1.221-1.079,2.577,2.577,0,0,1-.42-1.455,2.92,2.92,0,0,1,1.2-2.4,4.948,4.948,0,0,1,3.145-.942,5.482,5.482,0,0,1,3.359.947,2.962,2.962,0,0,1,1.27,2.49h-3.3q0-1.27-1.338-1.27a1.326,1.326,0,0,0-.869.288.892.892,0,0,0-.352.718.819.819,0,0,0,.43.713,4.06,4.06,0,0,0,1.372.449,11.857,11.857,0,0,1,1.655.42,3.007,3.007,0,0,1,2.383,2.939,2.767,2.767,0,0,1-1.284,2.354,5.632,5.632,0,0,1-3.325.908,5.747,5.747,0,0,1-2.422-.488,4.05,4.05,0,0,1-1.66-1.328,3.007,3.007,0,0,1-.6-1.768h3.076a1.272,1.272,0,0,0,.488,1.069,2.009,2.009,0,0,0,1.2.337,1.58,1.58,0,0,0,1.011-.273A.875.875,0,0,0,148.143,16.031Z" transform="translate(701 1921)" fill="#12263f"/>
    <path id="Trazado_234525" data-name="Trazado 234525" d="M47.713,7.428H43.445V19H40.018V7.428H35.828V4.781H47.713ZM52.479,19h-3.3V8.434h3.3Zm-3.5-13.291a1.469,1.469,0,0,1,.508-1.152,2.159,2.159,0,0,1,2.637,0,1.469,1.469,0,0,1,.508,1.152,1.469,1.469,0,0,1-.508,1.152,2.159,2.159,0,0,1-2.637,0A1.469,1.469,0,0,1,48.982,5.709Zm15.332,8.086a6.372,6.372,0,0,1-1.108,3.931,3.554,3.554,0,0,1-2.993,1.47,3.046,3.046,0,0,1-2.393-1.064v4.932H54.529V8.434h3.076l.1.977a3.046,3.046,0,0,1,2.49-1.172,3.582,3.582,0,0,1,3.037,1.44,6.45,6.45,0,0,1,1.084,3.96Zm-3.291-.205q0-2.812-1.641-2.812a1.549,1.549,0,0,0-1.562.84v4.16a1.6,1.6,0,0,0,1.582.879q1.572,0,1.621-2.715Zm4.326.029a6.236,6.236,0,0,1,.615-2.817,4.4,4.4,0,0,1,1.768-1.9,5.323,5.323,0,0,1,2.705-.664,4.858,4.858,0,0,1,3.74,1.47,5.64,5.64,0,0,1,1.367,4v.117a5.472,5.472,0,0,1-1.372,3.921,4.871,4.871,0,0,1-3.716,1.45,4.927,4.927,0,0,1-3.623-1.353,5.29,5.29,0,0,1-1.475-3.667Zm3.291.205a3.932,3.932,0,0,0,.459,2.148,1.529,1.529,0,0,0,1.357.684q1.758,0,1.8-2.705v-.332q0-2.842-1.816-2.842-1.65,0-1.787,2.451Zm13.887,2.207a.76.76,0,0,0-.439-.674,6.685,6.685,0,0,0-1.67-.527,7.615,7.615,0,0,1-2.031-.718,3.4,3.4,0,0,1-1.221-1.079,2.577,2.577,0,0,1-.42-1.455,2.92,2.92,0,0,1,1.2-2.4,4.948,4.948,0,0,1,3.145-.942,5.482,5.482,0,0,1,3.359.947,2.962,2.962,0,0,1,1.27,2.49h-3.3q0-1.27-1.338-1.27a1.326,1.326,0,0,0-.869.288.892.892,0,0,0-.352.718.819.819,0,0,0,.43.713,4.06,4.06,0,0,0,1.372.449,11.857,11.857,0,0,1,1.655.42A3.007,3.007,0,0,1,85.7,15.934a2.767,2.767,0,0,1-1.284,2.354,5.631,5.631,0,0,1-3.325.908,5.747,5.747,0,0,1-2.422-.488,4.05,4.05,0,0,1-1.66-1.328,3.007,3.007,0,0,1-.6-1.768H79.49a1.272,1.272,0,0,0,.488,1.069,2.009,2.009,0,0,0,1.2.337,1.58,1.58,0,0,0,1.011-.273A.875.875,0,0,0,82.527,16.031ZM91.8,13.639a6.455,6.455,0,0,1,1.084-3.955,3.568,3.568,0,0,1,3.027-1.445A3.035,3.035,0,0,1,98.3,9.352V4h3.3V19H98.641l-.166-1.133A3.116,3.116,0,0,1,95.9,19.2a3.562,3.562,0,0,1-2.988-1.445A6.659,6.659,0,0,1,91.8,13.639Zm3.291.205q0,2.813,1.641,2.813a1.62,1.62,0,0,0,1.563-.918V11.715a1.576,1.576,0,0,0-1.543-.937q-1.523,0-1.65,2.461ZM108.582,19.2a5.432,5.432,0,0,1-3.936-1.45,5.008,5.008,0,0,1-1.5-3.774V13.7a6.489,6.489,0,0,1,.6-2.861A4.395,4.395,0,0,1,105.5,8.917a5.292,5.292,0,0,1,2.734-.679,4.574,4.574,0,0,1,3.516,1.382,5.43,5.43,0,0,1,1.289,3.853v1.279h-6.543a2.372,2.372,0,0,0,.771,1.4,2.3,2.3,0,0,0,1.543.508,2.958,2.958,0,0,0,2.441-1.094l1.5,1.777a4.2,4.2,0,0,1-1.743,1.353A5.891,5.891,0,0,1,108.582,19.2Zm-.371-8.418q-1.445,0-1.719,1.914h3.32v-.254a1.63,1.63,0,0,0-.4-1.226A1.593,1.593,0,0,0,108.211,10.777Zm15.342,4.307,1.67-6.65h3.467L125.242,19h-3.359L118.436,8.434h3.477ZM135.477,19a3.716,3.716,0,0,1-.312-.947,3.06,3.06,0,0,1-2.539,1.143,3.749,3.749,0,0,1-2.539-.9,2.875,2.875,0,0,1-1.045-2.271,2.955,2.955,0,0,1,1.27-2.6A6.468,6.468,0,0,1,134,12.545h1.016v-.559q0-1.462-1.26-1.462a1.03,1.03,0,0,0-1.172,1.158h-3.291a2.95,2.95,0,0,1,1.3-2.487,5.479,5.479,0,0,1,3.325-.956,4.8,4.8,0,0,1,3.193.986,3.429,3.429,0,0,1,1.2,2.705v4.678a4.79,4.79,0,0,0,.449,2.227V19Zm-2.061-2.148a1.836,1.836,0,0,0,1.021-.264,1.653,1.653,0,0,0,.581-.6V14.3h-.957q-1.719,0-1.719,1.543a.942.942,0,0,0,.3.728A1.1,1.1,0,0,0,133.416,16.852ZM143.611,19h-3.3V4h3.3Zm1.611-5.381a6.236,6.236,0,0,1,.615-2.817,4.4,4.4,0,0,1,1.768-1.9,5.323,5.323,0,0,1,2.705-.664,4.858,4.858,0,0,1,3.74,1.47,5.64,5.64,0,0,1,1.367,4v.117a5.472,5.472,0,0,1-1.372,3.921,4.871,4.871,0,0,1-3.716,1.45,4.927,4.927,0,0,1-3.623-1.353,5.29,5.29,0,0,1-1.475-3.667Zm3.291.205a3.932,3.932,0,0,0,.459,2.148,1.529,1.529,0,0,0,1.357.684q1.758,0,1.8-2.705v-.332q0-2.842-1.816-2.842-1.65,0-1.787,2.451Zm14.746-2.412-1.084-.078a1.947,1.947,0,0,0-1.992.977V19h-3.291V8.434h3.086l.107,1.357A2.548,2.548,0,0,1,162.4,8.238a3.209,3.209,0,0,1,.918.117Z" transform="translate(907 1921)" fill="#12263f"/>
    <path id="Trazado_234526" data-name="Trazado 234526" d="M83.641,18.334H79.1L77.84,21H74.158L81.688,6.781h3.145L87.459,21H83.982ZM80.35,15.7H83.3l-.625-4.9Zm15.732-2.285a9.192,9.192,0,0,0-1-.1,2.481,2.481,0,0,0-2.207,1L91.688,21H88.475l1.836-10.566,3-.01-.244,1.387a2.933,2.933,0,0,1,2.441-1.6,4.6,4.6,0,0,1,1,.137Zm7.451,0a9.192,9.192,0,0,0-1-.1,2.481,2.481,0,0,0-2.207,1L99.139,21H95.926l1.836-10.566,3-.01-.244,1.387a2.933,2.933,0,0,1,2.441-1.6,4.6,4.6,0,0,1,1,.137ZM109.021,21a2.865,2.865,0,0,1-.137-.957A3.259,3.259,0,0,1,106.3,21.2a3.184,3.184,0,0,1-2.285-.918,2.759,2.759,0,0,1-.85-2.178,3.1,3.1,0,0,1,1.436-2.642,6.768,6.768,0,0,1,3.789-.923l1.074.02.117-.6.039-.518a.839.839,0,0,0-.889-.918,1.235,1.235,0,0,0-1.3,1.162l-3.223.01a3.061,3.061,0,0,1,.693-1.851,4.109,4.109,0,0,1,1.753-1.211,6.125,6.125,0,0,1,2.358-.4,4.723,4.723,0,0,1,2.1.5,3.133,3.133,0,0,1,1.353,1.318,3.368,3.368,0,0,1,.342,1.948l-.791,4.971-.049.605a2.669,2.669,0,0,0,.186,1.23l-.01.186Zm-1.836-2.129A2.072,2.072,0,0,0,108.914,18l.322-1.7-.83-.01a2.188,2.188,0,0,0-1.328.454,1.722,1.722,0,0,0-.654,1.187.865.865,0,0,0,.151.659A.773.773,0,0,0,107.186,18.871Zm11.123-2.52,2.734-5.918h3.545L118.4,22.582a5.294,5.294,0,0,1-1.6,2.075,3.629,3.629,0,0,1-2.153.64,6.081,6.081,0,0,1-1.416-.215l.244-2.354h.371a2.66,2.66,0,0,0,1.045-.19,1.591,1.591,0,0,0,.752-.737l.459-.879-1.689-10.488h3.32Z" transform="translate(1116 1921)" fill="#12263f"/>
    <path id="Trazado_234527" data-name="Trazado 234527" d="M0,0H57.973V10.082H0Z" transform="translate(355.311 1845.312)" fill="#fff"/>
    <path id="Trazado_234528" data-name="Trazado 234528" d="M0,0H57.973V47.89H0Z" transform="translate(355.311 1855.393)" fill="#fff"/>
    <path id="Trazado_234529" data-name="Trazado 234529" d="M0,0H17.643V13.51H0Z" transform="translate(383.037 1884.732)" fill="#fff"/>
    <path id="Trazado_233831" data-name="Trazado 233831" d="M54.242,21.778v13.51H36.6V21.778Z" transform="translate(354 1844)" fill="#f2d4ff"/>
    <path id="Trazado_233832" data-name="Trazado 233832" d="M46.681,35.288v5.445H29.037V35.288H46.681Z" transform="translate(354 1844)" fill="#fff"/>
    <path id="Trazado_234530" data-name="Trazado 234530" d="M0,0H17.644V5.444H0Z" transform="translate(390.599 1860.434)" fill="#f2d4ff"/>
    <g id="Grupo_238630" data-name="Grupo 238630" transform="translate(354 1844)" clip-path="url(#clip-path)">
      <path id="Trazado_233833" data-name="Trazado 233833" d="M15.123,16.434A8.772,8.772,0,1,1,6.352,25.2a8.77,8.77,0,0,1,8.771-8.771" fill="#f2d4ff"/>
      <path id="Trazado_233834" data-name="Trazado 233834" d="M54.242,7.562H31.558a1.311,1.311,0,1,1,0-2.622H54.242a1.335,1.335,0,0,1,1.311,1.311,1.5,1.5,0,0,1-1.311,1.311" fill="#8628a5"/>
      <path id="Trazado_233835" data-name="Trazado 233835" d="M8.872,7.562H6.352a1.311,1.311,0,1,1,0-2.622h2.52a1.335,1.335,0,0,1,1.311,1.311A1.5,1.5,0,0,1,8.872,7.562" fill="#8628a5"/>
      <path id="Trazado_233836" data-name="Trazado 233836" d="M20.164,7.562H17.643a1.311,1.311,0,0,1,0-2.622h2.521a1.311,1.311,0,1,1,0,2.622" fill="#8628a5"/>
      <path id="Trazado_233837" data-name="Trazado 233837" d="M59.283,12.6H1.31a1.311,1.311,0,0,1,0-2.622H59.283a1.334,1.334,0,0,1,1.31,1.311,1.494,1.494,0,0,1-1.31,1.311" fill="#8628a5"/>
      <path id="Trazado_233838" data-name="Trazado 233838" d="M59.283,60.493H1.311A1.334,1.334,0,0,1,0,59.182V1.311A1.334,1.334,0,0,1,1.311,0H59.283a1.335,1.335,0,0,1,1.311,1.311V59.283a1.5,1.5,0,0,1-1.311,1.21M2.52,57.973H57.972V2.521H2.52Z" fill="#8628a5"/>
      <path id="Trazado_233839" data-name="Trazado 233839" d="M15.123,35.288A10.082,10.082,0,1,1,25.2,25.206,10.112,10.112,0,0,1,15.123,35.288m0-17.644a7.561,7.561,0,1,0,7.561,7.562,7.617,7.617,0,0,0-7.561-7.562" fill="#8628a5"/>
      <path id="Trazado_233840" data-name="Trazado 233840" d="M12.6,29.037a1.232,1.232,0,0,1-.907-.4L9.174,26.113a1.277,1.277,0,0,1,0-1.814l2.521-2.521a1.283,1.283,0,1,1,1.814,1.815L11.9,25.206l1.613,1.613a1.277,1.277,0,0,1,0,1.815,1.8,1.8,0,0,1-.907.4" fill="#8628a5"/>
      <path id="Trazado_233841" data-name="Trazado 233841" d="M17.643,29.037a1.234,1.234,0,0,1-.907-.4,1.278,1.278,0,0,1,0-1.815l1.613-1.613-1.613-1.613a1.283,1.283,0,1,1,1.814-1.815L21.071,24.3a1.275,1.275,0,0,1,0,1.814L18.55,28.634a1.8,1.8,0,0,1-.907.4" fill="#8628a5"/>
      <path id="Trazado_233842" data-name="Trazado 233842" d="M54.242,36.6H46.681a1.311,1.311,0,1,1,0-2.622h6.25V17.644H37.808V35.288a1.311,1.311,0,1,1-2.622,0V16.434a1.335,1.335,0,0,1,1.311-1.31H54.142a1.334,1.334,0,0,1,1.31,1.31V35.389a1.3,1.3,0,0,1-1.21,1.21" fill="#8628a5"/>
      <path id="Trazado_233843" data-name="Trazado 233843" d="M54.242,23.088H36.6a1.311,1.311,0,1,1,0-2.622H54.242a1.335,1.335,0,0,1,1.311,1.311,1.409,1.409,0,0,1-1.311,1.311" fill="#8628a5"/>
      <path id="Trazado_233844" data-name="Trazado 233844" d="M46.681,55.452H29.037a1.336,1.336,0,0,1-1.312-1.311V35.287a1.335,1.335,0,0,1,1.312-1.31H46.681a1.334,1.334,0,0,1,1.31,1.31V54.242a1.5,1.5,0,0,1-1.31,1.21m-16.435-2.52H45.37V36.6H30.246Z" fill="#8628a5"/>
      <path id="Trazado_233845" data-name="Trazado 233845" d="M46.681,41.942H29.037a1.311,1.311,0,1,1,0-2.621H46.681a1.335,1.335,0,0,1,1.311,1.31,1.41,1.41,0,0,1-1.311,1.311" fill="#8628a5"/>
      <path id="Trazado_233846" data-name="Trazado 233846" d="M24,40.329H6.351a1.311,1.311,0,0,1,0-2.622H24a1.335,1.335,0,0,1,1.311,1.311A1.41,1.41,0,0,1,24,40.329" fill="#8628a5"/>
      <path id="Trazado_233847" data-name="Trazado 233847" d="M24,46.681H6.351a1.311,1.311,0,0,1,0-2.622H24a1.335,1.335,0,0,1,1.311,1.311A1.5,1.5,0,0,1,24,46.681" fill="#8628a5"/>
      <path id="Trazado_233848" data-name="Trazado 233848" d="M24,52.932H6.351a1.311,1.311,0,0,1,0-2.622H24a1.335,1.335,0,0,1,1.311,1.311A1.5,1.5,0,0,1,24,52.932" fill="#8628a5"/>
    </g>
    <path id="Trazado_234531" data-name="Trazado 234531" d="M0,0H15.123V10.082H0Z" transform="translate(563.311 1893.302)" fill="#ddcfff"/>
    <path id="Trazado_234532" data-name="Trazado 234532" d="M0,0H15.124V10.082H0Z" transform="translate(606.159 1893.302)" fill="#ddcfff"/>
    <path id="Trazado_233849" data-name="Trazado 233849" d="M59.283,44.261V49.3H44.159V44.261H59.283Z" transform="translate(562 1844)" fill="#ddcfff"/>
    <path id="Trazado_233850" data-name="Trazado 233850" d="M16.434,44.261V49.3H1.311V44.261H16.434Z" transform="translate(562 1844)" fill="#ddcfff"/>
    <path id="Trazado_233851" data-name="Trazado 233851" d="M36.6,29.137v5.041h-12.6V29.137H36.6Z" transform="translate(562 1844)" fill="#fff"/>
    <path id="Trazado_233852" data-name="Trazado 233852" d="M30.246,14.014l3.831,7.561H26.516Z" transform="translate(562 1844)" fill="#ddcfff"/>
    <g id="Grupo_238633" data-name="Grupo 238633" transform="translate(562 1844)" clip-path="url(#clip-path-2)">
      <path id="Trazado_233853" data-name="Trazado 233853" d="M30.246,1.412a2.5,2.5,0,0,1,2.521,2.52,2.5,2.5,0,0,1-2.521,2.521,2.561,2.561,0,0,1-2.52-2.521,2.5,2.5,0,0,1,2.52-2.52" fill="#fff"/>
      <path id="Trazado_233854" data-name="Trazado 233854" d="M49.2,21.576H41.639V14.015Z" fill="#ddcfff"/>
      <path id="Trazado_233855" data-name="Trazado 233855" d="M20.164,21.576H12.6V14.015Z" fill="#ddcfff"/>
      <path id="Trazado_233856" data-name="Trazado 233856" d="M49.2,14.014v7.561l-7.561-7.561Z" fill="#ddcfff"/>
      <path id="Trazado_233857" data-name="Trazado 233857" d="M20.164,17.745v3.831L12.6,14.015h7.562Z" fill="#ddcfff"/>
      <path id="Trazado_233858" data-name="Trazado 233858" d="M20.164,22.786H12.6a1.334,1.334,0,0,1-1.31-1.311V13.913A1.334,1.334,0,0,1,12.6,12.6h7.562a1.335,1.335,0,0,1,1.311,1.31v7.562a1.335,1.335,0,0,1-1.311,1.311m-6.251-2.521h5.041V15.224H13.913Z" fill="#2f077f"/>
      <path id="Trazado_233859" data-name="Trazado 233859" d="M20.164,22.786a1.231,1.231,0,0,1-.907-.4l-7.562-7.562a1.283,1.283,0,0,1,1.815-1.815l7.561,7.562a1.278,1.278,0,0,1,0,1.815,1.232,1.232,0,0,1-.907.4" fill="#2f077f"/>
      <path id="Trazado_233860" data-name="Trazado 233860" d="M49.2,22.786H41.639a1.335,1.335,0,0,1-1.311-1.311V13.913a1.335,1.335,0,0,1,1.311-1.31H49.2a1.336,1.336,0,0,1,1.312,1.31v7.562A1.5,1.5,0,0,1,49.2,22.786m-6.351-2.521H47.89V15.224H42.849Z" fill="#2f077f"/>
      <path id="Trazado_233861" data-name="Trazado 233861" d="M49.2,22.786a1.234,1.234,0,0,1-.907-.4l-7.562-7.562a1.284,1.284,0,1,1,1.816-1.815l7.561,7.562a1.278,1.278,0,0,1,0,1.815,1.234,1.234,0,0,1-.908.4" fill="#2f077f"/>
      <path id="Trazado_233862" data-name="Trazado 233862" d="M30.246,16.535a1.335,1.335,0,0,1-1.311-1.311V6.352a1.311,1.311,0,1,1,2.622,0v8.872a1.335,1.335,0,0,1-1.311,1.311" fill="#2f077f"/>
      <path id="Trazado_233863" data-name="Trazado 233863" d="M30.246,7.662a3.831,3.831,0,1,1,3.831-3.831,3.829,3.829,0,0,1-3.831,3.831m0-5.041a1.335,1.335,0,0,0-1.311,1.311,1.311,1.311,0,1,0,2.622,0,1.335,1.335,0,0,0-1.311-1.311" fill="#2f077f"/>
      <path id="Trazado_233864" data-name="Trazado 233864" d="M34.077,22.785H26.515a1.394,1.394,0,0,1-1.109-.6,1.7,1.7,0,0,1-.1-1.21l3.832-7.562a1.224,1.224,0,0,1,2.218,0l3.731,7.461a1.443,1.443,0,0,1,.2.6,1.319,1.319,0,0,1-1.21,1.31m-5.545-2.52H32.06l-1.814-3.529Z" fill="#2f077f"/>
      <path id="Trazado_233865" data-name="Trazado 233865" d="M30.246,30.347a1.335,1.335,0,0,1-1.311-1.311V21.475a1.311,1.311,0,1,1,2.622,0v7.561a1.335,1.335,0,0,1-1.311,1.311" fill="#2f077f"/>
      <path id="Trazado_233866" data-name="Trazado 233866" d="M36.6,35.388H24a1.333,1.333,0,0,1-1.31-1.31V29.037A1.334,1.334,0,0,1,24,27.726H36.6a1.334,1.334,0,0,1,1.31,1.311v5.041a1.493,1.493,0,0,1-1.31,1.31M25.2,32.868H35.287V30.347H25.2Z" fill="#2f077f"/>
      <path id="Trazado_233867" data-name="Trazado 233867" d="M27.726,19.055H20.164a1.311,1.311,0,0,1,0-2.621h7.562a1.311,1.311,0,1,1,0,2.621" fill="#2f077f"/>
      <path id="Trazado_233868" data-name="Trazado 233868" d="M40.328,19.055H32.767a1.311,1.311,0,1,1,0-2.621h7.561a1.311,1.311,0,1,1,0,2.621" fill="#2f077f"/>
      <path id="Trazado_233869" data-name="Trazado 233869" d="M16.434,60.594H1.311A1.335,1.335,0,0,1,0,59.283V44.16a1.335,1.335,0,0,1,1.311-1.311H16.434a1.334,1.334,0,0,1,1.31,1.311V59.283a1.5,1.5,0,0,1-1.31,1.311M2.52,58.074h12.6v-12.6H2.52Z" fill="#2f077f"/>
      <path id="Trazado_233870" data-name="Trazado 233870" d="M16.434,50.512H1.311a1.311,1.311,0,0,1,0-2.622H16.434A1.335,1.335,0,0,1,17.745,49.2a1.5,1.5,0,0,1-1.311,1.311" fill="#2f077f"/>
      <path id="Trazado_233871" data-name="Trazado 233871" d="M6.352,56.863a1.231,1.231,0,0,1-.907-.4L4.133,55.149a1.278,1.278,0,0,1,0-1.815l1.312-1.31a1.283,1.283,0,0,1,1.814,1.815l-.4.4.4.4a1.278,1.278,0,0,1,0,1.815,1.815,1.815,0,0,1-.907.4" fill="#2f077f"/>
      <path id="Trazado_233872" data-name="Trazado 233872" d="M11.393,56.863a1.231,1.231,0,0,1-.907-.4,1.277,1.277,0,0,1,0-1.815l.4-.4-.4-.4A1.283,1.283,0,0,1,12.3,52.024l1.21,1.31a1.278,1.278,0,0,1,0,1.815L12.3,56.46a1.812,1.812,0,0,1-.907.4" fill="#2f077f"/>
      <path id="Trazado_233873" data-name="Trazado 233873" d="M59.283,60.594H44.159a1.335,1.335,0,0,1-1.31-1.311V44.16a1.335,1.335,0,0,1,1.31-1.311H59.283a1.335,1.335,0,0,1,1.311,1.311V59.283a1.5,1.5,0,0,1-1.311,1.311m-13.914-2.52h12.6v-12.6h-12.6Z" fill="#2f077f"/>
      <path id="Trazado_233874" data-name="Trazado 233874" d="M59.283,50.512H44.159a1.311,1.311,0,1,1,0-2.622H59.283A1.335,1.335,0,0,1,60.594,49.2a1.5,1.5,0,0,1-1.311,1.311" fill="#2f077f"/>
      <path id="Trazado_233875" data-name="Trazado 233875" d="M49.2,56.863a1.234,1.234,0,0,1-.907-.4l-1.311-1.311a1.278,1.278,0,0,1,0-1.815l1.311-1.31a1.283,1.283,0,0,1,1.815,1.815l-.4.4.4.4a1.278,1.278,0,0,1,0,1.815,1.818,1.818,0,0,1-.908.4" fill="#2f077f"/>
      <path id="Trazado_233876" data-name="Trazado 233876" d="M54.242,56.863a1.234,1.234,0,0,1-.908-.4,1.278,1.278,0,0,1,0-1.815l.4-.4-.4-.4a1.283,1.283,0,0,1,1.815-1.815l1.311,1.31a1.278,1.278,0,0,1,0,1.815L55.149,56.46a1.819,1.819,0,0,1-.907.4" fill="#2f077f"/>
      <path id="Trazado_233877" data-name="Trazado 233877" d="M8.872,45.471A1.335,1.335,0,0,1,7.561,44.16V39.119a1.335,1.335,0,0,1,1.311-1.311H29.036V33.977a1.311,1.311,0,1,1,2.621,0v5.041a1.334,1.334,0,0,1-1.31,1.311H10.183V44.16a1.5,1.5,0,0,1-1.311,1.311" fill="#2f077f"/>
      <path id="Trazado_233878" data-name="Trazado 233878" d="M51.721,45.471A1.335,1.335,0,0,1,50.41,44.16V40.329H30.246a1.31,1.31,0,0,1,0-2.621H51.721a1.334,1.334,0,0,1,1.311,1.31v5.041a1.51,1.51,0,0,1-1.311,1.412" fill="#2f077f"/>
    </g>
    <path id="Trazado_234533" data-name="Trazado 234533" d="M0,0H23.693V7.864H0Z" transform="translate(805.717 1845.411)" fill="#fff"/>
    <path id="Trazado_234534" data-name="Trazado 234534" d="M0,0H23.693V7.864H0Z" transform="translate(805.717 1876.969)" fill="#fff"/>
    <path id="Trazado_233879" data-name="Trazado 233879" d="M59.41,9.275V27.726H35.717V9.275Z" transform="translate(770 1844)" fill="#fff"/>
    <path id="Trazado_233880" data-name="Trazado 233880" d="M59.41,40.934v18.45H35.717V40.934Z" transform="translate(770 1844)" fill="#fff"/>
    <g id="Grupo_238636" data-name="Grupo 238636" transform="translate(770 1844)" clip-path="url(#clip-path-3)">
      <path id="Trazado_233881" data-name="Trazado 233881" d="M11.52,34.178a5.041,5.041,0,1,1-5.041,5.041,5.041,5.041,0,0,1,5.041-5.041" fill="#fff"/>
      <path id="Trazado_233882" data-name="Trazado 233882" d="M16.561,59.384H1.438V54.343a10.082,10.082,0,1,1,20.164,0v5.041Z" fill="#fff"/>
      <rect id="Rectángulo_314226" data-name="Rectángulo 314226" width="2.621" height="2.622" transform="translate(44.892 35.691)" fill="#8628a5"/>
      <rect id="Rectángulo_314227" data-name="Rectángulo 314227" width="2.621" height="2.622" transform="translate(44.892 4.033)" fill="#8628a5"/>
      <rect id="Rectángulo_314228" data-name="Rectángulo 314228" width="2.621" height="2.622" transform="translate(39.448 35.691)" fill="#8628a5"/>
      <rect id="Rectángulo_314229" data-name="Rectángulo 314229" width="2.621" height="2.622" transform="translate(39.448 4.033)" fill="#8628a5"/>
      <rect id="Rectángulo_314230" data-name="Rectángulo 314230" width="2.017" height="2.017" transform="translate(18.275 6.957)" fill="#8628a5"/>
      <rect id="Rectángulo_314231" data-name="Rectángulo 314231" width="2.017" height="2.017" transform="translate(13.234 6.957)" fill="#8628a5"/>
      <rect id="Rectángulo_314232" data-name="Rectángulo 314232" width="2.017" height="2.017" transform="translate(8.193 6.957)" fill="#8628a5"/>
      <path id="Trazado_233883" data-name="Trazado 233883" d="M7.688,15.224H3.857a1.335,1.335,0,0,1-1.311-1.311V9.477L.833,8.771A1.382,1.382,0,0,1,.026,7.763a1.118,1.118,0,0,1,.4-1.109L2.546,4.94V1.31A1.335,1.335,0,0,1,3.857,0H7.688A1.335,1.335,0,0,1,9,1.31,1.335,1.335,0,0,1,7.688,2.621H5.167V5.545a1.787,1.787,0,0,1-.4,1.008l-.907.807.6.2a1.217,1.217,0,0,1,.807,1.21V12.8H7.688A1.335,1.335,0,0,1,9,14.115a1.319,1.319,0,0,1-1.311,1.109" fill="#8628a5"/>
      <path id="Trazado_233884" data-name="Trazado 233884" d="M24.122,15.224H20.291a1.311,1.311,0,1,1,0-2.622h2.52V8.57a1.309,1.309,0,0,1,.807-1.21l.6-.2-.908-.807a1.169,1.169,0,0,1-.4-1.008V2.621h-2.52A1.335,1.335,0,0,1,19.081,1.31,1.335,1.335,0,0,1,20.392,0h3.831a1.335,1.335,0,0,1,1.311,1.31V4.94l2.117,1.714a1.2,1.2,0,0,1,.4,1.109,1.6,1.6,0,0,1-.806,1.008l-1.714.706v4.436a1.705,1.705,0,0,1-1.412,1.311" fill="#8628a5"/>
      <path id="Trazado_233885" data-name="Trazado 233885" d="M21.6,60.593H1.437a1.335,1.335,0,0,1-1.311-1.31V54.242A11.381,11.381,0,0,1,11.519,42.849a11.628,11.628,0,0,1,8.066,3.326,11.451,11.451,0,0,1,3.327,8.067v5.041a1.494,1.494,0,0,1-1.31,1.31M2.647,58.073H20.291V54.242a8.952,8.952,0,0,0-8.873-8.872,8.885,8.885,0,0,0-8.872,8.872v3.831Z" fill="#8628a5"/>
      <path id="Trazado_233886" data-name="Trazado 233886" d="M6.479,60.594a1.335,1.335,0,0,1-1.311-1.311V54.242a1.311,1.311,0,0,1,2.622,0v5.041a1.5,1.5,0,0,1-1.311,1.311" fill="#8628a5"/>
      <path id="Trazado_233887" data-name="Trazado 233887" d="M16.561,60.594a1.335,1.335,0,0,1-1.311-1.311V54.242a1.311,1.311,0,0,1,2.622,0v5.041a1.5,1.5,0,0,1-1.311,1.311" fill="#8628a5"/>
      <path id="Trazado_233888" data-name="Trazado 233888" d="M11.52,45.47a6.39,6.39,0,0,1-6.352-6.351,6.352,6.352,0,1,1,12.7,0A6.39,6.39,0,0,1,11.52,45.47m0-10.082a3.831,3.831,0,1,0,3.831,3.832,3.9,3.9,0,0,0-3.831-3.832" fill="#8628a5"/>
      <path id="Trazado_233889" data-name="Trazado 233889" d="M59.41,10.485H35.717a1.311,1.311,0,1,1,0-2.622H59.41a1.335,1.335,0,0,1,1.311,1.311,1.4,1.4,0,0,1-1.311,1.311" fill="#8628a5"/>
      <path id="Trazado_233890" data-name="Trazado 233890" d="M43.581,22.382a1.234,1.234,0,0,1-.907-.4l-2.621-2.622a1.275,1.275,0,0,1,0-1.814l2.621-2.622a1.283,1.283,0,0,1,1.815,1.815L42.775,18.45l1.714,1.714a1.278,1.278,0,0,1,0,1.815,1.234,1.234,0,0,1-.908.4" fill="#8628a5"/>
      <path id="Trazado_233891" data-name="Trazado 233891" d="M51.445,22.382a1.232,1.232,0,0,1-.907-.4,1.277,1.277,0,0,1,0-1.815l1.714-1.714-1.714-1.714a1.283,1.283,0,0,1,1.814-1.815l2.622,2.622a1.277,1.277,0,0,1,0,1.814l-2.622,2.622a1.094,1.094,0,0,1-.907.4" fill="#8628a5"/>
      <path id="Trazado_233892" data-name="Trazado 233892" d="M47.816,23.693a1.211,1.211,0,0,1-1.21-1.109l-.7-7.864a1.214,1.214,0,1,1,2.419-.2l.706,7.865a1.173,1.173,0,0,1-1.109,1.31Z" fill="#8628a5"/>
      <path id="Trazado_233893" data-name="Trazado 233893" d="M59.41,28.936H35.717a1.336,1.336,0,0,1-1.311-1.311V1.411A1.335,1.335,0,0,1,35.717.1H59.41a1.335,1.335,0,0,1,1.311,1.31V27.726a1.392,1.392,0,0,1-1.311,1.21M36.927,26.415H58.1V2.621H36.927Z" fill="#8628a5"/>
      <path id="Trazado_233894" data-name="Trazado 233894" d="M59.41,42.144H35.717a1.311,1.311,0,1,1,0-2.621H59.41a1.334,1.334,0,0,1,1.311,1.31,1.409,1.409,0,0,1-1.311,1.311" fill="#8628a5"/>
      <path id="Trazado_233895" data-name="Trazado 233895" d="M43.581,54.04a1.234,1.234,0,0,1-.907-.4l-2.621-2.621a1.277,1.277,0,0,1,0-1.815l2.621-2.622a1.283,1.283,0,1,1,1.815,1.815l-1.714,1.714,1.714,1.714a1.278,1.278,0,0,1,0,1.815,1.234,1.234,0,0,1-.908.4" fill="#8628a5"/>
      <path id="Trazado_233896" data-name="Trazado 233896" d="M51.445,54.04a1.232,1.232,0,0,1-.907-.4,1.277,1.277,0,0,1,0-1.815l1.714-1.714-1.714-1.714a1.283,1.283,0,0,1,1.814-1.815L54.974,49.2a1.278,1.278,0,0,1,0,1.815l-2.622,2.621a1.094,1.094,0,0,1-.907.4" fill="#8628a5"/>
      <path id="Trazado_233897" data-name="Trazado 233897" d="M47.816,55.351a1.211,1.211,0,0,1-1.21-1.108l-.7-7.865a1.214,1.214,0,0,1,2.419-.2l.706,7.864a1.174,1.174,0,0,1-1.109,1.311Z" fill="#8628a5"/>
      <path id="Trazado_233898" data-name="Trazado 233898" d="M59.41,60.594H35.717a1.336,1.336,0,0,1-1.311-1.311V32.969a1.335,1.335,0,0,1,1.311-1.311H59.41a1.335,1.335,0,0,1,1.311,1.311V59.283a1.5,1.5,0,0,1-1.311,1.311m-22.483-2.52H58.1V34.28H36.927Z" fill="#8628a5"/>
    </g>
    <path id="Trazado_233899" data-name="Trazado 233899" d="M59.283,47.891V57.973H1.31V47.891H21.475v3.831H37.808V47.891H59.283Z" transform="translate(976 1845)" fill="#fff"/>
    <g id="Grupo_238639" data-name="Grupo 238639" transform="translate(976 1845)" clip-path="url(#clip-path-4)">
      <path id="Trazado_233900" data-name="Trazado 233900" d="M44.16,1.311A13.813,13.813,0,1,1,30.347,15.124,13.814,13.814,0,0,1,44.16,1.311" fill="#fff"/>
      <path id="Trazado_233901" data-name="Trazado 233901" d="M43.857,25.508,34.884,11.494h6.755L43.857,24.7l.3.3Z" fill="#fff"/>
      <path id="Trazado_233902" data-name="Trazado 233902" d="M51.823,11.494l.5-.5.5.4L44.16,25l-.3-.3,3.327-13.207Z" fill="#fff"/>
      <path id="Trazado_233903" data-name="Trazado 233903" d="M47.185,11.494,43.858,24.7,41.64,11.494Z" fill="#fff"/>
      <rect id="Rectángulo_314234" data-name="Rectángulo 314234" width="3.831" height="3.832" transform="translate(23.996 18.954)" fill="#2f077f"/>
      <rect id="Rectángulo_314235" data-name="Rectángulo 314235" width="3.831" height="3.832" transform="translate(17.644 18.954)" fill="#2f077f"/>
      <path id="Trazado_233909" data-name="Trazado 233909" d="M59.283,59.283H39.119a1.311,1.311,0,1,1,0-2.621H57.972V49.1H39.119v2.521a1.335,1.335,0,0,1-1.311,1.31H21.475a1.334,1.334,0,0,1-1.311-1.31V49.1H2.52v7.562H21.475a1.311,1.311,0,1,1,0,2.621H1.31A1.335,1.335,0,0,1,0,57.972V47.89a1.334,1.334,0,0,1,1.31-1.31H21.475a1.335,1.335,0,0,1,1.311,1.31v2.521H36.7V47.89a1.334,1.334,0,0,1,1.311-1.31H59.485A1.334,1.334,0,0,1,60.8,47.89V57.972a1.952,1.952,0,0,1-1.513,1.311" fill="#2f077f"/>
      <path id="Trazado_233910" data-name="Trazado 233910" d="M54.242,49.2a1.335,1.335,0,0,1-1.311-1.31V32.767a1.311,1.311,0,0,1,2.622,0V47.891a1.5,1.5,0,0,1-1.311,1.31" fill="#2f077f"/>
      <path id="Trazado_233911" data-name="Trazado 233911" d="M6.352,49.2a1.335,1.335,0,0,1-1.311-1.31V7.561a1.334,1.334,0,0,1,1.311-1.31H26.516a1.311,1.311,0,1,1,0,2.621H7.561V47.991A1.3,1.3,0,0,1,6.352,49.2" fill="#2f077f"/>
      <path id="Trazado_233912" data-name="Trazado 233912" d="M38.716,42.85H30.348c-8.671,0-17.342-.1-17.443-.1a1.251,1.251,0,0,1-1.21-1.311V13.913a1.335,1.335,0,0,1,1.311-1.31H26.718a1.311,1.311,0,0,1,0,2.622h-12.5v25.1c11.8.1,28.029.1,32.465,0V32.768a1.311,1.311,0,1,1,2.621,0v8.771a1.236,1.236,0,0,1-.4.908,1.492,1.492,0,0,1-1.311.4H38.716Z" fill="#2f077f"/>
      <path id="Trazado_233913" data-name="Trazado 233913" d="M43.858,26.819h0a1.394,1.394,0,0,1-1.109-.6L33.776,12.1a1.37,1.37,0,0,1,.2-1.613l4.436-4.335a1.28,1.28,0,0,1,.908-.4h8.973a1.232,1.232,0,0,1,.908.4l4.436,4.335a1.369,1.369,0,0,1,.2,1.613L44.866,26.214a1.109,1.109,0,0,1-1.008.6M36.5,11.6l7.36,11.6,7.36-11.6L47.79,8.368H39.825Z" fill="#f8a800"/>
      <path id="Trazado_233914" data-name="Trazado 233914" d="M51.823,12.7H34.885a1.319,1.319,0,0,1-1.311-1.209,1.409,1.409,0,0,1,1.311-1.311H51.823a1.335,1.335,0,0,1,1.311,1.311A1.25,1.25,0,0,1,51.823,12.7" fill="#f8a800"/>
      <path id="Trazado_233916" data-name="Trazado 233916" d="M43.857,24.953h0a1.273,1.273,0,0,1-1.209-.942L40.329,11.3a1.117,1.117,0,0,1,1.007-1.318,1.176,1.176,0,0,1,1.412.941l1.311,7.159,1.916-7.253a1.2,1.2,0,0,1,1.512-.847,1.112,1.112,0,0,1,.907,1.412L44.966,24.105a1.165,1.165,0,0,1-1.109.847" transform="translate(0 1.059)" fill="#f8a800"/>
      <path id="Trazado_233917" data-name="Trazado 233917" d="M39.119,59.283H21.475a1.311,1.311,0,1,1,0-2.621H39.119a1.334,1.334,0,0,1,1.311,1.31,1.5,1.5,0,0,1-1.311,1.311" fill="#2f077f"/>
      <path id="Trazado_233918" data-name="Trazado 233918" d="M44.16,30.248A15.124,15.124,0,1,1,59.283,15.123,15.1,15.1,0,0,1,44.16,30.248m0-27.727a12.6,12.6,0,1,0,12.6,12.6,12.607,12.607,0,0,0-12.6-12.6" fill="#2f077f"/>
      <path id="Trazado_233919" data-name="Trazado 233919" d="M32.767,31.558H18.954a1.311,1.311,0,0,1,0-2.622H32.767a1.311,1.311,0,1,1,0,2.622" fill="#2f077f"/>
      <path id="Trazado_233920" data-name="Trazado 233920" d="M31.557,36.6h-12.6a1.31,1.31,0,1,1,0-2.621h12.6a1.334,1.334,0,0,1,1.311,1.31A1.409,1.409,0,0,1,31.557,36.6" fill="#2f077f"/>
    </g>
    <path id="Trazado_233921" data-name="Trazado 233921" d="M1.311,11.393v47.89H59.283V11.393Z" transform="translate(1185 1844)" fill="#fff"/>
    <path id="Trazado_233922" data-name="Trazado 233922" d="M31.558,39.119H21.475V29.036Z" transform="translate(1185 1844)" fill="#fff"/>
    <path id="Trazado_233923" data-name="Trazado 233923" d="M16.434,54.242H6.352V44.16Z" transform="translate(1185 1844)" fill="#f2d4ff"/>
    <path id="Trazado_233924" data-name="Trazado 233924" d="M16.434,44.16V54.242L6.352,44.16Z" transform="translate(1185 1844)" fill="#f2d4ff"/>
    <path id="Trazado_233925" data-name="Trazado 233925" d="M31.558,29.037V39.12L21.475,29.037Z" transform="translate(1185 1844)" fill="#fff"/>
    <path id="Trazado_233926" data-name="Trazado 233926" d="M16.434,39.119H6.352V29.036Z" transform="translate(1185 1844)" fill="#f2d4ff"/>
    <path id="Trazado_233927" data-name="Trazado 233927" d="M31.558,54.242H21.475V44.16Z" transform="translate(1185 1844)" fill="#fff"/>
    <path id="Trazado_233928" data-name="Trazado 233928" d="M54.242,54.242H44.16V44.16Z" transform="translate(1185 1844)" fill="#f2d4ff"/>
    <path id="Trazado_233929" data-name="Trazado 233929" d="M54.242,39.119H44.16V29.036Z" transform="translate(1185 1844)" fill="#f2d4ff"/>
    <path id="Trazado_233930" data-name="Trazado 233930" d="M54.242,44.16V54.242L44.16,44.16Z" transform="translate(1185 1844)" fill="#f2d4ff"/>
    <path id="Trazado_233931" data-name="Trazado 233931" d="M31.558,44.16V54.242L21.475,44.16Z" transform="translate(1185 1844)" fill="#fff"/>
    <path id="Trazado_233932" data-name="Trazado 233932" d="M54.242,29.037V39.12L44.16,29.037Z" transform="translate(1185 1844)" fill="#f2d4ff"/>
    <path id="Trazado_233933" data-name="Trazado 233933" d="M16.434,29.037V39.12L6.352,29.037Z" transform="translate(1185 1844)" fill="#f2d4ff"/>
    <path id="Trazado_234535" data-name="Trazado 234535" d="M0,0H57.973V10.083H0Z" transform="translate(1186.311 1845.311)" fill="#fff"/>
    <path id="Trazado_234536" data-name="Trazado 234536" d="M0,0H2.218V2.218H0Z" transform="translate(1217.364 1863.459)" fill="#8628a5"/>
    <path id="Trazado_234537" data-name="Trazado 234537" d="M0,0H2.218V2.218H0Z" transform="translate(1212.827 1863.459)" fill="#8628a5"/>
    <path id="Trazado_234538" data-name="Trazado 234538" d="M0,0H2.218V2.218H0Z" transform="translate(1208.391 1863.459)" fill="#8628a5"/>
    <g id="Grupo_238642" data-name="Grupo 238642" transform="translate(1185 1844)" clip-path="url(#clip-path-2)">
      <path id="Trazado_233934" data-name="Trazado 233934" d="M59.283,60.493H39.119a1.31,1.31,0,1,1,0-2.621H57.972V2.52H2.52V57.973H21.474a1.311,1.311,0,1,1,0,2.621H1.31A1.334,1.334,0,0,1,0,59.283V1.31A1.334,1.334,0,0,1,1.31,0H59.283a1.334,1.334,0,0,1,1.31,1.31V59.283a1.493,1.493,0,0,1-1.31,1.21" fill="#8628a5"/>
      <path id="Trazado_233935" data-name="Trazado 233935" d="M54.242,7.562H31.558a1.311,1.311,0,1,1,0-2.621H54.242a1.335,1.335,0,0,1,1.311,1.31,1.5,1.5,0,0,1-1.311,1.311" fill="#8628a5"/>
      <path id="Trazado_233936" data-name="Trazado 233936" d="M8.872,7.562H6.352a1.311,1.311,0,1,1,0-2.621h2.52a1.335,1.335,0,0,1,1.311,1.31A1.5,1.5,0,0,1,8.872,7.562" fill="#8628a5"/>
      <path id="Trazado_233937" data-name="Trazado 233937" d="M20.164,7.562H17.643a1.311,1.311,0,0,1,0-2.621h2.521a1.311,1.311,0,1,1,0,2.621" fill="#8628a5"/>
      <path id="Trazado_233938" data-name="Trazado 233938" d="M59.283,12.6H1.31a1.311,1.311,0,0,1,0-2.622H59.283a1.334,1.334,0,0,1,1.31,1.311,1.494,1.494,0,0,1-1.31,1.311" fill="#8628a5"/>
      <path id="Trazado_233939" data-name="Trazado 233939" d="M16.434,40.329H6.352a1.335,1.335,0,0,1-1.311-1.31V28.936a1.335,1.335,0,0,1,1.311-1.31H16.434a1.334,1.334,0,0,1,1.31,1.31V39.019a1.5,1.5,0,0,1-1.31,1.31m-8.873-2.52h7.561V30.247H7.561Z" fill="#8628a5"/>
      <path id="Trazado_233940" data-name="Trazado 233940" d="M16.434,40.329a1.237,1.237,0,0,1-.908-.4L5.444,29.843a1.283,1.283,0,1,1,1.815-1.815L17.341,38.11a1.28,1.28,0,0,1,0,1.816,1.234,1.234,0,0,1-.907.4" fill="#8628a5"/>
      <path id="Trazado_233941" data-name="Trazado 233941" d="M16.434,55.452H6.352a1.334,1.334,0,0,1-1.311-1.31V44.06a1.335,1.335,0,0,1,1.311-1.311H16.434a1.334,1.334,0,0,1,1.31,1.311V54.142a1.494,1.494,0,0,1-1.31,1.31m-8.873-2.52h7.561V45.37H7.561Z" fill="#8628a5"/>
      <path id="Trazado_233942" data-name="Trazado 233942" d="M16.434,55.452a1.237,1.237,0,0,1-.908-.4L5.444,44.967a1.284,1.284,0,0,1,1.815-1.816L17.341,53.234a1.278,1.278,0,0,1,0,1.815,1.234,1.234,0,0,1-.907.4" fill="#8628a5"/>
      <path id="Trazado_233943" data-name="Trazado 233943" d="M31.558,40.329H21.475a1.335,1.335,0,0,1-1.311-1.31V28.936a1.335,1.335,0,0,1,1.311-1.31H31.558a1.334,1.334,0,0,1,1.31,1.31V39.019a1.5,1.5,0,0,1-1.31,1.31m-8.874-2.52h7.561V30.247H22.684Z" fill="#8628a5"/>
      <path id="Trazado_233944" data-name="Trazado 233944" d="M31.558,40.329a1.234,1.234,0,0,1-.908-.4L20.568,29.843a1.283,1.283,0,1,1,1.815-1.815L32.465,38.11a1.28,1.28,0,0,1,0,1.816,1.234,1.234,0,0,1-.907.4" fill="#8628a5"/>
      <path id="Trazado_233945" data-name="Trazado 233945" d="M31.558,55.452H21.475a1.335,1.335,0,0,1-1.311-1.31V44.06a1.335,1.335,0,0,1,1.311-1.311H31.558a1.335,1.335,0,0,1,1.31,1.311V54.142a1.494,1.494,0,0,1-1.31,1.31m-8.874-2.52h7.561V45.37H22.684Z" fill="#8628a5"/>
      <path id="Trazado_233946" data-name="Trazado 233946" d="M31.558,55.452a1.234,1.234,0,0,1-.908-.4L20.568,44.967a1.284,1.284,0,1,1,1.815-1.816L32.465,53.234a1.278,1.278,0,0,1,0,1.815,1.234,1.234,0,0,1-.907.4" fill="#8628a5"/>
      <path id="Trazado_233947" data-name="Trazado 233947" d="M37.909,25.206H35.691a1.311,1.311,0,1,1,0-2.622H36.7V21.577a1.275,1.275,0,0,1,.4-.908,1.1,1.1,0,0,1-.4-.907V18.451H35.691a1.311,1.311,0,1,1,0-2.622h2.218A1.335,1.335,0,0,1,39.22,17.14v1.916l.706.6a1.172,1.172,0,0,1,.4,1.008,1.794,1.794,0,0,1-.4,1.008l-.706.6V24a1.32,1.32,0,0,1-1.311,1.21" fill="#8628a5"/>
      <path id="Trazado_233948" data-name="Trazado 233948" d="M22.281,25.206H20.063a1.334,1.334,0,0,1-1.31-1.311V22.182l-.706-.5a1.167,1.167,0,0,1-.4-1.008,1.788,1.788,0,0,1,.4-1.008l.706-.6V17.14a1.335,1.335,0,0,1,1.31-1.311h2.218a1.311,1.311,0,0,1,0,2.622H21.273v1.311a1.281,1.281,0,0,1-.4.907,1.093,1.093,0,0,1,.4.908v1.007h1.008a1.311,1.311,0,0,1,0,2.622" fill="#8628a5"/>
      <path id="Trazado_233949" data-name="Trazado 233949" d="M39.119,60.493H21.474a1.31,1.31,0,0,1,0-2.621H39.119a1.335,1.335,0,0,1,1.311,1.31,1.5,1.5,0,0,1-1.311,1.311" fill="#8628a5"/>
      <path id="Trazado_233950" data-name="Trazado 233950" d="M54.242,40.329H44.16a1.334,1.334,0,0,1-1.31-1.31V28.936a1.334,1.334,0,0,1,1.31-1.31H54.242a1.335,1.335,0,0,1,1.311,1.31V39.019a1.5,1.5,0,0,1-1.311,1.31m-8.872-2.52h7.562V30.247H45.37Z" fill="#8628a5"/>
      <path id="Trazado_233951" data-name="Trazado 233951" d="M54.242,40.329a1.232,1.232,0,0,1-.907-.4L43.253,29.843a1.283,1.283,0,0,1,1.814-1.815L55.149,38.11a1.28,1.28,0,0,1,0,1.816,1.231,1.231,0,0,1-.907.4" fill="#8628a5"/>
      <path id="Trazado_233952" data-name="Trazado 233952" d="M54.242,55.452H44.16a1.333,1.333,0,0,1-1.31-1.31V44.06a1.334,1.334,0,0,1,1.31-1.311H54.242a1.335,1.335,0,0,1,1.311,1.311V54.142a1.5,1.5,0,0,1-1.311,1.31m-8.872-2.52h7.562V45.37H45.37Z" fill="#8628a5"/>
      <path id="Trazado_233953" data-name="Trazado 233953" d="M54.242,55.452a1.232,1.232,0,0,1-.907-.4L43.253,44.967a1.283,1.283,0,0,1,1.814-1.816L55.149,53.234a1.278,1.278,0,0,1,0,1.815,1.231,1.231,0,0,1-.907.4" fill="#8628a5"/>
    </g>
  </g>
</svg>
