<svg xmlns="http://www.w3.org/2000/svg" xmlns:xlink="http://www.w3.org/1999/xlink" width="400" height="229.492" viewBox="0 0 400 229.492">
  <defs>
    <filter id="Trazado_233431" x="37.779" y="0.371" width="178.479" height="171.459" filterUnits="userSpaceOnUse">
      <feOffset dx="2" dy="3" input="SourceAlpha"/>
      <feGaussianBlur stdDeviation="3" result="blur"/>
      <feFlood flood-opacity="0.259"/>
      <feComposite operator="in" in2="blur"/>
      <feComposite in="SourceGraphic"/>
    </filter>
  </defs>
  <g id="Grupo_238749" data-name="Grupo 238749" transform="translate(-1020 -11294.115)">
    <path id="Trazado_234569" data-name="Trazado 234569" d="M0,0H400V229H0Z" transform="translate(1020 11294.115)" fill="none"/>
    <path id="Trazado_233421" data-name="Trazado 233421" d="M92.546,0,61.681,54.857H0L30.841,0H92.546" transform="translate(1277.22 11312.867)" opacity="0.45"/>
    <path id="Trazado_233422" data-name="Trazado 233422" d="M161.441,54.857h61.705L192.305,0H130.6Z" transform="translate(1177.46 11312.867)" opacity="0.6"/>
    <path id="Trazado_233423" data-name="Trazado 233423" d="M30.841,109.69,61.681,54.857,30.841,0,0,54.857Z" transform="translate(1277.22 11312.867)" opacity="0.8"/>
    <path id="Trazado_233424" data-name="Trazado 233424" d="M131.9,635.557,162.764,580.7h61.705l-30.864,54.857H131.9" transform="translate(1176.467 10869.297)" opacity="0.45"/>
    <path id="Trazado_233425" data-name="Trazado 233425" d="M63.005,580.7H1.3l30.841,54.857H93.846Z" transform="translate(1276.227 10869.297)" opacity="0.6"/>
    <path id="Trazado_233426" data-name="Trazado 233426" d="M293.441,348.5,262.6,403.333l30.841,54.857,30.864-54.857Z" transform="translate(1076.632 11046.664)" opacity="0.8"/>
    <path id="Trazado_233430" data-name="Trazado 233430" d="M102.042.132c7.836-.4,14.986,1.053,22.122,2.418a81.382,81.382,0,0,1,17.541,5.9,86.1,86.1,0,0,1,21.115,13.8c7.591,6.5,13.342,14.422,18.13,23.088a80.172,80.172,0,0,1,6.9,17.18c1.073,3.825,1.679,7.792,2.371,11.725a78.958,78.958,0,0,1,1.006,13.523c.015,4.047-1.138,7.872-1.947,11.77-.942,4.543-2.992,8.64-5.09,12.7a57.588,57.588,0,0,1-4.627,7.435c-2.809,3.855-5.838,7.55-8.739,11.339-3.214,4.2-6.213,8.544-7.465,13.771a35.5,35.5,0,0,0-.472,11.051c.465,6.039,2.428,11.812,3.206,17.8.426,3.274,1.155,6.529.526,9.87a15.426,15.426,0,0,1-1.418,4.127,2.2,2.2,0,0,1-.988,1.036,15.071,15.071,0,0,1-6.549,1.942c-5.1.062-9.478,2.061-13.837,4.486-6.61,3.675-12.245,8.666-18.333,13.038-3.4,2.438-6.581,5.2-9.871,7.8a119.694,119.694,0,0,1-13.838,9.24,50.454,50.454,0,0,1-9.3,3.843c-4.654,1.59-7.7-.865-9.071-5.084-.9-2.777-1.491-5.649-2.437-8.424-1.916-5.615-3.864-11.213-6.885-16.358-.936-1.6-2.017-3.106-3.049-4.645a3.848,3.848,0,0,0-3.348-1.486c-3.91-.161-7.8.263-11.7.426-5.629.237-11.225.317-16.717-1.27-5.951-1.72-11.134-8.363-11.226-14.585-.051-3.364.007-6.729.036-10.092a3.854,3.854,0,0,0-.848-2.7,9.849,9.849,0,0,1-1.756-3.825,9.446,9.446,0,0,0-1.8-4.089,3.749,3.749,0,0,1-.482-3.229c.3-1.626.367-3.045-1.309-4.224a3.662,3.662,0,0,1-1.229-4.211c.739-2.767,1.637-5.521,1.531-8.449a4.85,4.85,0,0,0-2.967-4.618,32.83,32.83,0,0,0-6.746-1.9c-2.659-.618-5.267-1.424-7.937-1.994a6.539,6.539,0,0,1-2.992-1.483c-1.762-1.558-1.877-2.883-1.029-5.077a53.885,53.885,0,0,1,6.092-11.3c1.917-2.757,3.822-5.518,5.649-8.336,3.007-4.636,5.362-9.4,5.036-15.235a104.8,104.8,0,0,1,1.418-21.544A41.261,41.261,0,0,1,19.847,61.2a78.06,78.06,0,0,1,7.242-18.912A81.775,81.775,0,0,1,39.25,25.548,77.016,77.016,0,0,1,60,10.01,83.454,83.454,0,0,1,71.755,5.147,89.282,89.282,0,0,1,87.392,1.409c5.024-.7,10.017-1.787,14.65-1.277" transform="translate(1039 11294.115)" fill="#8628a5"/>
    <g transform="matrix(1, 0, 0, 1, 1020, 11294.12)" filter="url(#Trazado_233431)">
      <path id="Trazado_233431-2" data-name="Trazado 233431" d="M182.407,81.226c.163-2.366-1.135-6.273-1.5-10.293-.3-3.311-1.934-6.314-2.851-9.478a47.707,47.707,0,0,0-4.863-10.91,120.405,120.405,0,0,0-12.2-17.129,49.3,49.3,0,0,0-9.742-8.792c-3.626-2.473-7.254-4.925-10.993-7.234a80.722,80.722,0,0,0-19.935-8.653,103.4,103.4,0,0,0-13.63-2.627,64.576,64.576,0,0,0-21.272.418A79.234,79.234,0,0,0,72.408,9.851a104.058,104.058,0,0,0-13.268,6.1A62.6,62.6,0,0,0,47.384,24.1,70.784,70.784,0,0,0,30.165,45.511a67.263,67.263,0,0,0-5.984,16.418c-1.231,5.83-2.487,11.623-2.2,17.616A18.547,18.547,0,0,0,27.56,92.374a25.976,25.976,0,0,0,12.1,6.217c6.074,1.518,12.328,1.158,18.516,1.144a74.039,74.039,0,0,1,20.4,2.647,64.707,64.707,0,0,1,13.5,5.538c5.262,2.868,9.522,7.1,14.213,10.75a2.879,2.879,0,0,1,1.241,1.93c.209,2.389,1.05,4.665,1.255,7.042a37.792,37.792,0,0,0,3.884,13.395c2.444,5.021,5.675,9.552,8.625,14.26,1.472,2.35,5.938,4.159,8.657,3.414,1.5-.411,1.874-1.3,1.082-2.631a10.08,10.08,0,0,0-.7-.931c-4.892-6.393-8.88-13.174-9.482-21.463-.134-1.849.036-2.072,1.732-1.45.229.085.458.167.684.261a28.056,28.056,0,0,0,23.937-.656c3-1.439,5.977-2.907,8.819-4.617A45.6,45.6,0,0,0,169.66,114.8c3.44-4.765,5.934-10.056,8.528-15.292a40.83,40.83,0,0,0,4.219-18.285" transform="translate(22.84 0.95)" fill="#fff"/>
    </g>
    <path id="Trazado_234570" data-name="Trazado 234570" d="M50.587,16.164a3.348,3.348,0,0,0-.469-.186q-.273-.088-.586-.166a6.47,6.47,0,0,0-.654-.127,4.631,4.631,0,0,0-.654-.049,3.033,3.033,0,0,0-2.471,1.045A7.28,7.28,0,0,0,44.435,19.8L43.712,23h4.727l-.645,2.715H43.068L37.951,49.641H34.708l5.156-23.926H36.427L37.033,23H40.47l.8-3.711a10.853,10.853,0,0,1,1.035-2.93,6.723,6.723,0,0,1,1.582-1.973,5.9,5.9,0,0,1,2.08-1.113,8.772,8.772,0,0,1,2.549-.352,8.482,8.482,0,0,1,1.416.117,8.683,8.683,0,0,1,1.182.273Zm11.6-1.172a46.92,46.92,0,0,0-4.365,4.922,33.244,33.244,0,0,0-3.311,5.254A27.622,27.622,0,0,0,52.4,30.8a24.978,24.978,0,0,0-.537,9.238,23.891,23.891,0,0,0,.615,3.125,25.37,25.37,0,0,0,1,2.979,18.591,18.591,0,0,0,1.348,2.7H52.072A18.57,18.57,0,0,1,50.636,46.1a22.98,22.98,0,0,1-1.025-2.979A23.892,23.892,0,0,1,49,40.051a22.823,22.823,0,0,1-.205-3.008,27.144,27.144,0,0,1,.723-6.377,27.761,27.761,0,0,1,2.051-5.713A30.279,30.279,0,0,1,54.8,19.768a45.334,45.334,0,0,1,4.268-4.775ZM69.4,33.234,74.005,43l-3.535.039-2.52-6.27q-.117-.312-.322-.84t-.381-.977h-.1q-.137.2-.322.439t-.361.479q-.176.234-.342.439t-.283.361L60.607,43H56.8l9-9.961L61.31,23h3.535l2.4,6.367q.176.469.352,1.016t.273.859h.078q.117-.137.273-.342t.332-.439q.176-.234.361-.469t.361-.43L74.708,23h3.652Zm17.129-6.426a26.828,26.828,0,0,1-2.783,12.08A30.93,30.93,0,0,1,80.5,44.064a45.333,45.333,0,0,1-4.268,4.775H73.087a48.394,48.394,0,0,0,4.375-4.912,32.481,32.481,0,0,0,3.32-5.244,27.622,27.622,0,0,0,2.109-5.635,24.925,24.925,0,0,0,.537-9.229,25.46,25.46,0,0,0-.605-3.125,23.967,23.967,0,0,0-.986-2.988,19.522,19.522,0,0,0-1.348-2.715H83.2a19.957,19.957,0,0,1,1.445,2.773,22.535,22.535,0,0,1,1.035,2.988,25.2,25.2,0,0,1,.625,3.057A21.594,21.594,0,0,1,86.525,26.809Z" transform="translate(1089.52 11314.088)" fill="#2f077f"/>
  </g>
</svg>
