<svg id="Grupo_238488" data-name="Grupo 238488" xmlns="http://www.w3.org/2000/svg" xmlns:xlink="http://www.w3.org/1999/xlink" width="111.697" height="91.311" viewBox="0 0 111.697 91.311">
  <defs>
    <clipPath id="clip-path">
      <rect id="Rectángulo_314099" data-name="Rectángulo 314099" width="111.697" height="91.31" fill="none"/>
    </clipPath>
  </defs>
  <g id="Grupo_238487" data-name="Grupo 238487" transform="translate(0 0)" clip-path="url(#clip-path)">
    <path id="Trazado_233432" data-name="Trazado 233432" d="M84.468,34.906a1.254,1.254,0,0,0,0,2.508,1.254,1.254,0,0,0,0-2.508m9.276,1.254a1.246,1.246,0,1,0-1.254,1.254,1.256,1.256,0,0,0,1.254-1.254m24.9-3.873v7.748H79.04V32.287h39.6Z" transform="translate(-7.862 -3.212)" fill="#fff8d1"/>
    <path id="Trazado_233433" data-name="Trazado 233433" d="M84.468,34.906a1.254,1.254,0,0,0,0,2.508,1.254,1.254,0,0,0,0-2.508Zm9.276,1.254a1.246,1.246,0,1,0-1.254,1.254A1.256,1.256,0,0,0,93.745,36.16Zm24.9-3.873v7.748H79.04V32.287h39.6Z" transform="translate(-7.862 -3.212)" fill="none" stroke="#000" stroke-linecap="round" stroke-linejoin="round" stroke-width="2.037"/>
    <path id="Trazado_233434" data-name="Trazado 233434" d="M118.642,40.891V66.3H79.04v-25.4Z" transform="translate(-7.862 -4.067)" fill="#f8a800"/>
    <path id="Trazado_233435" data-name="Trazado 233435" d="M118.642,40.891V66.3H79.04v-25.4Z" transform="translate(-7.862 -4.067)" fill="none" stroke="#000" stroke-linecap="round" stroke-linejoin="round" stroke-width="2.037"/>
    <path id="Trazado_233436" data-name="Trazado 233436" d="M72.5,99.366s-59.026.288-64.154,0C3.236,99.1,1.018,91.5,1.018,91.5l15.741.15,49.445.47a7.562,7.562,0,0,0,6.3,7.25" transform="translate(-0.101 -9.101)" fill="#59e5f5"/>
    <path id="Trazado_233437" data-name="Trazado 233437" d="M72.5,99.366s-59.026.288-64.154,0C3.236,99.1,1.018,91.5,1.018,91.5l15.741.15,49.445.47A7.562,7.562,0,0,0,72.5,99.366Z" transform="translate(-0.101 -9.101)" fill="none" stroke="#000" stroke-linecap="round" stroke-linejoin="round" stroke-width="2.037"/>
    <path id="Trazado_233438" data-name="Trazado 233438" d="M106.2,10.526H88.913V9.659c.343-5.391,3.969-8.258,7.814-8.6C101.3.631,106.2,3.785,106.2,10.526" transform="translate(-8.844 -0.101)" fill="#59e5f5"/>
    <path id="Trazado_233439" data-name="Trazado 233439" d="M106.2,10.526H88.913V9.659c.343-5.391,3.969-8.258,7.814-8.6C101.3.631,106.2,3.785,106.2,10.526Z" transform="translate(-8.844 -0.101)" fill="none" stroke="#000" stroke-linecap="round" stroke-linejoin="round" stroke-width="2.037"/>
    <path id="Trazado_233440" data-name="Trazado 233440" d="M67.944,83.119,18.5,82.648V8.254a7.222,7.222,0,0,1,7.2-7.208H89.723V1.06c-3.845.345-7.472,3.211-7.814,8.6a8.073,8.073,0,0,0-.045.866h.045V29.179H73.018V62.333h8.891V82.1c0,6.038-.524,8.271-7.666,8.271a7.561,7.561,0,0,1-6.3-7.25" transform="translate(-1.84 -0.104)" fill="#cafdff"/>
    <path id="Trazado_233441" data-name="Trazado 233441" d="M67.944,83.119,18.5,82.648V8.254a7.222,7.222,0,0,1,7.2-7.208H89.723V1.06c-3.845.345-7.472,3.211-7.814,8.6a8.073,8.073,0,0,0-.045.866h.045V29.179H73.018V62.333h8.891V82.1c0,6.038-.524,8.271-7.666,8.271A7.561,7.561,0,0,1,67.944,83.119Z" transform="translate(-1.84 -0.104)" fill="none" stroke="#000" stroke-linecap="round" stroke-linejoin="round" stroke-width="2.037"/>
    <path id="Trazado_233442" data-name="Trazado 233442" d="M96.722,1.057c4.576-.426,9.471,2.729,9.471,9.469H88.864a8.32,8.32,0,0,1,.044-.866C89.251,4.268,92.877,1.4,96.722,1.057Z" transform="translate(-8.839 -0.101)" fill="none" stroke="#000" stroke-linecap="round" stroke-linejoin="round" stroke-width="2.037"/>
    <path id="Trazado_233443" data-name="Trazado 233443" d="M18.5,82.071V8.254a7.222,7.222,0,0,1,7.2-7.208H89.752" transform="translate(-1.84 -0.104)" fill="none" stroke="#000" stroke-linecap="round" stroke-linejoin="round" stroke-width="2.037"/>
    <path id="Trazado_233444" data-name="Trazado 233444" d="M88.913,30.1V10.306" transform="translate(-8.844 -1.025)" fill="none" stroke="#000" stroke-linecap="round" stroke-linejoin="round" stroke-width="2.037"/>
    <path id="Trazado_233445" data-name="Trazado 233445" d="M80.4,97.138c7.142,0,7.665-2.234,7.665-8.271V69.1" transform="translate(-7.997 -6.874)" fill="none" stroke="#000" stroke-linecap="round" stroke-linejoin="round" stroke-width="2.037"/>
    <path id="Trazado_233446" data-name="Trazado 233446" d="M72.5,99.366a7.562,7.562,0,0,1-6.3-7.25l-49.445-.47L1.018,91.5S3.236,99.1,8.35,99.366c5.128.288,64.154,0,64.154,0" transform="translate(-0.101 -9.101)" fill="none" stroke="#000" stroke-linecap="round" stroke-linejoin="round" stroke-width="2.037"/>
    <line id="Línea_302" data-name="Línea 302" x1="36.004" transform="translate(28.749 67.437)" fill="none" stroke="#000" stroke-linecap="round" stroke-linejoin="round" stroke-width="2.037"/>
    <line id="Línea_303" data-name="Línea 303" x1="27.652" transform="translate(37.101 52.011)" fill="none" stroke="#000" stroke-linecap="round" stroke-linejoin="round" stroke-width="2.037"/>
    <line id="Línea_304" data-name="Línea 304" x1="36.004" transform="translate(28.749 36.573)" fill="none" stroke="#000" stroke-linecap="round" stroke-linejoin="round" stroke-width="2.037"/>
    <line id="Línea_305" data-name="Línea 305" x1="21.242" transform="translate(43.511 21.15)" fill="none" stroke="#000" stroke-linecap="round" stroke-linejoin="round" stroke-width="2.037"/>
    <path id="Trazado_233447" data-name="Trazado 233447" d="M79.04,40.035V32.287h39.6V65.44H79.04Z" transform="translate(-7.862 -3.212)" fill="none" stroke="#000" stroke-linecap="round" stroke-linejoin="round" stroke-width="2.037"/>
    <line id="Línea_306" data-name="Línea 306" x2="39.602" transform="translate(71.178 36.824)" fill="none" stroke="#000" stroke-linecap="round" stroke-linejoin="round" stroke-width="2.037"/>
    <path id="Trazado_233448" data-name="Trazado 233448" d="M84.929,35.195a1.254,1.254,0,1,1-1.254,1.254A1.247,1.247,0,0,1,84.929,35.195Z" transform="translate(-8.323 -3.501)" fill="none" stroke="#000" stroke-linecap="round" stroke-linejoin="round" stroke-width="2.037"/>
    <path id="Trazado_233449" data-name="Trazado 233449" d="M94.194,50.165,89.2,55.156l4.992,4.974" transform="translate(-8.873 -4.99)" fill="none" stroke="#000" stroke-linecap="round" stroke-linejoin="round" stroke-width="2.037"/>
    <path id="Trazado_233450" data-name="Trazado 233450" d="M107.326,50.165l4.974,4.991-4.974,4.974" transform="translate(-10.676 -4.99)" fill="none" stroke="#000" stroke-linecap="round" stroke-linejoin="round" stroke-width="2.037"/>
    <line id="Línea_307" data-name="Línea 307" x1="6.618" y2="16.832" transform="translate(87.869 41.108)" fill="none" stroke="#000" stroke-linecap="round" stroke-linejoin="round" stroke-width="2.037"/>
    <path id="Trazado_233451" data-name="Trazado 233451" d="M93.84,35.195A1.254,1.254,0,1,1,92.6,36.449,1.257,1.257,0,0,1,93.84,35.195Z" transform="translate(-9.211 -3.501)" fill="none" stroke="#000" stroke-linecap="round" stroke-linejoin="round" stroke-width="2.037"/>
  </g>
</svg>
