<svg id="Grupo_238499" data-name="Grupo 238499" xmlns="http://www.w3.org/2000/svg" xmlns:xlink="http://www.w3.org/1999/xlink" width="111.698" height="76.665" viewBox="0 0 111.698 76.665">
  <defs>
    <clipPath id="clip-path">
      <rect id="Rect치ngulo_314113" data-name="Rect치ngulo 314113" width="111.698" height="76.665" fill="none"/>
    </clipPath>
  </defs>
  <rect id="Rect치ngulo_314112" data-name="Rect치ngulo 314112" width="94.159" height="63.185" transform="translate(8.769 0.918)" fill="#cafdff"/>
  <g id="Grupo_238498" data-name="Grupo 238498" transform="translate(0 0)">
    <g id="Grupo_238497" data-name="Grupo 238497" clip-path="url(#clip-path)">
      <path id="Trazado_233496" data-name="Trazado 233496" d="M103.8,65.019H9.637a.917.917,0,0,1-.918-.917V.918A.917.917,0,0,1,9.637,0H103.8a.917.917,0,0,1,.918.918V64.1a.917.917,0,0,1-.918.917M10.554,63.185h92.323V1.834H10.554Z" transform="translate(-0.867 0)"/>
      <path id="Trazado_233497" data-name="Trazado 233497" d="M2.671,71.183H109.226a1.665,1.665,0,0,1,1.655,1.658v4.17a5.843,5.843,0,0,1-5.816,5.817H6.842a5.837,5.837,0,0,1-5.823-5.817v-4.17a1.661,1.661,0,0,1,1.652-1.658" transform="translate(-0.101 -7.08)" fill="#707384"/>
      <path id="Trazado_233498" data-name="Trazado 233498" d="M104.964,83.644H6.74A6.745,6.745,0,0,1,0,76.91V72.74a2.576,2.576,0,0,1,2.57-2.576H109.125A2.578,2.578,0,0,1,111.7,72.74v4.17a6.742,6.742,0,0,1-6.734,6.734M2.57,72a.748.748,0,0,0-.735.741v4.17a4.908,4.908,0,0,0,4.905,4.9h98.224a4.9,4.9,0,0,0,4.9-4.9V72.74a.749.749,0,0,0-.738-.741Z" transform="translate(0 -6.979)"/>
      <path id="Trazado_233499" data-name="Trazado 233499" d="M61.65,73.939a3.336,3.336,0,1,1-3.333,3.346,3.346,3.346,0,0,1,3.333-3.346" transform="translate(-5.801 -7.355)" fill="#f8a800"/>
      <path id="Trazado_233500" data-name="Trazado 233500" d="M61.549,81.426A4.253,4.253,0,1,1,65.8,77.183a4.252,4.252,0,0,1-4.253,4.243m0-6.672a2.419,2.419,0,1,0,2.417,2.429,2.425,2.425,0,0,0-2.417-2.429" transform="translate(-5.699 -7.253)"/>
      <path id="Trazado_233501" data-name="Trazado 233501" d="M63.475,14.189H24.812a.917.917,0,1,1,0-1.834H63.475a.917.917,0,1,1,0,1.834" transform="translate(-2.377 -1.229)"/>
      <path id="Trazado_233502" data-name="Trazado 233502" d="M65.86,44.185H48.79a.917.917,0,1,1,0-1.834H65.86a.917.917,0,1,1,0,1.834" transform="translate(-4.762 -4.213)"/>
      <path id="Trazado_233503" data-name="Trazado 233503" d="M63.475,59.325H24.812a.917.917,0,1,1,0-1.834H63.475a.917.917,0,1,1,0,1.834" transform="translate(-2.377 -5.719)"/>
      <path id="Trazado_233504" data-name="Trazado 233504" d="M82.119,58.253a.916.916,0,0,1-.647-.268L75.183,51.7a.916.916,0,0,1,0-1.3l6.288-6.3a.918.918,0,0,1,1.3,1.3l-5.641,5.646,5.639,5.632a.917.917,0,0,1-.647,1.566" transform="translate(-7.452 -4.361)"/>
      <path id="Trazado_233505" data-name="Trazado 233505" d="M98.7,58.253a.917.917,0,0,1-.647-1.566l5.639-5.632-5.641-5.646a.918.918,0,0,1,1.3-1.3l6.288,6.3a.914.914,0,0,1,0,1.3l-6.288,6.28a.916.916,0,0,1-.647.268" transform="translate(-9.727 -4.361)"/>
      <path id="Trazado_233506" data-name="Trazado 233506" d="M86.388,61.213a.918.918,0,0,1-.853-1.254L93.9,38.712a.917.917,0,1,1,1.706.673L87.24,60.632a.916.916,0,0,1-.853.582" transform="translate(-8.502 -3.793)"/>
      <path id="Trazado_233507" data-name="Trazado 233507" d="M35.017,44.185H24.812a.917.917,0,1,1,0-1.834H35.017a.917.917,0,1,1,0,1.834" transform="translate(-2.377 -4.213)"/>
      <path id="Trazado_233508" data-name="Trazado 233508" d="M46.271,29.317H24.812a.917.917,0,1,1,0-1.834h21.46a.917.917,0,1,1,0,1.834" transform="translate(-2.377 -2.734)"/>
      <path id="Trazado_233509" data-name="Trazado 233509" d="M66.989,29.317H60.138a.917.917,0,1,1,0-1.834h6.851a.917.917,0,1,1,0,1.834" transform="translate(-5.891 -2.734)"/>
    </g>
  </g>
</svg>
