<svg id="Grupo_238496" data-name="Grupo 238496" xmlns="http://www.w3.org/2000/svg" xmlns:xlink="http://www.w3.org/1999/xlink" width="111.695" height="105.298" viewBox="0 0 111.695 105.298">
  <defs>
    <clipPath id="clip-path">
      <rect id="Rect치ngulo_314111" data-name="Rect치ngulo 314111" width="111.696" height="105.298" fill="none"/>
    </clipPath>
  </defs>
  <g id="Grupo_238495" data-name="Grupo 238495" clip-path="url(#clip-path)">
    <path id="Trazado_233483" data-name="Trazado 233483" d="M5.012,1.02H106.879a4.012,4.012,0,0,1,4,4V79.948a4.017,4.017,0,0,1-4,4.016H5.012a4.015,4.015,0,0,1-3.993-4.016V5.021a4.011,4.011,0,0,1,3.993-4" transform="translate(-0.101 -0.101)" fill="#cafdff"/>
    <path id="Trazado_233484" data-name="Trazado 233484" d="M106.778,84.78H4.911A4.928,4.928,0,0,1,0,79.846V4.92A4.921,4.921,0,0,1,4.911,0H106.778A4.925,4.925,0,0,1,111.7,4.92V79.846a4.932,4.932,0,0,1-4.918,4.934M4.911,1.836A3.083,3.083,0,0,0,1.834,4.92V79.846a3.091,3.091,0,0,0,3.076,3.1H106.778a3.1,3.1,0,0,0,3.083-3.1V4.92a3.087,3.087,0,0,0-3.083-3.083Z"/>
    <path id="Trazado_233485" data-name="Trazado 233485" d="M49.362,93.125H71.725l2.156,13.545H47.207Z" transform="translate(-4.696 -9.263)" fill="#fff8d1"/>
    <path id="Trazado_233486" data-name="Trazado 233486" d="M73.807,107.487a.154.154,0,0,0-.029,0H47.1a.919.919,0,0,1-.906-1.063L48.355,92.88a.917.917,0,0,1,.906-.774H71.623a.919.919,0,0,1,.906.774l2.121,13.327a.92.92,0,0,1-.843,1.281M48.18,105.651H72.7L70.841,93.942h-20.8Z" transform="translate(-4.594 -9.162)"/>
    <rect id="Rect치ngulo_314110" data-name="Rect치ngulo 314110" width="43.935" height="6.974" transform="translate(33.879 97.407)" fill="#707384"/>
    <path id="Trazado_233487" data-name="Trazado 233487" d="M81.455,115.956H37.52a.917.917,0,0,1-.917-.918v-6.974a.917.917,0,0,1,.917-.918H81.455a.917.917,0,0,1,.918.918v6.974a.917.917,0,0,1-.918.918M38.437,114.12h42.1v-5.138h-42.1Z" transform="translate(-3.641 -10.658)"/>
    <path id="Trazado_233488" data-name="Trazado 233488" d="M110.778,74.981H.917a.918.918,0,0,1,0-1.836H110.778a.918.918,0,0,1,0,1.836" transform="translate(0 -7.276)"/>
    <path id="Trazado_233489" data-name="Trazado 233489" d="M61.577,79.225A3.98,3.98,0,1,1,57.59,83.2a3.97,3.97,0,0,1,3.987-3.972" transform="translate(-5.728 -7.88)" fill="#8628a5"/>
    <path id="Trazado_233490" data-name="Trazado 233490" d="M61.475,88a4.9,4.9,0,1,1,4.9-4.907A4.91,4.91,0,0,1,61.475,88m0-7.961a3.062,3.062,0,1,0,3.062,3.054,3.065,3.065,0,0,0-3.062-3.054" transform="translate(-5.627 -7.779)"/>
    <path id="Trazado_233491" data-name="Trazado 233491" d="M42,12.571H69.648l8.4,8.4V57.635H42Z" transform="translate(-4.178 -1.25)" fill="#f8a800"/>
    <path id="Trazado_233492" data-name="Trazado 233492" d="M77.95,58.451H41.9a.917.917,0,0,1-.918-.918V12.47a.917.917,0,0,1,.918-.918H69.548a.917.917,0,0,1,.648.268l8.4,8.4a.919.919,0,0,1,.268.649V57.533a.917.917,0,0,1-.918.918M42.816,56.615H77.033V21.25l-7.865-7.863H42.816Z" transform="translate(-4.076 -1.149)"/>
    <path id="Trazado_233493" data-name="Trazado 233493" d="M54.833,43.727a.917.917,0,0,1-.649-.27L49.032,38.3a.919.919,0,0,1,0-1.3l5.151-5.144a.918.918,0,0,1,1.3,1.3l-4.5,4.5,4.5,4.51a.917.917,0,0,1-.649,1.565" transform="translate(-4.851 -3.142)"/>
    <path id="Trazado_233494" data-name="Trazado 233494" d="M68.43,43.727a.917.917,0,0,1-.649-1.565l4.5-4.51-4.5-4.5a.917.917,0,0,1,1.3-1.3L74.228,37a.916.916,0,0,1,0,1.3l-5.151,5.158a.916.916,0,0,1-.648.27" transform="translate(-6.715 -3.142)"/>
    <path id="Trazado_233495" data-name="Trazado 233495" d="M58.33,46.15a.9.9,0,0,1-.336-.065.917.917,0,0,1-.518-1.19l6.851-17.4a.918.918,0,0,1,1.707.673l-6.851,17.4a.918.918,0,0,1-.854.582" transform="translate(-5.711 -2.677)"/>
  </g>
</svg>
