<svg xmlns="http://www.w3.org/2000/svg" xmlns:xlink="http://www.w3.org/1999/xlink" width="208" height="205" viewBox="0 0 208 205">
  <defs>
    <filter id="Trazado_234534" x="0" y="0" width="208" height="205" filterUnits="userSpaceOnUse">
      <feOffset dx="3" dy="3" input="SourceAlpha"/>
      <feGaussianBlur stdDeviation="3" result="blur"/>
      <feFlood flood-opacity="0.161"/>
      <feComposite operator="in" in2="blur"/>
      <feComposite in="SourceGraphic"/>
    </filter>
  </defs>
  <g id="Grupo_238745" data-name="Grupo 238745" transform="translate(-174 -9056)">
    <g transform="matrix(1, 0, 0, 1, 174, 9056)" filter="url(#Trazado_234534)">
      <g id="Trazado_234534-2" data-name="Trazado 234534" transform="translate(6 6)" fill="#f2ede7">
        <path d="M 96.5 185 L 93.5 185 C 87.29052734375 185 81.08554840087891 184.3745574951172 75.05744934082031 183.1410217285156 C 69.18354797363281 181.9390563964844 63.40579986572266 180.1455230712891 57.88467407226562 177.810302734375 C 52.46337509155273 175.5172729492188 47.23434829711914 172.6790313720703 42.34287643432617 169.3744201660156 C 37.49734878540039 166.1008453369141 32.94079971313477 162.3413238525391 28.79972457885742 158.2002716064453 C 24.6586742401123 154.0592041015625 20.89915084838867 149.5026550292969 17.62557411193848 144.6571197509766 C 14.3209753036499 139.7656555175781 11.48272514343262 134.53662109375 9.189700126647949 129.1153259277344 C 6.854475021362305 123.5942001342773 5.060949802398682 117.8164520263672 3.858974933624268 111.9425506591797 C 2.625449895858765 105.9144515991211 2 99.70947265625 2 93.5 C 2 87.29052734375 2.625449895858765 81.08554840087891 3.858974933624268 75.05744934082031 C 5.060949802398682 69.18354797363281 6.854475021362305 63.40579986572266 9.189700126647949 57.88467407226562 C 11.48272514343262 52.46337509155273 14.3209753036499 47.23434829711914 17.62557411193848 42.34287643432617 C 20.89915084838867 37.49734878540039 24.6586742401123 32.94079971313477 28.79972457885742 28.79972457885742 C 32.94079971313477 24.6586742401123 37.49734878540039 20.89915084838867 42.34287643432617 17.62557411193848 C 47.23434829711914 14.3209753036499 52.46337509155273 11.48272514343262 57.88467407226562 9.189700126647949 C 63.40579986572266 6.854475021362305 69.18354797363281 5.060949802398682 75.05744934082031 3.858974933624268 C 81.08554840087891 2.625449895858765 87.29052734375 2 93.5 2 L 96.5 2 C 102.70947265625 2 108.9144515991211 2.625449895858765 114.9425506591797 3.858974933624268 C 120.8164520263672 5.060949802398682 126.5942001342773 6.854475021362305 132.1153259277344 9.189700126647949 C 137.53662109375 11.48272514343262 142.7656555175781 14.3209753036499 147.6571197509766 17.62557411193848 C 152.5026550292969 20.89915084838867 157.0592041015625 24.6586742401123 161.2002716064453 28.79972457885742 C 165.3413238525391 32.94079971313477 169.1008453369141 37.49734878540039 172.3744201660156 42.34287643432617 C 175.6790313720703 47.23434829711914 178.5172729492188 52.46337509155273 180.810302734375 57.88467407226562 C 183.1455230712891 63.40579986572266 184.9390563964844 69.18354797363281 186.1410217285156 75.05744934082031 C 187.3745574951172 81.08554840087891 188 87.29052734375 188 93.5 C 188 99.70947265625 187.3745574951172 105.9144515991211 186.1410217285156 111.9425506591797 C 184.9390563964844 117.8164520263672 183.1455230712891 123.5942001342773 180.810302734375 129.1153259277344 C 178.5172729492188 134.53662109375 175.6790313720703 139.7656555175781 172.3744201660156 144.6571197509766 C 169.1008453369141 149.5026550292969 165.3413238525391 154.0592041015625 161.2002716064453 158.2002716064453 C 157.0592041015625 162.3413238525391 152.5026550292969 166.1008453369141 147.6571197509766 169.3744201660156 C 142.7656555175781 172.6790313720703 137.53662109375 175.5172729492188 132.1153259277344 177.810302734375 C 126.5942001342773 180.1455230712891 120.8164520263672 181.9390563964844 114.9425506591797 183.1410217285156 C 108.9144515991211 184.3745574951172 102.70947265625 185 96.5 185 Z" stroke="none"/>
        <path d="M 93.5 4 C 87.42491912841797 4 81.35483551025391 4.611801147460938 75.45838928222656 5.818389892578125 C 69.71383666992188 6.993896484375 64.06330871582031 8.747909545898438 58.66377258300781 11.03172302246094 C 53.36138916015625 13.2744140625 48.2469482421875 16.05050659179688 43.46247863769531 19.2828369140625 C 38.72244262695312 22.48513793945312 34.26499938964844 26.16288757324219 30.21394348144531 30.21394348144531 C 26.16288757324219 34.26499938964844 22.48513793945312 38.72244262695312 19.2828369140625 43.46247863769531 C 16.05050659179688 48.2469482421875 13.2744140625 53.36138916015625 11.03172302246094 58.66377258300781 C 8.747909545898438 64.06330871582031 6.993896484375 69.71383666992188 5.818389892578125 75.45838928222656 C 4.611801147460938 81.35483551025391 4 87.42491912841797 4 93.5 C 4 99.57508087158203 4.611801147460938 105.6451416015625 5.818389892578125 111.5416107177734 C 6.993896484375 117.2861633300781 8.747909545898438 122.9366912841797 11.03172302246094 128.3361968994141 C 13.2744140625 133.6385803222656 16.05050659179688 138.7530517578125 19.2828369140625 143.5375061035156 C 22.48513793945312 148.2775573730469 26.16288757324219 152.7350006103516 30.21394348144531 156.7860565185547 C 34.26499938964844 160.8371124267578 38.72244262695312 164.5148620605469 43.46247863769531 167.7171630859375 C 48.2469482421875 170.9494934082031 53.36138916015625 173.7255554199219 58.66377258300781 175.9682769775391 C 64.06330871582031 178.2520904541016 69.71383666992188 180.006103515625 75.45838928222656 181.1816101074219 C 81.35483551025391 182.3881988525391 87.42491912841797 183 93.5 183 L 96.5 183 C 102.575080871582 183 108.6451416015625 182.3881988525391 114.5416107177734 181.1816101074219 C 120.2861633300781 180.006103515625 125.9366912841797 178.2520904541016 131.3361968994141 175.9682769775391 C 136.6385803222656 173.7255554199219 141.7530517578125 170.9494934082031 146.5375061035156 167.7171630859375 C 151.2775573730469 164.5148620605469 155.7350006103516 160.8371124267578 159.7860565185547 156.7860565185547 C 163.8371124267578 152.7350006103516 167.5148620605469 148.2775573730469 170.7171630859375 143.5375061035156 C 173.9494934082031 138.7530517578125 176.7255554199219 133.6385803222656 178.9682769775391 128.3361968994141 C 181.2520904541016 122.9366912841797 183.006103515625 117.2861633300781 184.1816101074219 111.5416107177734 C 185.3881988525391 105.6451416015625 186 99.57508087158203 186 93.5 C 186 87.42491912841797 185.3881988525391 81.35483551025391 184.1816101074219 75.45838928222656 C 183.006103515625 69.71383666992188 181.2520904541016 64.06330871582031 178.9682769775391 58.66377258300781 C 176.7255554199219 53.36138916015625 173.9494934082031 48.2469482421875 170.7171630859375 43.46247863769531 C 167.5148620605469 38.72244262695312 163.8371124267578 34.26499938964844 159.7860565185547 30.21394348144531 C 155.7350006103516 26.16288757324219 151.2775573730469 22.48513793945312 146.5375061035156 19.2828369140625 C 141.7530517578125 16.05050659179688 136.6385803222656 13.2744140625 131.3361968994141 11.03172302246094 C 125.9366912841797 8.747909545898438 120.2861633300781 6.993896484375 114.5416107177734 5.818389892578125 C 108.6451416015625 4.611801147460938 102.575080871582 4 96.5 4 L 93.5 4 M 93.5 0 L 96.5 0 C 148.1386108398438 0 190 41.86135864257812 190 93.5 C 190 145.1386108398438 148.1386108398438 187 96.5 187 L 93.5 187 C 41.86135864257812 187 0 145.1386108398438 0 93.5 C 0 41.86135864257812 41.86135864257812 0 93.5 0 Z" stroke="none" fill="#fff"/>
      </g>
    </g>
    <path id="Trazado_232506" data-name="Trazado 232506" d="M89.718,84.2a1.994,1.994,0,0,0,2.132-1.224,5.405,5.405,0,0,0,.268-2.915c-.053-.924-.362-1.954-.4-2.468,0-.315,0-2.327.047-3.151.7-13.046,6.3-16.15,7.92-16.5a4.512,4.512,0,0,1,3.12.21V38.189h0V32.611a10.112,10.112,0,0,0-4.548-7.878L57.359,1.1a10.075,10.075,0,0,0-9.112-.016L7.4,24.686a10.084,10.084,0,0,0-4.538,7.878v5.158a.478.478,0,0,0,0,.089v7.532c.236.131.473.268.709.415.793.525,1.576.814,2.374,1.366A35.967,35.967,0,0,1,12.244,52c.373.357,1.618,1.922,1.912,2.29a25.211,25.211,0,0,0,3.036,3.466,10.971,10.971,0,0,0,2.022,1.46,5.7,5.7,0,0,0,4.2.037c7.784-3.372,12.668-1.681,14.921-.326,5.572,3.346,7.432,8.025,8.025,13.708a15.347,15.347,0,0,1,.074,2.216c0,1.35-.047,3.519,1.376,3.881,2.043.525,2.537-1.66,2.841-3.109.688-3.283,5.058-5.436,8.256-3.782,2.206,1.14,3.109,1.786,5.289.825,2.726-1.2,4.133-4.265,5.084-5.893a9.979,9.979,0,0,1,3.929-3.74c4.254-2.652,14.948-1.964,15.336,9.821V76.13c0,1.124.037,2.222-.037,3.382-.047.772-.184,1.576-.257,2.369C88.231,81.881,87.832,84.187,89.718,84.2Z" transform="translate(222.163 9098.999)" fill="#e4a663"/>
    <path id="Trazado_232507" data-name="Trazado 232507" d="M102.773,99.175a4.469,4.469,0,0,0-3.109-.21c-1.623.352-7.216,3.456-7.92,16.5-.042.8-.068,2.815-.047,3.151.042.525.352,1.544.4,2.468,0,.42.32,1.943-.268,2.915a1.985,1.985,0,0,1-2.132,1.224c-1.885,0-1.486-2.316-1.486-2.316.074-.783.21-1.576.257-2.369.074-1.161.037-2.258.037-3.382v-3.277c-.389-11.786-11.082-12.474-15.336-9.821a9.979,9.979,0,0,0-3.929,3.74c-.951,1.628-2.358,4.69-5.084,5.893-2.18.961-3.083.315-5.289-.825-3.2-1.654-7.568.5-8.256,3.782-.3,1.45-.8,3.629-2.841,3.109-1.423-.362-1.376-2.532-1.376-3.881a15.346,15.346,0,0,0-.074-2.216c-.593-5.683-2.453-10.362-8.025-13.708-2.253-1.355-7.138-3.046-14.921.326a5.7,5.7,0,0,1-4.2-.037,10.972,10.972,0,0,1-2.022-1.46,25.21,25.21,0,0,1-3.036-3.466c-.294-.368-1.539-1.933-1.912-2.29A35.967,35.967,0,0,0,5.9,88.15c-.8-.525-1.576-.861-2.374-1.366-.236-.147-.473-.284-.709-.415v34.438a10.1,10.1,0,0,0,4.548,7.878l40.893,23.635a10.047,10.047,0,0,0,9.091,0l40.9-23.6a10.07,10.07,0,0,0,4.538-7.878Z" transform="translate(222.18 9057.992)" fill="#5e464d"/>
    <path id="Trazado_232508" data-name="Trazado 232508" d="M60.786,79.789a11.392,11.392,0,0,1-10.278,0L8.69,57.73C9.163,58.2,51.1,82.557,51.1,82.557a10.047,10.047,0,0,0,9.091,0S102.062,58.271,102.535,57.8Z" transform="translate(219.393 9071.59)" fill="#fff"/>
    <path id="Trazado_232509" data-name="Trazado 232509" d="M80.811,5.542a11.486,11.486,0,0,1,10.284.005l5.068,2.1C95.691,7.18,90.5,3.819,90.5,3.819a10.052,10.052,0,0,0-9.086,0S73.127,8.688,72.66,9.15Z" transform="translate(189.021 9097.701)" fill="#fff"/>
  </g>
</svg>
