<svg xmlns="http://www.w3.org/2000/svg" width="53.205" height="82.574" viewBox="0 0 53.205 82.574">
  <g id="Page-1" transform="translate(-47.62 -31.52)">
    <g id="solidity" transform="translate(47.62 31.52)">
      <g id="Group">
        <path id="Shape" d="M87.427,31.52,74.2,55.111H47.62L60.845,31.52H87.427" transform="translate(-47.62 -31.52)" fill="#fff" opacity="0.45"/>
        <path id="Shape-2" data-name="Shape" d="M73.926,55.111h26.541L87.242,31.52H60.66Z" transform="translate(-47.394 -31.52)" fill="#fff" opacity="0.6"/>
        <path id="Shape-3" data-name="Shape" d="M60.885,78.7,74.11,55.111,60.885,31.52,47.66,55.111Z" transform="translate(-47.619 -31.52)" fill="#fff" opacity="0.8"/>
        <path id="Shape-4" data-name="Shape" d="M60.78,113.091,74,89.5H100.6L87.372,113.091H60.78" transform="translate(-47.392 -30.517)" fill="#fff" opacity="0.45"/>
        <path id="Shape-5" data-name="Shape" d="M74.281,89.5H47.74l13.225,23.591H87.547Z" transform="translate(-47.618 -30.517)" fill="#fff" opacity="0.6"/>
        <path id="Shape-6" data-name="Shape" d="M87.095,66.31,73.87,89.9l13.225,23.591L100.32,89.9Z" transform="translate(-47.166 -30.918)" fill="#fff" opacity="0.8"/>
      </g>
    </g>
  </g>
</svg>
