<svg xmlns="http://www.w3.org/2000/svg" xmlns:xlink="http://www.w3.org/1999/xlink" width="61.92" height="40.694" viewBox="0 0 61.92 40.694">
  <defs>
    <linearGradient id="linear-gradient" y1="0.5" x2="1" y2="0.5" gradientUnits="objectBoundingBox">
      <stop offset="0" stop-opacity="0.2"/>
      <stop offset="1" stop-opacity="0"/>
    </linearGradient>
    <linearGradient id="linear-gradient-2" x1="-23.268" y1="0.5" x2="-22.268" y2="0.5" gradientUnits="objectBoundingBox">
      <stop offset="0" stop-color="#bbc0e6"/>
      <stop offset="1" stop-color="#ced3f8"/>
    </linearGradient>
    <linearGradient id="linear-gradient-3" x1="-17.332" y1="0.5" x2="-16.332" y2="0.5" gradientUnits="objectBoundingBox">
      <stop offset="0" stop-color="#ced3f8"/>
      <stop offset="0.77" stop-color="#bbc0e6"/>
    </linearGradient>
    <linearGradient id="linear-gradient-4" x1="-18.444" y1="-0.08" x2="-17.86" y2="0.992" gradientUnits="objectBoundingBox">
      <stop offset="0.49" stop-color="#ffaf6d"/>
      <stop offset="1" stop-color="#e57139"/>
    </linearGradient>
  </defs>
  <g id="Objects" transform="translate(0 0.003)">
    <g id="Chain" transform="translate(0 -0.003)">
      <g id="Grupo_80395" data-name="Grupo 80395">
        <path id="Trazado_113750" data-name="Trazado 113750" d="M60.485,12.134a15.644,15.644,0,0,0-9.44-1.568,15.591,15.591,0,0,0-9.44,1.568L26.648,20.767c-2.984,1.721-3.718,4.255-2.215,6.383a16.226,16.226,0,0,0-2.171,1L7.3,36.785c-2.091,1.205-2.164,2.287-.624,3.05H6.665L11.014,42.3a.794.794,0,0,0,.109.058l.073.044h0c1.351.7,4.074,1.147,7.907,1.147,7.929,0,17.6-1.859,21.566-4.146l14.958-8.634c2.084-1.205,2.164-2.28.639-3.042h.015L52.374,25.6h0a3.214,3.214,0,0,0-.356-.276l8.467-4.887c3.965-2.287,3.965-6.012,0-8.3Zm-30.8,24.659C27.664,37.954,23,38.92,18.842,39.08l14.392-8.307a17.72,17.72,0,0,0,2.846-.138,17.58,17.58,0,0,0,4.19.044L29.683,36.793ZM52.8,18.6l-9.389,5.417c-.821.007-1.663.036-2.512.08-.254,0-.552.015-.908.044-2.026.182-4.909.494-7.3.864a2.767,2.767,0,0,1,1.648-2.4l14.958-8.634a6.916,6.916,0,0,1,1.75-.683,6.655,6.655,0,0,1,1.75.683C55,15.249,55,17.318,52.788,18.6Z" transform="translate(-1.539 -2.852)" fill="url(#linear-gradient)"/>
        <g id="Grupo_80393" data-name="Grupo 80393" transform="translate(20.836)">
          <path id="Trazado_113751" data-name="Trazado 113751" d="M31.668,18.653c-3.965-2.287-3.965-6.012,0-8.3L46.627,1.713A15.92,15.92,0,0,1,61,1.713c3.965,2.287,3.965,6.012,0,8.3L46.046,18.653a15.92,15.92,0,0,1-14.377,0Zm3.188-6.462c-2.207,1.278-2.207,3.347,0,4.625a8.845,8.845,0,0,0,8.009,0L57.823,8.183c2.207-1.278,2.207-3.347,0-4.625a8.845,8.845,0,0,0-8.009,0Z" transform="translate(-28.695 0.003)" fill="#f6f6fb"/>
          <path id="Trazado_113752" data-name="Trazado 113752" d="M77.28,8.02h0v0Z" transform="translate(-42.001 -2.195)" fill="#e19100"/>
          <path id="Trazado_113753" data-name="Trazado 113753" d="M36.545,13.172,51.5,4.538a8.845,8.845,0,0,1,8.009,0c1.953,1.125,2.171,2.883.675,4.153a4.43,4.43,0,0,0-.675-.472,8.845,8.845,0,0,0-8.009,0L36.545,16.853a4.43,4.43,0,0,0-.675.472c-1.5-1.271-1.278-3.021.675-4.146Z" transform="translate(-30.392 -0.979)" fill="url(#linear-gradient-2)"/>
          <path id="Trazado_113754" data-name="Trazado 113754" d="M31.67,20.872a15.92,15.92,0,0,0,14.377,0l14.958-8.641c1.975-1.14,2.963-2.636,2.97-4.132v3.536h-.007c.058,1.547-.929,3.093-2.963,4.27L46.047,24.539a15.92,15.92,0,0,1-14.377,0c-2.026-1.169-3.006-2.716-2.963-4.248H28.7v-3.58c0,1.5.988,3.006,2.97,4.153Z" transform="translate(-28.696 -2.217)" fill="url(#linear-gradient-3)"/>
        </g>
        <g id="Grupo_80394" data-name="Grupo 80394" transform="translate(0 8.494)">
          <path id="Trazado_113755" data-name="Trazado 113755" d="M7.189,21.313l14.958-8.641c2.019-1.169,3.841-1.249,5.148-.45h0l2.9,1.677h-.007c-1.278-.617-2.984-.472-4.858.61L10.369,23.142A15.915,15.915,0,0,0,3.18,35.6c0,2.229.77,3.812,2.019,4.582h0L2.164,38.434h0C.828,37.694,0,36.075,0,33.751A15.915,15.915,0,0,1,7.189,21.3Z" transform="translate(0 -11.695)" fill="url(#linear-gradient-4)"/>
          <path id="Trazado_113756" data-name="Trazado 113756" d="M28.533,21.589a4.157,4.157,0,0,0,.886.668,7.37,7.37,0,0,0,2.331.8c0-.1.015-.211.015-.312,0-2.251-1.409-3.326-3.26-2.658a4.79,4.79,0,0,1,.073.821C28.577,21.132,28.555,21.357,28.533,21.589ZM8.87,36.823c.349,1.939,1.975,2.621,3.928,1.5l10.158-5.867,4.8-2.774a6.294,6.294,0,0,0,1.1-.813,11.77,11.77,0,0,1-2.621-1.089,6.758,6.758,0,0,1-.806-.537,6.426,6.426,0,0,1-.85.6L9.618,36.467a4.582,4.582,0,0,1-.748.349Z" transform="translate(-2.429 -13.94)" fill="#fb944b"/>
          <path id="Trazado_113757" data-name="Trazado 113757" d="M11.579,23.844l14.958-8.634c3.965-2.287,7.189-.428,7.189,4.153a11.223,11.223,0,0,1-.24,2.215,9.647,9.647,0,0,1-2.963-.065c0-.1.015-.211.015-.312,0-2.549-1.794-3.587-4-2.309L11.579,27.526a8.866,8.866,0,0,0-4,6.934c0,2.549,1.794,3.587,4,2.309l14.958-8.641a6.293,6.293,0,0,0,1.1-.813,16.125,16.125,0,0,0,3.057.559,13.818,13.818,0,0,1-4.153,3.936L11.579,40.444c-3.965,2.287-7.189.428-7.189-4.153a15.9,15.9,0,0,1,7.189-12.453Z" transform="translate(-1.202 -12.39)" fill="#c85a2b"/>
        </g>
      </g>
    </g>
  </g>
</svg>
