<svg xmlns="http://www.w3.org/2000/svg" xmlns:xlink="http://www.w3.org/1999/xlink" width="165.54" height="162.21" viewBox="0 0 165.54 162.21">
  <defs>
    <linearGradient id="linear-gradient" x1="0.145" y1="0.137" x2="0.855" y2="0.863" gradientUnits="objectBoundingBox">
      <stop offset="0" stop-color="#8628a5"/>
      <stop offset="1" stop-color="#59e5f5"/>
    </linearGradient>
    <filter id="Trazado_232519" x="0" y="0" width="165.54" height="162.21" filterUnits="userSpaceOnUse">
      <feOffset dy="3" input="SourceAlpha"/>
      <feGaussianBlur stdDeviation="3" result="blur"/>
      <feFlood flood-opacity="0.161"/>
      <feComposite operator="in" in2="blur"/>
      <feComposite in="SourceGraphic"/>
    </filter>
  </defs>
  <g id="Grupo_238743" data-name="Grupo 238743" transform="translate(-181.23 -2579.115)">
    <g id="Grupo_238336" data-name="Grupo 238336" transform="translate(-52.23 -532.885)">
      <g transform="matrix(1, 0, 0, 1, 233.46, 3112)" filter="url(#Trazado_232519)">
        <g id="Trazado_232519-2" data-name="Trazado 232519" transform="translate(9 6)" fill="url(#linear-gradient)">
          <path d="M 73.76999664306641 142.2099914550781 C 63.42081832885742 142.2099914550781 53.64821624755859 140.4344177246094 44.72365570068359 136.9325714111328 C 36.0911750793457 133.5453338623047 28.4677562713623 128.6337738037109 22.06517601013184 122.3343353271484 C 15.68843650817871 116.0603332519531 10.71943664550781 108.6042556762695 7.296196460723877 100.1732177734375 C 3.781896591186523 91.51789855957031 1.999996662139893 82.07607269287109 1.999996662139893 72.10999298095703 C 1.999996662139893 62.14381408691406 3.781896591186523 52.70143508911133 7.296216487884521 44.04513549804688 C 10.71953678131104 35.61299514770508 15.68857669830322 28.15573501586914 22.06531715393066 21.88051605224609 C 28.46805572509766 15.57969570159912 36.09147644042969 10.66701602935791 44.72383499145508 7.278915882110596 C 53.64853668212891 3.776075839996338 63.42107772827148 1.999995708465576 73.76999664306641 1.999995708465576 C 84.11891937255859 1.999995708465576 93.89145660400391 3.776075839996338 102.8161544799805 7.278915882110596 C 111.4485168457031 10.66701602935791 119.0719375610352 15.57969570159912 125.4746780395508 21.88051605224609 C 131.8514099121094 28.15573501586914 136.8204498291016 35.61299514770508 140.2437744140625 44.04513549804688 C 143.7581024169922 52.70143508911133 145.5399932861328 62.14381408691406 145.5399932861328 72.10999298095703 C 145.5399932861328 82.07607269287109 143.7581024169922 91.51789855957031 140.2437896728516 100.1732177734375 C 136.820556640625 108.6042556762695 131.8515625 116.0603332519531 125.4748153686523 122.3343353271484 C 119.0722351074219 128.6337738037109 111.4488143920898 133.5453338623047 102.8163375854492 136.9325714111328 C 93.89177703857422 140.4344177246094 84.11917877197266 142.2099914550781 73.76999664306641 142.2099914550781 Z" stroke="none"/>
          <path d="M 73.76999664306641 140.2099914550781 C 83.86812591552734 140.2099914550781 93.39492797851562 138.4809112548828 102.0858001708984 135.0707550048828 C 110.465690612793 131.7826232910156 117.8629760742188 127.017822265625 124.0721282958984 120.90869140625 C 130.2532501220703 114.8271484375 135.0707092285156 107.5975799560547 138.3907165527344 99.42082214355469 C 141.8075256347656 91.00560760498047 143.5399932861328 81.81693267822266 143.5399932861328 72.10999298095703 C 143.5399932861328 62.40293121337891 141.8075256347656 53.21366882324219 138.3906707763672 44.7974739074707 C 135.070556640625 36.61956024169922 130.2530212402344 29.3887996673584 124.0718460083008 23.30601692199707 C 117.8625183105469 17.1955394744873 110.465217590332 12.42960453033447 102.0854568481445 9.140647888183594 C 93.39449310302734 5.729560852050781 83.8677978515625 3.999995708465576 73.76999664306641 3.999995708465576 C 63.67219161987305 3.999995708465576 54.1454963684082 5.729560852050781 45.45454025268555 9.140647888183594 C 37.07477951049805 12.42960453033447 29.67747497558594 17.1955394744873 23.46814918518066 23.30601692199707 C 17.28697395324707 29.3887996673584 12.46943187713623 36.61956024169922 9.149322509765625 44.7974739074707 C 5.732474803924561 53.21366882324219 3.999996662139893 62.40293121337891 3.999996662139893 72.10999298095703 C 3.999996662139893 81.81693267822266 5.732474803924561 91.00560760498047 9.149279594421387 99.42082214355469 C 12.46927928924561 107.5975799560547 17.28673553466797 114.8271484375 23.46786689758301 120.90869140625 C 29.6770191192627 127.017822265625 37.07430267333984 131.7826232910156 45.45419311523438 135.0707550048828 C 54.14506149291992 138.4809112548828 63.67186737060547 140.2099914550781 73.76999664306641 140.2099914550781 M 73.76999664306641 144.2099914550781 C 30.50999641418457 144.2099914550781 -3.356933575560106e-06 113.7099990844727 -3.356933575560106e-06 72.10999298095703 C -3.356933575560106e-06 30.50999641418457 30.50999641418457 -4.272460955689894e-06 73.76999664306641 -4.272460955689894e-06 C 117.0299987792969 -4.272460955689894e-06 147.5399932861328 30.50999641418457 147.5399932861328 72.10999298095703 C 147.5399932861328 113.7099990844727 117.0299987792969 144.2099914550781 73.76999664306641 144.2099914550781 Z" stroke="none" fill="#fff"/>
        </g>
      </g>
      <g id="Page-1" transform="translate(237.38 3110.116)">
        <g id="solidity" transform="translate(47.62 31.52)">
          <g id="Group">
            <path id="Shape" d="M94.351,31.52,78.826,59.215H47.62L63.145,31.52H94.351" transform="translate(-47.62 -31.52)" fill="#fff" opacity="0.45"/>
            <path id="Shape-2" data-name="Shape" d="M76.233,59.215h31.158L91.866,31.52H60.66Z" transform="translate(-45.087 -31.52)" fill="#fff" opacity="0.6"/>
            <path id="Shape-3" data-name="Shape" d="M63.185,86.91,78.711,59.215,63.185,31.52,47.66,59.215Z" transform="translate(-47.612 -31.52)" fill="#fff" opacity="0.8"/>
            <path id="Shape-4" data-name="Shape" d="M60.78,117.195,76.305,89.5h31.218L92,117.195H60.78" transform="translate(-45.064 -20.257)" fill="#fff" opacity="0.45"/>
            <path id="Shape-5" data-name="Shape" d="M78.9,89.5H47.74l15.525,27.695H94.471Z" transform="translate(-47.597 -20.257)" fill="#fff" opacity="0.6"/>
            <path id="Shape-6" data-name="Shape" d="M89.4,66.31,73.87,94,89.4,121.7,104.921,94Z" transform="translate(-42.521 -24.762)" fill="#fff" opacity="0.8"/>
          </g>
        </g>
      </g>
    </g>
  </g>
</svg>
