<svg xmlns="http://www.w3.org/2000/svg" width="400" height="261" viewBox="0 0 400 261">
  <g id="Grupo_238744" data-name="Grupo 238744" transform="translate(-1020 -3067)">
    <path id="Trazado_234533" data-name="Trazado 234533" d="M22,0H378a22,22,0,0,1,22,22V239a22,22,0,0,1-22,22H22A22,22,0,0,1,0,239V22A22,22,0,0,1,22,0Z" transform="translate(1020 3067)" fill="#f2ede7"/>
    <path id="Trazado_232499" data-name="Trazado 232499" d="M17.491,261.77a12.4,12.4,0,0,1-3.526,3.3,8.067,8.067,0,0,1-4.238,1.173,8.357,8.357,0,0,1-4.139-1.015,8.805,8.805,0,0,1-3.051-2.873,14.144,14.144,0,0,1-1.878-4.462A24.484,24.484,0,0,1,0,252.063a22.012,22.012,0,0,1,.514-4.653A23.58,23.58,0,0,1,2.023,242.8a24,24,0,0,1,2.412-4.257,17.847,17.847,0,0,1,3.229-3.473,15.224,15.224,0,0,1,3.994-2.346,12.521,12.521,0,0,1,4.679-.87,8.04,8.04,0,0,1,2.524.389,5.872,5.872,0,0,1,2.023,1.127,5.272,5.272,0,0,1,1.318,1.779A5.457,5.457,0,0,1,22.7,237.5a6.406,6.406,0,0,1-.468,2.406,9.061,9.061,0,0,1-1.259,2.181,11.052,11.052,0,0,1-1.859,1.885,13.874,13.874,0,0,1-2.2,1.463,11.861,11.861,0,0,1-2.353.942,8.566,8.566,0,0,1-2.307.336,2.412,2.412,0,0,1-1.555-.527,1.977,1.977,0,0,1-.659-1.654A5.272,5.272,0,0,1,10.07,244a3.6,3.6,0,0,1,.112-.534,1.753,1.753,0,0,1,.171-.415.277.277,0,0,1,.244-.165.455.455,0,0,1,.237.072,1.634,1.634,0,0,0,.29.158,3.518,3.518,0,0,0,.5.158,3.882,3.882,0,0,0,.883.079,5.273,5.273,0,0,0,2.05-.468,8.239,8.239,0,0,0,2.017-1.252,7.026,7.026,0,0,0,1.575-1.779,4,4,0,0,0,.613-2.1,2.531,2.531,0,0,0-.158-.844,2.333,2.333,0,0,0-.514-.824,2.794,2.794,0,0,0-.942-.659,3.605,3.605,0,0,0-1.443-.257,7.032,7.032,0,0,0-3.038.659,10.222,10.222,0,0,0-2.742,1.9,16.272,16.272,0,0,0-2.346,2.84,19.963,19.963,0,0,0-1.819,3.5,22.012,22.012,0,0,0-1.147,3.934,19.943,19.943,0,0,0-.415,4.007,21.089,21.089,0,0,0,.415,4.442A12.317,12.317,0,0,0,5.8,259.813a6.327,6.327,0,0,0,1.8,2.129,3.809,3.809,0,0,0,2.247.745,5.66,5.66,0,0,0,2.346-.481,6.918,6.918,0,0,0,1.918-1.259,8.772,8.772,0,0,0,1.5-1.852,13.937,13.937,0,0,0,1.068-2.155,13.629,13.629,0,0,0,.659-2.221,10.545,10.545,0,0,0,.217-2.036,7.514,7.514,0,0,0-.046-.811,6.828,6.828,0,0,1-.046-.705.817.817,0,0,1,.132-.507.857.857,0,0,1,.356-.27,1.64,1.64,0,0,1,.514-.112h.613a2.86,2.86,0,0,1,.784.132,3.994,3.994,0,0,1,.844.369,2.722,2.722,0,0,1,.659.547.982.982,0,0,1,.283.659c-.132,1.232-.211,2.405-.244,3.513s-.053,2.228-.053,3.374v7.17c.475-.079.936-.125,1.384-.158l1.285-.086c.587,0,.969.132,1.14.5a1.733,1.733,0,0,1,.072,1.232,3.15,3.15,0,0,1-.7,1.272,1.615,1.615,0,0,1-1.173.6H22.288c-.336,0-.659.04-1.041.072-.046.857-.125,1.727-.217,2.6a17.794,17.794,0,0,1-.481,2.551,12.687,12.687,0,0,1-.857,2.313,7.078,7.078,0,0,1-1.318,1.885,5.714,5.714,0,0,1-1.885,1.265,6.492,6.492,0,0,1-2.577.468,6.229,6.229,0,0,1-2.313-.409,5.273,5.273,0,0,1-1.714-1.127,4.884,4.884,0,0,1-1.127-1.707,5.648,5.648,0,0,1-.4-2.135,6.03,6.03,0,0,1,.784-3.084,8.323,8.323,0,0,1,2.069-2.373,12.727,12.727,0,0,1,2.953-1.74,27.515,27.515,0,0,1,3.407-1.2v-.448c0-.982,0-1.845-.053-2.6S17.491,262.324,17.491,261.77Zm-3.407,15.283a2.049,2.049,0,0,0,1.437-.56,4.093,4.093,0,0,0,.989-1.516,10.545,10.545,0,0,0,.626-2.168,23.853,23.853,0,0,0,.323-2.636,9.226,9.226,0,0,0-3.836,1.977,3.954,3.954,0,0,0-1.318,2.959,1.72,1.72,0,0,0,1.812,1.977Z" transform="translate(1154.521 3017.453)" fill="#5e464d"/>
    <path id="Trazado_232500" data-name="Trazado 232500" d="M52.879,270.288A1.911,1.911,0,0,0,54.2,269.8a4.613,4.613,0,0,0,.949-1.252,8.2,8.2,0,0,0,.659-1.595c.171-.573.31-1.107.428-1.615a2.082,2.082,0,0,1,.5-1.035,1,1,0,0,1,.725-.323,1.252,1.252,0,0,1,.6.165,2.366,2.366,0,0,1,.975,1.061,1.575,1.575,0,0,1,.165.659v.112a.659.659,0,0,1-.053.2,17.365,17.365,0,0,1-.863,2.373,9.985,9.985,0,0,1-1.41,2.293,7.249,7.249,0,0,1-2.069,1.733,5.6,5.6,0,0,1-2.827.692,4.917,4.917,0,0,1-2.307-.514,4.073,4.073,0,0,1-1.542-1.358,6.881,6.881,0,0,1-1.826,1.318,5.371,5.371,0,0,1-2.485.547,5.932,5.932,0,0,1-2.583-.534,5.384,5.384,0,0,1-1.872-1.457,6.182,6.182,0,0,1-1.14-2.188,9.174,9.174,0,0,1-.382-2.7,12.456,12.456,0,0,1,1.008-5.081,11.863,11.863,0,0,1,2.669-3.869,11.659,11.659,0,0,1,3.809-2.438,12.061,12.061,0,0,1,4.442-.844,2.557,2.557,0,0,1,1.667.514,1.674,1.674,0,0,1,.659,1.4,1.727,1.727,0,0,1-.138.817.521.521,0,0,1-.5.231,6.714,6.714,0,0,1-.712-.04,5.634,5.634,0,0,0-.758-.046,8,8,0,0,0-2.887.567,7.631,7.631,0,0,0-2.636,1.74,8.957,8.957,0,0,0-1.977,2.959,10.861,10.861,0,0,0-.778,4.284,4.4,4.4,0,0,0,.764,2.775,2.491,2.491,0,0,0,2.063.942,2.307,2.307,0,0,0,1.714-.705,5.457,5.457,0,0,0,1.1-1.654V260.89a4.336,4.336,0,0,0,0-.56q-.04-.217-.079-.376a1.449,1.449,0,0,0-.059-.277,1.628,1.628,0,0,1,0-.237.659.659,0,0,1,.382-.567,1.885,1.885,0,0,1,.9-.211,3.124,3.124,0,0,1,1.977.587,1.779,1.779,0,0,1,.725,1.391v7.526a2.821,2.821,0,0,0,.1.745,2.472,2.472,0,0,0,.29.659,1.516,1.516,0,0,0,1.318.659Z" transform="translate(1141.62 3009.852)" fill="#5e464d"/>
    <path id="Trazado_232501" data-name="Trazado 232501" d="M65.977,256.834a2.682,2.682,0,0,0-.112-.936,1.5,1.5,0,0,1-.105-.534.659.659,0,0,1,.389-.547,1.977,1.977,0,0,1,.929-.211,3.058,3.058,0,0,1,1.977.587,1.779,1.779,0,0,1,.718,1.417v2.05a16.408,16.408,0,0,1,1.114-1.786,9.1,9.1,0,0,1,1.318-1.43,5.832,5.832,0,0,1,1.5-.962,4.3,4.3,0,0,1,1.727-.343,4.369,4.369,0,0,1,2.056.422,3.48,3.48,0,0,1,1.279,1.094,4.086,4.086,0,0,1,.659,1.489,7.2,7.2,0,0,1,.185,1.6v9.945a2.742,2.742,0,0,0,.145.705,1.72,1.72,0,0,0,.382.62.989.989,0,0,0,.745.27A1.924,1.924,0,0,0,82.2,269.8a4.613,4.613,0,0,0,.942-1.252,8.634,8.634,0,0,0,.659-1.595c.165-.573.31-1.107.428-1.615a1.878,1.878,0,0,1,.488-1.035,1.022,1.022,0,0,1,.712-.323,1.318,1.318,0,0,1,.613.165,2.273,2.273,0,0,1,.573.435,2.326,2.326,0,0,1,.415.6,1.568,1.568,0,0,1,.158.659v.112a.62.62,0,0,1-.046.2,17.368,17.368,0,0,1-.863,2.4,9.812,9.812,0,0,1-1.424,2.293,7.52,7.52,0,0,1-2.069,1.733,5.536,5.536,0,0,1-2.814.692,4.31,4.31,0,0,1-1.779-.343,4.139,4.139,0,0,1-1.318-.929,3.809,3.809,0,0,1-.83-1.358,4.89,4.89,0,0,1-.283-1.648V258.751a3.638,3.638,0,0,0-.138-.824,1.384,1.384,0,0,0-.316-.567.784.784,0,0,0-.58-.211,2.267,2.267,0,0,0-1.318.659,9.264,9.264,0,0,0-1.555,1.74,12.627,12.627,0,0,0-1.318,2.405,9.523,9.523,0,0,0-.725,2.7v7.322a1.562,1.562,0,0,1-.152.62,1.127,1.127,0,0,1-.415.468,1.489,1.489,0,0,1-.824.191,4.341,4.341,0,0,1-.791-.079,2.241,2.241,0,0,1-.784-.29,1.654,1.654,0,0,1-.587-.6,1.977,1.977,0,0,1-.237-1.035Z" transform="translate(1132.1 3009.855)" fill="#5e464d"/>
    <path id="Trazado_232502" data-name="Trazado 232502" d="M107.3,270.288a1.911,1.911,0,0,0,1.318-.488,4.614,4.614,0,0,0,.956-1.226,8.205,8.205,0,0,0,.659-1.595c.171-.573.31-1.107.428-1.615a2.082,2.082,0,0,1,.5-1.035,1,1,0,0,1,.725-.323,1.252,1.252,0,0,1,.6.165,2.366,2.366,0,0,1,.975,1.035,1.489,1.489,0,0,1,.165.659v.112a.659.659,0,0,1-.053.2,17.364,17.364,0,0,1-.87,2.386,9.984,9.984,0,0,1-1.41,2.293,7.249,7.249,0,0,1-2.069,1.733,5.582,5.582,0,0,1-2.827.692,4.917,4.917,0,0,1-2.307-.514,4.073,4.073,0,0,1-1.542-1.358,6.88,6.88,0,0,1-1.826,1.318,5.371,5.371,0,0,1-2.485.547,5.932,5.932,0,0,1-2.583-.534,5.385,5.385,0,0,1-1.872-1.456,6.182,6.182,0,0,1-1.14-2.188,9.174,9.174,0,0,1-.382-2.7,12.455,12.455,0,0,1,1.008-5.094,11.863,11.863,0,0,1,2.636-3.869,11.658,11.658,0,0,1,3.809-2.438,12.061,12.061,0,0,1,4.442-.844,2.57,2.57,0,0,1,1.667.514,1.674,1.674,0,0,1,.659,1.4,1.727,1.727,0,0,1-.138.817.521.521,0,0,1-.5.231,6.706,6.706,0,0,1-.712-.04,5.639,5.639,0,0,0-.758-.046,8,8,0,0,0-2.887.567,7.632,7.632,0,0,0-2.636,1.74,8.957,8.957,0,0,0-1.944,2.959,10.861,10.861,0,0,0-.778,4.284,4.4,4.4,0,0,0,.764,2.775,2.491,2.491,0,0,0,2.083.969,2.307,2.307,0,0,0,1.714-.705,5.457,5.457,0,0,0,1.1-1.654v-7.065a4.335,4.335,0,0,0,0-.56q-.04-.217-.079-.376t-.059-.277a1.628,1.628,0,0,1,0-.237.659.659,0,0,1,.382-.567,1.885,1.885,0,0,1,.916-.211,3.091,3.091,0,0,1,1.977.587,1.766,1.766,0,0,1,.738,1.417v7.526a2.821,2.821,0,0,0,.1.745,2.471,2.471,0,0,0,.29.659,1.516,1.516,0,0,0,1.318.659Z" transform="translate(1123.064 3009.852)" fill="#5e464d"/>
    <path id="Trazado_232503" data-name="Trazado 232503" d="M128.182,273.29a9.654,9.654,0,0,1-3.236-.554,8.251,8.251,0,0,1-2.781-1.654,8,8,0,0,1-1.938-2.689,9.022,9.022,0,0,1-.718-3.724,12.4,12.4,0,0,1,.612-3.847,11.9,11.9,0,0,1,1.688-3.376,8.937,8.937,0,0,1,2.583-2.4,6.267,6.267,0,0,1,3.3-.909,4.613,4.613,0,0,1,2.208.481,4.844,4.844,0,0,1,1.47,1.153,4.488,4.488,0,0,1,.817,1.463,4.429,4.429,0,0,1,.257,1.377,1.318,1.318,0,0,1-.257.8,2.438,2.438,0,0,1-.619.6,2.919,2.919,0,0,1-.811.369,2.5,2.5,0,0,1-.784.1.85.85,0,0,1-.554-.224.613.613,0,0,1-.132-.6,6.055,6.055,0,0,1-.185-.712,3.123,3.123,0,0,0-.3-.817,2.043,2.043,0,0,0-.573-.659,1.628,1.628,0,0,0-1-.277,1.977,1.977,0,0,0-1.318.587,5.378,5.378,0,0,0-1.153,1.615,11.237,11.237,0,0,0-.8,2.386,13.115,13.115,0,0,0-.31,2.893,6.927,6.927,0,0,0,.382,2.406,4.811,4.811,0,0,0,1.068,1.76,4.436,4.436,0,0,0,1.628,1.081,5.6,5.6,0,0,0,2.043.369,6.024,6.024,0,0,0,2.557-.5,5.78,5.78,0,0,0,1.852-1.318,6.967,6.967,0,0,0,1.226-1.852,9.767,9.767,0,0,0,.659-2.069,1.391,1.391,0,0,1,.7-1.015,1.542,1.542,0,0,1,1.081-.119,1.892,1.892,0,0,1,.956.567,1.232,1.232,0,0,1,.33,1.035,11.8,11.8,0,0,1-.356,1.582,9.226,9.226,0,0,1-.751,1.806,10.371,10.371,0,0,1-1.232,1.793,8.2,8.2,0,0,1-1.826,1.569,9.747,9.747,0,0,1-2.511,1.114,11.5,11.5,0,0,1-3.262.409Z" transform="translate(1113.774 3009.854)" fill="#5e464d"/>
    <path id="Trazado_232504" data-name="Trazado 232504" d="M142.844,237.475a2.722,2.722,0,0,0-.086-.778,2.214,2.214,0,0,0-.171-.461,1.317,1.317,0,0,0-.171-.264.31.31,0,0,1-.086-.211.264.264,0,0,1,.145-.224,1.635,1.635,0,0,1,.4-.158,3.118,3.118,0,0,1,.527-.1,5.2,5.2,0,0,1,.554-.033,3.051,3.051,0,0,1,1.977.587,1.779,1.779,0,0,1,.718,1.417v14.967a16.417,16.417,0,0,1,1.114-1.786,8.824,8.824,0,0,1,1.318-1.43,5.694,5.694,0,0,1,1.489-.962,4.3,4.3,0,0,1,1.727-.343,4.416,4.416,0,0,1,2.063.422,3.512,3.512,0,0,1,1.272,1.094,4.086,4.086,0,0,1,.659,1.489,7.2,7.2,0,0,1,.185,1.6v9.945a2.742,2.742,0,0,0,.145.705,1.72,1.72,0,0,0,.382.62.989.989,0,0,0,.745.27,1.924,1.924,0,0,0,1.318-.488,4.613,4.613,0,0,0,.956-1.226,8.633,8.633,0,0,0,.659-1.595c.165-.573.31-1.107.428-1.615a1.977,1.977,0,0,1,.448-1,1.041,1.041,0,0,1,.659-.343,1.213,1.213,0,0,1,.718.165,2.135,2.135,0,0,1,.659.521,2.241,2.241,0,0,1,.4.725,1.259,1.259,0,0,1,.04.758,20.79,20.79,0,0,1-.9,2.386,9.76,9.76,0,0,1-1.41,2.293,7.25,7.25,0,0,1-2.056,1.733,5.536,5.536,0,0,1-2.814.692,4.311,4.311,0,0,1-1.779-.343,4.139,4.139,0,0,1-1.318-.929,3.908,3.908,0,0,1-.83-1.358,4.891,4.891,0,0,1-.283-1.648V252.336a3.638,3.638,0,0,0-.138-.824,1.384,1.384,0,0,0-.316-.567.778.778,0,0,0-.573-.211,2.261,2.261,0,0,0-1.318.659,9.267,9.267,0,0,0-1.542,1.74,12.626,12.626,0,0,0-1.318,2.419,9.523,9.523,0,0,0-.725,2.7v7.322a1.45,1.45,0,0,1-.145.62,1.127,1.127,0,0,1-.415.468,1.49,1.49,0,0,1-.824.191,4.343,4.343,0,0,1-.791-.079,2.24,2.24,0,0,1-.784-.29,1.654,1.654,0,0,1-.587-.6,1.977,1.977,0,0,1-.237-1.035Z" transform="translate(1105.992 3016.297)" fill="#5e464d"/>
    <path id="Trazado_232505" data-name="Trazado 232505" d="M182.365,258.763a7.612,7.612,0,0,1-.481,2.636,8.825,8.825,0,0,1-1.417,2.524,10.7,10.7,0,0,1-2.326,2.142,10.492,10.492,0,0,1-3.2,1.437,4.81,4.81,0,0,0,.659,1.1,4.079,4.079,0,0,0,.969.9,4.7,4.7,0,0,0,1.318.6,5.931,5.931,0,0,0,1.727.224,5.826,5.826,0,0,0,2.524-.5,5.509,5.509,0,0,0,1.773-1.318,7.1,7.1,0,0,0,1.167-1.852,10.933,10.933,0,0,0,.659-2.069,1.377,1.377,0,0,1,.7-1.015,1.542,1.542,0,0,1,1.081-.119,1.892,1.892,0,0,1,.956.567,1.259,1.259,0,0,1,.33,1.035,15.216,15.216,0,0,1-.33,1.582,9.327,9.327,0,0,1-.7,1.806,10.084,10.084,0,0,1-1.193,1.793,7.908,7.908,0,0,1-1.773,1.569,9.411,9.411,0,0,1-2.478,1.114,11.341,11.341,0,0,1-3.256.422,9.266,9.266,0,0,1-3.3-.613,8.72,8.72,0,0,1-2.84-1.76,8.568,8.568,0,0,1-1.977-2.827,9.266,9.266,0,0,1-.745-3.822,11.935,11.935,0,0,1,.659-4.02,11.2,11.2,0,0,1,1.74-3.216,8.376,8.376,0,0,1,2.452-2.129,5.72,5.72,0,0,1,2.814-.764,5.074,5.074,0,0,1,1.9.336,3.955,3.955,0,0,1,1.437.942,4.152,4.152,0,0,1,.89,1.456,5.49,5.49,0,0,1,.257,1.839Zm-8.086,5.391a2.745,2.745,0,0,0,0,.4v.422a6.948,6.948,0,0,0,1.727-1.028,6.365,6.365,0,0,0,1.318-1.43,6.557,6.557,0,0,0,1.127-3.717,2.1,2.1,0,0,0-.283-1.18.87.87,0,0,0-.771-.422,1.7,1.7,0,0,0-1.087.376,3.48,3.48,0,0,0-.837,1,6.591,6.591,0,0,0-.587,1.377,14.32,14.32,0,0,0-.376,1.549,12.775,12.775,0,0,0-.2,1.483A10.55,10.55,0,0,0,174.279,264.154Z" transform="translate(1096.484 3009.836)" fill="#5e464d"/>
    <path id="Trazado_232506" data-name="Trazado 232506" d="M111.851,105.652a2.5,2.5,0,0,0,2.676-1.536c.7-1.193.362-3.13.336-3.658-.066-1.16-.455-2.452-.507-3.1,0-.4,0-2.92.059-3.954.883-16.371,7.909-20.266,9.938-20.707a5.661,5.661,0,0,1,3.915.264V47.919h0v-7a12.688,12.688,0,0,0-5.707-9.886L71.247,1.378a12.642,12.642,0,0,0-11.434-.02L8.553,30.975a12.654,12.654,0,0,0-5.694,9.886v6.472a.6.6,0,0,0,0,.112V56.9c.3.165.593.336.89.521,1,.659,1.977,1.022,2.979,1.714a45.132,45.132,0,0,1,7.909,6.116c.468.448,2.03,2.412,2.4,2.873a31.634,31.634,0,0,0,3.809,4.35A13.767,13.767,0,0,0,23.381,74.3a7.147,7.147,0,0,0,5.272.046c9.767-4.231,15.9-2.109,18.723-.409,6.992,4.2,9.325,10.07,10.07,17.2a19.258,19.258,0,0,1,.092,2.781c0,1.694-.059,4.416,1.727,4.87,2.564.659,3.183-2.083,3.565-3.9.863-4.119,6.347-6.821,10.36-4.745,2.768,1.43,3.9,2.241,6.637,1.035,3.42-1.509,5.187-5.351,6.38-7.394a12.522,12.522,0,0,1,4.93-4.692c5.338-3.328,18.756-2.465,19.244,12.324v4.112c0,1.41.046,2.788-.046,4.244-.059.969-.231,1.977-.323,2.972C109.986,102.745,109.485,105.638,111.851,105.652Z" transform="translate(1153.547 3096.504)" fill="#e4a663"/>
    <path id="Trazado_232507" data-name="Trazado 232507" d="M128.242,102.437a5.607,5.607,0,0,0-3.9-.264c-2.036.442-9.055,4.336-9.938,20.707-.053,1.008-.086,3.532-.059,3.954.053.659.442,1.938.507,3.1,0,.527.4,2.438-.336,3.658a2.49,2.49,0,0,1-2.676,1.536c-2.366,0-1.865-2.906-1.865-2.906.092-.982.264-1.977.323-2.972.092-1.456.046-2.834.046-4.244v-4.112c-.488-14.789-13.906-15.652-19.244-12.324a12.522,12.522,0,0,0-4.93,4.692c-1.193,2.043-2.959,5.885-6.38,7.394-2.735,1.206-3.869.4-6.637-1.035-4.014-2.076-9.5.626-10.36,4.745-.382,1.819-1,4.554-3.565,3.9-1.786-.455-1.727-3.177-1.727-4.87a19.257,19.257,0,0,0-.092-2.781c-.745-7.131-3.078-13-10.07-17.2-2.827-1.7-8.956-3.822-18.723.409a7.148,7.148,0,0,1-5.272-.046,13.768,13.768,0,0,1-2.537-1.832A31.634,31.634,0,0,1,17,97.593c-.369-.461-1.931-2.425-2.4-2.873A45.131,45.131,0,0,0,6.689,88.6c-1-.659-1.977-1.081-2.979-1.714-.3-.185-.593-.356-.89-.521v43.213a12.668,12.668,0,0,0,5.707,9.886L59.84,169.126a12.607,12.607,0,0,0,11.408,0l51.32-29.617a12.636,12.636,0,0,0,5.694-9.886Z" transform="translate(1153.559 3067.056)" fill="#5e464d"/>
    <path id="Trazado_232508" data-name="Trazado 232508" d="M74.06,85.41a14.3,14.3,0,0,1-12.9,0L8.69,57.73C9.283,58.317,61.9,88.883,61.9,88.883a12.607,12.607,0,0,0,11.408,0s52.545-30.474,53.139-31.061Z" transform="translate(1151.558 3076.82)" fill="#fff"/>
    <path id="Trazado_232509" data-name="Trazado 232509" d="M82.888,6.257a14.412,14.412,0,0,1,12.9.007l6.36,2.636c-.593-.587-7.1-4.8-7.1-4.8a12.613,12.613,0,0,0-11.4,0S73.247,10.2,72.66,10.785Z" transform="translate(1129.747 3095.572)" fill="#fff"/>
  </g>
</svg>
