<svg xmlns="http://www.w3.org/2000/svg" xmlns:xlink="http://www.w3.org/1999/xlink" width="1030" height="273" viewBox="0 0 1030 273">
  <defs>
    <radialGradient id="radial-gradient" cx="0.5" cy="0.5" r="1.126" gradientTransform="matrix(0.836, 0, 0, -1, -0.028, 2.588)" gradientUnits="objectBoundingBox">
      <stop offset="0" stop-color="#8628a5"/>
      <stop offset="0.37" stop-color="#8628a5"/>
      <stop offset="1" stop-color="#2f077f"/>
    </radialGradient>
    <clipPath id="clip-path">
      <rect id="Rectángulo_314158" data-name="Rectángulo 314158" width="25.148" height="2.342" transform="translate(149.036 69.105)" fill="none"/>
    </clipPath>
    <clipPath id="clip-path-2">
      <rect id="Rectángulo_314159" data-name="Rectángulo 314159" width="103.073" height="2.342" transform="translate(36.424 69.105)" fill="none"/>
    </clipPath>
    <radialGradient id="radial-gradient-2" cx="0.5" cy="0.5" r="1.126" gradientTransform="translate(-6.78 2.588) rotate(180) scale(0.836 1)" gradientUnits="objectBoundingBox">
      <stop offset="0" stop-color="#59e5f5"/>
      <stop offset="0.713" stop-color="#2f077f"/>
      <stop offset="1" stop-color="#2f077f"/>
    </radialGradient>
    <clipPath id="clip-path-3">
      <rect id="Rectángulo_314170" data-name="Rectángulo 314170" width="25.149" height="2.342" transform="translate(679.745 69.105)" fill="none"/>
    </clipPath>
    <clipPath id="clip-path-4">
      <rect id="Rectángulo_314171" data-name="Rectángulo 314171" width="103.073" height="2.342" transform="translate(714.432 69.105)" fill="none"/>
    </clipPath>
    <radialGradient id="radial-gradient-3" r="1.126" gradientTransform="matrix(0.836, 0, 0, -1, -2.441, 8.635)" xlink:href="#radial-gradient"/>
    <clipPath id="clip-path-5">
      <rect id="Rectángulo_314182" data-name="Rectángulo 314182" width="8.855" height="0.825" transform="translate(964.525 32.439)" fill="none"/>
    </clipPath>
    <clipPath id="clip-path-6">
      <rect id="Rectángulo_314183" data-name="Rectángulo 314183" width="36.292" height="0.825" transform="translate(924.874 32.439)" fill="none"/>
    </clipPath>
    <radialGradient id="radial-gradient-4" r="1.126" gradientTransform="matrix(0.836, 0, 0, -1, -2.441, 5.354)" xlink:href="#radial-gradient"/>
    <clipPath id="clip-path-7">
      <rect id="Rectángulo_314194" data-name="Rectángulo 314194" width="8.855" height="0.824" transform="translate(964.525 117.272)" fill="none"/>
    </clipPath>
    <clipPath id="clip-path-8">
      <rect id="Rectángulo_314195" data-name="Rectángulo 314195" width="36.292" height="0.824" transform="translate(924.874 117.272)" fill="none"/>
    </clipPath>
    <radialGradient id="radial-gradient-5" r="1.126" gradientTransform="matrix(0.836, 0, 0, -1, -2.441, 2.073)" xlink:href="#radial-gradient"/>
    <clipPath id="clip-path-9">
      <rect id="Rectángulo_314206" data-name="Rectángulo 314206" width="8.855" height="0.825" transform="translate(964.525 202.104)" fill="none"/>
    </clipPath>
    <clipPath id="clip-path-10">
      <rect id="Rectángulo_314207" data-name="Rectángulo 314207" width="36.292" height="0.825" transform="translate(924.874 202.104)" fill="none"/>
    </clipPath>
  </defs>
  <g id="Grupo_238743" data-name="Grupo 238743" transform="translate(-285 -1219)">
    <path id="Trazado_234522" data-name="Trazado 234522" d="M0,0H1030V273H0Z" transform="translate(285 1219)" fill="none"/>
    <path id="Trazado_233708" data-name="Trazado 233708" d="M327.677,216.1H232.265a7.313,7.313,0,0,1-7.313-7.313V47.511a7.313,7.313,0,0,1,7.313-7.313h95.412a7.313,7.313,0,0,1,7.313,7.313V208.788a7.313,7.313,0,0,1-7.313,7.313" transform="translate(285 1238)" fill="#161616"/>
    <path id="Trazado_233709" data-name="Trazado 233709" d="M326.178,83.449H233.763a5.329,5.329,0,0,1-5.329-5.329V51.2a5.329,5.329,0,0,1,5.329-5.329h92.415a5.329,5.329,0,0,1,5.329,5.329V78.12a5.329,5.329,0,0,1-5.329,5.329" transform="translate(285 1238)" fill="#e1edff"/>
    <path id="Trazado_233710" data-name="Trazado 233710" d="M288.281,72.548a4.745,4.745,0,1,1-4.745-4.745,4.745,4.745,0,0,1,4.745,4.745" transform="translate(285 1238)" fill="#f8a800"/>
    <path id="Trazado_233711" data-name="Trazado 233711" d="M307.384,72.548a4.745,4.745,0,1,1-4.745-4.745,4.745,4.745,0,0,1,4.745,4.745" transform="translate(285 1238)" fill="#2f077f"/>
    <path id="Trazado_233712" data-name="Trazado 233712" d="M326.488,72.548a4.745,4.745,0,1,1-4.745-4.745,4.745,4.745,0,0,1,4.745,4.745" transform="translate(285 1238)" fill="#59e5f5"/>
    <path id="Trazado_233713" data-name="Trazado 233713" d="M314.1,52.652H302.605a1.17,1.17,0,1,1,0-2.341H314.1a1.17,1.17,0,1,1,0,2.341" transform="translate(285 1238)" fill="#fff"/>
    <path id="Trazado_233714" data-name="Trazado 233714" d="M290.591,52.652h-53.8a1.17,1.17,0,0,1,0-2.341h53.8a1.17,1.17,0,1,1,0,2.341" transform="translate(285 1238)" fill="#fff"/>
    <path id="Trazado_233715" data-name="Trazado 233715" d="M326.178,126.019H233.763a5.329,5.329,0,0,1-5.329-5.329V93.771a5.329,5.329,0,0,1,5.329-5.329h92.415a5.329,5.329,0,0,1,5.329,5.329V120.69a5.329,5.329,0,0,1-5.329,5.329" transform="translate(285 1238)" fill="#e1edff"/>
    <path id="Trazado_233716" data-name="Trazado 233716" d="M314.1,95.221H302.605a1.171,1.171,0,1,1,0-2.341H314.1a1.171,1.171,0,1,1,0,2.341" transform="translate(285 1238)" fill="#fff"/>
    <path id="Trazado_233717" data-name="Trazado 233717" d="M290.591,95.221h-53.8a1.171,1.171,0,0,1,0-2.341h53.8a1.171,1.171,0,1,1,0,2.341" transform="translate(285 1238)" fill="#fff"/>
    <path id="Trazado_234523" data-name="Trazado 234523" d="M0,0H49.621V4.44H0Z" transform="translate(560.444 1341.452)" fill="#a1b3c9"/>
    <path id="Trazado_234524" data-name="Trazado 234524" d="M0,0H49.621V4.44H0Z" transform="translate(560.444 1351.899)" fill="#a1b3c9"/>
    <path id="Trazado_233718" data-name="Trazado 233718" d="M326.178,168.588H233.763a5.329,5.329,0,0,1-5.329-5.329V136.34a5.329,5.329,0,0,1,5.329-5.329h92.415a5.329,5.329,0,0,1,5.329,5.329v26.919a5.329,5.329,0,0,1-5.329,5.329" transform="translate(285 1238)" fill="#e1edff"/>
    <path id="Trazado_233719" data-name="Trazado 233719" d="M314.1,137.791H302.605a1.171,1.171,0,1,1,0-2.341H314.1a1.171,1.171,0,1,1,0,2.341" transform="translate(285 1238)" fill="#fff"/>
    <path id="Trazado_233720" data-name="Trazado 233720" d="M290.591,137.791h-53.8a1.171,1.171,0,0,1,0-2.341h53.8a1.171,1.171,0,1,1,0,2.341" transform="translate(285 1238)" fill="#fff"/>
    <path id="Trazado_234525" data-name="Trazado 234525" d="M0,0H49.621V4.44H0Z" transform="translate(560.444 1384.021)" fill="#a1b3c9"/>
    <path id="Trazado_234526" data-name="Trazado 234526" d="M0,0H49.621V4.44H0Z" transform="translate(560.444 1394.469)" fill="#a1b3c9"/>
    <path id="Trazado_233721" data-name="Trazado 233721" d="M326.178,211.158H233.763a5.329,5.329,0,0,1-5.329-5.329V178.91a5.329,5.329,0,0,1,5.329-5.329h92.415a5.329,5.329,0,0,1,5.329,5.329v26.919a5.329,5.329,0,0,1-5.329,5.329" transform="translate(285 1238)" fill="#e1edff"/>
    <path id="Trazado_233722" data-name="Trazado 233722" d="M307.384,200.257a4.745,4.745,0,1,1-4.745-4.745,4.745,4.745,0,0,1,4.745,4.745" transform="translate(285 1238)" fill="#59e5f5"/>
    <path id="Trazado_233723" data-name="Trazado 233723" d="M326.488,200.257a4.745,4.745,0,1,1-4.745-4.745,4.745,4.745,0,0,1,4.745,4.745" transform="translate(285 1238)" fill="#2f077f"/>
    <path id="Trazado_233724" data-name="Trazado 233724" d="M314.1,180.361H302.605a1.17,1.17,0,1,1,0-2.341H314.1a1.17,1.17,0,1,1,0,2.341" transform="translate(285 1238)" fill="#fff"/>
    <path id="Trazado_233725" data-name="Trazado 233725" d="M290.591,180.361h-53.8a1.17,1.17,0,0,1,0-2.341h53.8a1.17,1.17,0,1,1,0,2.341" transform="translate(285 1238)" fill="#fff"/>
    <path id="Trazado_234527" data-name="Trazado 234527" d="M0,0H184.981V156.1H0Z" transform="translate(310.237 1297.219)" fill="#161616"/>
    <path id="Trazado_234528" data-name="Trazado 234528" d="M0,0H1030V253.862H0Z" transform="translate(285 1238)" fill="none"/>
    <path id="Trazado_234529" data-name="Trazado 234529" d="M0,0H175.615V146.881H0Z" transform="translate(314.92 1301.83)" fill="url(#radial-gradient)"/>
    <path id="Trazado_234530" data-name="Trazado 234530" d="M0,0H175.615V146.881H0Z" transform="translate(314.92 1301.83)" fill="none"/>
    <path id="Trazado_234531" data-name="Trazado 234531" d="M0,0H235.454V13.269H0Z" transform="translate(285 1440.832)" fill="#161616"/>
    <path id="Trazado_233726" data-name="Trazado 233726" d="M165.208,208.426H140.232a1.17,1.17,0,1,1,0-2.341h24.976a1.17,1.17,0,1,1,0,2.341" transform="translate(285 1238)" fill="#938d8e"/>
    <path id="Trazado_233727" data-name="Trazado 233727" d="M127.222,208.426H16.911a1.17,1.17,0,1,1,0-2.341H127.222a1.17,1.17,0,1,1,0,2.341" transform="translate(285 1238)" fill="#938d8e"/>
    <g id="Grupo_238561" data-name="Grupo 238561" transform="translate(285 1238)">
      <g id="Grupo_238560" data-name="Grupo 238560" clip-path="url(#clip-path)">
        <path id="Trazado_233728" data-name="Trazado 233728" d="M173.013,71.447H150.206a1.17,1.17,0,1,1,0-2.341h22.807a1.17,1.17,0,1,1,0,2.341" fill="#fff"/>
      </g>
    </g>
    <g id="Grupo_238564" data-name="Grupo 238564" transform="translate(285 1238)">
      <g id="Grupo_238563" data-name="Grupo 238563" clip-path="url(#clip-path-2)">
        <path id="Trazado_233729" data-name="Trazado 233729" d="M138.326,71.447H37.594a1.17,1.17,0,0,1,0-2.341H138.326a1.17,1.17,0,1,1,0,2.341" fill="#fff"/>
      </g>
    </g>
    <path id="Trazado_234532" data-name="Trazado 234532" d="M0,0H1030V253.862H0Z" transform="translate(285 1238)" fill="none"/>
    <path id="Trazado_234533" data-name="Trazado 234533" d="M20.946-10.886a13.391,13.391,0,0,1-1.232,5.88,9.106,9.106,0,0,1-3.5,3.938,9.75,9.75,0,0,1-5.17,1.38A9.888,9.888,0,0,1,5.9-1.022a9.091,9.091,0,0,1-3.5-3.813,13.006,13.006,0,0,1-1.318-5.693v-1.279A13.45,13.45,0,0,1,2.3-17.694,9.084,9.084,0,0,1,5.81-21.632a9.818,9.818,0,0,1,5.2-1.388,9.722,9.722,0,0,1,5.147,1.372,9.248,9.248,0,0,1,3.517,3.907,13.064,13.064,0,0,1,1.271,5.81Zm-5.568-.951a9.549,9.549,0,0,0-1.131-5.139,3.627,3.627,0,0,0-3.236-1.755q-4.117,0-4.351,6.176l-.016,1.669A9.821,9.821,0,0,0,7.751-5.755a3.622,3.622,0,0,0,3.291,1.794,3.578,3.578,0,0,0,3.2-1.762,9.553,9.553,0,0,0,1.139-5.069ZM22.992-5.1a2.992,2.992,0,0,1,2.074.741,2.431,2.431,0,0,1,.827,1.895,2.431,2.431,0,0,1-.827,1.895,2.992,2.992,0,0,1-2.074.741A2.967,2.967,0,0,1,20.91-.577a2.448,2.448,0,0,1-.819-1.887,2.448,2.448,0,0,1,.819-1.887A2.967,2.967,0,0,1,22.992-5.1Zm18.357-.936a2.249,2.249,0,0,0-.85-1.872A10.565,10.565,0,0,0,37.512-9.3a28.654,28.654,0,0,1-3.494-1.388Q29.6-12.852,29.6-16.642a5.343,5.343,0,0,1,1.1-3.33,7.112,7.112,0,0,1,3.112-2.246,12.109,12.109,0,0,1,4.523-.8,10.592,10.592,0,0,1,4.39.873,6.951,6.951,0,0,1,3.018,2.488,6.5,6.5,0,0,1,1.076,3.689H41.365a2.745,2.745,0,0,0-.85-2.152,3.313,3.313,0,0,0-2.3-.764,3.736,3.736,0,0,0-2.316.647,1.986,1.986,0,0,0-.85,1.645,2,2,0,0,0,.936,1.583,11.8,11.8,0,0,0,3.291,1.466,20.16,20.16,0,0,1,3.868,1.63,6.5,6.5,0,0,1,3.681,5.849,5.545,5.545,0,0,1-2.246,4.679,9.99,9.99,0,0,1-6.161,1.7,12.223,12.223,0,0,1-5-.99,7.537,7.537,0,0,1-3.369-2.714,7.071,7.071,0,0,1-1.131-3.969h5.49a3.483,3.483,0,0,0,.944,2.69,4.46,4.46,0,0,0,3.065.866,3.523,3.523,0,0,0,2.145-.585A1.93,1.93,0,0,0,41.349-6.036ZM52.641-5.1a2.992,2.992,0,0,1,2.074.741,2.431,2.431,0,0,1,.827,1.895,2.431,2.431,0,0,1-.827,1.895,2.992,2.992,0,0,1-2.074.741,2.967,2.967,0,0,1-2.082-.749,2.448,2.448,0,0,1-.819-1.887,2.448,2.448,0,0,1,.819-1.887A2.967,2.967,0,0,1,52.641-5.1Z" transform="translate(372.827 1358.039)" fill="#fff"/>
    <path id="Trazado_234534" data-name="Trazado 234534" d="M14.614-4.242h-7.5L5.8,0H-.047L8.282-22.709h5.147L21.82,0H15.94ZM8.422-8.469H13.3l-2.449-7.876Zm28.992.156a10.177,10.177,0,0,1-1.77,6.278A5.676,5.676,0,0,1,30.864.312a4.865,4.865,0,0,1-3.821-1.7V6.488H21.787V-16.875H26.7l.156,1.56a4.865,4.865,0,0,1,3.977-1.872,5.721,5.721,0,0,1,4.851,2.3,10.3,10.3,0,0,1,1.731,6.324ZM32.158-8.64q0-4.492-2.62-4.492a2.474,2.474,0,0,0-2.5,1.341v6.644a2.554,2.554,0,0,0,2.527,1.4q2.511,0,2.589-4.336ZM55.4-8.313a10.177,10.177,0,0,1-1.77,6.278A5.676,5.676,0,0,1,48.847.312a4.865,4.865,0,0,1-3.821-1.7V6.488H39.77V-16.875h4.913l.156,1.56a4.865,4.865,0,0,1,3.977-1.872,5.721,5.721,0,0,1,4.851,2.3A10.3,10.3,0,0,1,55.4-8.562ZM50.141-8.64q0-4.492-2.62-4.492a2.474,2.474,0,0,0-2.5,1.341v6.644a2.554,2.554,0,0,0,2.527,1.4q2.511,0,2.589-4.336Zm16.408,3.9a1.214,1.214,0,0,0-.7-1.076A10.676,10.676,0,0,0,63.18-6.66a12.162,12.162,0,0,1-3.244-1.146,5.434,5.434,0,0,1-1.95-1.723,4.115,4.115,0,0,1-.671-2.324,4.664,4.664,0,0,1,1.918-3.829,7.9,7.9,0,0,1,5.022-1.505,8.755,8.755,0,0,1,5.365,1.513A4.731,4.731,0,0,1,71.649-11.7H66.377q0-2.028-2.137-2.028a2.118,2.118,0,0,0-1.388.46,1.425,1.425,0,0,0-.561,1.146,1.308,1.308,0,0,0,.686,1.139,6.484,6.484,0,0,0,2.191.717,18.936,18.936,0,0,1,2.644.671q3.806,1.31,3.806,4.695a4.42,4.42,0,0,1-2.051,3.759A8.994,8.994,0,0,1,64.256.312a9.178,9.178,0,0,1-3.868-.78,6.468,6.468,0,0,1-2.651-2.121,4.8,4.8,0,0,1-.951-2.823H61.7a2.031,2.031,0,0,0,.78,1.708,3.208,3.208,0,0,0,1.918.538A2.523,2.523,0,0,0,66.011-3.6,1.4,1.4,0,0,0,66.549-4.741Z" transform="translate(365.896 1396.369)" fill="#fff"/>
    <path id="Trazado_234535" data-name="Trazado 234535" d="M26.788-20.422,35.5-55.1H53.576L35.6,0H18.079L.1-55.1h18.13Zm60.757,4.94A3.965,3.965,0,0,0,85.253-19q-2.292-1.324-8.709-2.75a39.711,39.711,0,0,1-10.593-3.743,17.744,17.744,0,0,1-6.366-5.627A13.438,13.438,0,0,1,57.4-38.7a15.23,15.23,0,0,1,6.264-12.5q6.264-4.914,16.4-4.915,10.9,0,17.519,4.94A15.448,15.448,0,0,1,104.2-38.2H86.984q0-6.621-6.977-6.621a6.916,6.916,0,0,0-4.533,1.5,4.652,4.652,0,0,0-1.833,3.743,4.27,4.27,0,0,0,2.241,3.718,21.173,21.173,0,0,0,7.155,2.343,61.834,61.834,0,0,1,8.632,2.19Q104.1-27.043,104.1-15.991q0,7.537-6.7,12.274T80.058,1.019a29.97,29.97,0,0,1-12.63-2.546A21.12,21.12,0,0,1,58.77-8.454a15.684,15.684,0,0,1-3.107-9.218H71.706q.1,3.82,2.546,5.577a10.474,10.474,0,0,0,6.264,1.757,8.24,8.24,0,0,0,5.271-1.426A4.562,4.562,0,0,0,87.544-15.482Zm35.191-1.171a9.77,9.77,0,0,1,6.773,2.419,7.937,7.937,0,0,1,2.7,6.188,7.937,7.937,0,0,1-2.7,6.188A9.77,9.77,0,0,1,122.735.56a9.687,9.687,0,0,1-6.8-2.445,7.993,7.993,0,0,1-2.674-6.162,7.993,7.993,0,0,1,2.674-6.162A9.687,9.687,0,0,1,122.735-16.653Z" transform="translate(654.633 1395.254)" fill="#efefef"/>
    <path id="Trazado_234536" data-name="Trazado 234536" d="M6.314-17.611,10.837-4.838l4.5-12.773H20.1V0H16.462V-4.814l.363-8.309L12.071,0H9.579L4.838-13.111l.363,8.3V0H1.572V-17.611ZM30.625,0a3.882,3.882,0,0,1-.351-1.173,4.23,4.23,0,0,1-3.3,1.415A4.647,4.647,0,0,1,23.785-.871a3.579,3.579,0,0,1-1.264-2.806A3.7,3.7,0,0,1,24.064-6.87a7.61,7.61,0,0,1,4.457-1.125h1.609v-.75a2.157,2.157,0,0,0-.466-1.451,1.832,1.832,0,0,0-1.47-.544,2.083,2.083,0,0,0-1.385.423,1.438,1.438,0,0,0-.5,1.161h-3.5a3.511,3.511,0,0,1,.7-2.1A4.637,4.637,0,0,1,25.5-12.779a7.229,7.229,0,0,1,2.879-.55,5.712,5.712,0,0,1,3.84,1.216A4.252,4.252,0,0,1,33.637-8.7v5.673a6.257,6.257,0,0,0,.52,2.818V0ZM27.734-2.431a3.011,3.011,0,0,0,1.427-.345,2.264,2.264,0,0,0,.968-.925v-2.25H28.823q-2.625,0-2.794,1.814l-.012.206a1.4,1.4,0,0,0,.46,1.076A1.785,1.785,0,0,0,27.734-2.431Zm1.33-16.147h3.81l-3.35,3.75H26.682ZM35.778-6.664a7.823,7.823,0,0,1,1.373-4.874,4.488,4.488,0,0,1,3.768-1.79,4.018,4.018,0,0,1,3.35,1.609l.23-1.367h3.072V5.032H44.063V-1.125A4.03,4.03,0,0,1,40.894.242a4.455,4.455,0,0,1-3.725-1.814A8.206,8.206,0,0,1,35.778-6.664Zm3.5.248a5.132,5.132,0,0,0,.659,2.859,2.11,2.11,0,0,0,1.857.981A2.351,2.351,0,0,0,44.063-3.86V-9.275a2.331,2.331,0,0,0-2.25-1.236,2.136,2.136,0,0,0-1.875.981A5.667,5.667,0,0,0,39.273-6.416ZM58.154-1.33A4.384,4.384,0,0,1,54.574.242a4.134,4.134,0,0,1-3.211-1.21,5.163,5.163,0,0,1-1.131-3.544v-8.576h3.5v8.464q0,2.046,1.863,2.046a2.524,2.524,0,0,0,2.443-1.235v-9.276h3.508V0h-3.29ZM67.867,0H64.359V-13.087h3.508ZM64.153-16.474a1.721,1.721,0,0,1,.526-1.294,1.977,1.977,0,0,1,1.433-.508,1.981,1.981,0,0,1,1.427.508,1.711,1.711,0,0,1,.532,1.294,1.716,1.716,0,0,1-.538,1.306,1.986,1.986,0,0,1-1.421.508,1.986,1.986,0,0,1-1.421-.508A1.716,1.716,0,0,1,64.153-16.474Zm9.809,3.387.109,1.512a4.569,4.569,0,0,1,3.762-1.754,3.8,3.8,0,0,1,3.1,1.222,5.7,5.7,0,0,1,1.04,3.653V0h-3.5V-8.37a2.268,2.268,0,0,0-.484-1.615,2.166,2.166,0,0,0-1.609-.5,2.4,2.4,0,0,0-2.213,1.258V0h-3.5V-13.087ZM92.2,0a3.882,3.882,0,0,1-.351-1.173,4.229,4.229,0,0,1-3.3,1.415A4.647,4.647,0,0,1,85.362-.871,3.579,3.579,0,0,1,84.1-3.677,3.7,3.7,0,0,1,85.641-6.87,7.61,7.61,0,0,1,90.1-7.995h1.609v-.75a2.157,2.157,0,0,0-.466-1.451,1.832,1.832,0,0,0-1.47-.544,2.083,2.083,0,0,0-1.385.423,1.438,1.438,0,0,0-.5,1.161h-3.5a3.511,3.511,0,0,1,.7-2.1,4.637,4.637,0,0,1,1.984-1.518,7.229,7.229,0,0,1,2.879-.55,5.712,5.712,0,0,1,3.84,1.216A4.252,4.252,0,0,1,95.214-8.7v5.673a6.257,6.257,0,0,0,.52,2.818V0ZM89.311-2.431a3.011,3.011,0,0,0,1.427-.345,2.264,2.264,0,0,0,.968-.925v-2.25H90.4q-2.625,0-2.794,1.814l-.012.206a1.4,1.4,0,0,0,.46,1.076A1.785,1.785,0,0,0,89.311-2.431Zm15.675-1.185a1.126,1.126,0,0,0-.635-1.01,7.213,7.213,0,0,0-2.038-.659q-4.669-.98-4.669-3.967a3.6,3.6,0,0,1,1.445-2.909,5.83,5.83,0,0,1,3.78-1.167,6.275,6.275,0,0,1,3.985,1.173,3.7,3.7,0,0,1,1.494,3.048h-3.5a1.691,1.691,0,0,0-.484-1.24,2.047,2.047,0,0,0-1.512-.49,2.092,2.092,0,0,0-1.367.4,1.26,1.26,0,0,0-.484,1.016,1.077,1.077,0,0,0,.55.937,5.662,5.662,0,0,0,1.857.617,15.164,15.164,0,0,1,2.2.587q2.77,1.016,2.77,3.52a3.414,3.414,0,0,1-1.536,2.9A6.626,6.626,0,0,1,102.882.242a6.921,6.921,0,0,1-2.921-.587,4.9,4.9,0,0,1-2-1.609,3.738,3.738,0,0,1-.726-2.207h3.314a1.825,1.825,0,0,0,.689,1.427,2.735,2.735,0,0,0,1.718.5,2.531,2.531,0,0,0,1.518-.381A1.186,1.186,0,0,0,104.987-3.616ZM117.759,0V-10.523h-1.947v-2.564h1.947V-14.2a4.518,4.518,0,0,1,1.264-3.417,4.9,4.9,0,0,1,3.538-1.216,8.172,8.172,0,0,1,1.778.242l-.036,2.709a4.456,4.456,0,0,0-1.064-.109q-1.972,0-1.972,1.851v1.052h2.6v2.564h-2.6V0Zm11.7,0h-3.5V-13.087h3.5Zm-1.028-18.4h3.81l-3.35,3.75h-2.842Zm11.128,14.78a1.126,1.126,0,0,0-.635-1.01,7.213,7.213,0,0,0-2.038-.659q-4.669-.98-4.669-3.967a3.6,3.6,0,0,1,1.445-2.909,5.831,5.831,0,0,1,3.78-1.167,6.275,6.275,0,0,1,3.985,1.173,3.7,3.7,0,0,1,1.494,3.048h-3.5a1.691,1.691,0,0,0-.484-1.24,2.047,2.047,0,0,0-1.512-.49,2.092,2.092,0,0,0-1.367.4,1.26,1.26,0,0,0-.484,1.016,1.077,1.077,0,0,0,.55.937,5.662,5.662,0,0,0,1.857.617,15.164,15.164,0,0,1,2.2.587q2.77,1.016,2.77,3.52a3.414,3.414,0,0,1-1.536,2.9A6.626,6.626,0,0,1,137.451.242a6.921,6.921,0,0,1-2.921-.587,4.9,4.9,0,0,1-2-1.609,3.738,3.738,0,0,1-.726-2.207h3.314a1.825,1.825,0,0,0,.689,1.427,2.735,2.735,0,0,0,1.718.5,2.531,2.531,0,0,0,1.518-.381A1.186,1.186,0,0,0,139.555-3.616ZM148.893,0h-3.508V-13.087h3.508Zm-3.713-16.474a1.721,1.721,0,0,1,.526-1.294,1.977,1.977,0,0,1,1.433-.508,1.981,1.981,0,0,1,1.427.508,1.711,1.711,0,0,1,.532,1.294,1.716,1.716,0,0,1-.538,1.306,1.986,1.986,0,0,1-1.421.508,1.986,1.986,0,0,1-1.421-.508A1.716,1.716,0,0,1,145.179-16.474Zm12.035,13.9a2.293,2.293,0,0,0,1.572-.532,1.865,1.865,0,0,0,.629-1.415h3.278a4.484,4.484,0,0,1-.726,2.437,4.789,4.789,0,0,1-1.953,1.718,6.113,6.113,0,0,1-2.74.611,5.682,5.682,0,0,1-4.427-1.784,7.06,7.06,0,0,1-1.621-4.929V-6.7a6.979,6.979,0,0,1,1.609-4.826,5.615,5.615,0,0,1,4.415-1.8,5.5,5.5,0,0,1,3.937,1.4,4.946,4.946,0,0,1,1.506,3.719h-3.278a2.4,2.4,0,0,0-.629-1.66,2.1,2.1,0,0,0-1.6-.638,2.105,2.105,0,0,0-1.845.89,5.16,5.16,0,0,0-.623,2.889v.363a5.225,5.225,0,0,0,.617,2.907A2.132,2.132,0,0,0,157.214-2.576ZM172.273,0a3.882,3.882,0,0,1-.351-1.173,4.23,4.23,0,0,1-3.3,1.415,4.647,4.647,0,0,1-3.187-1.113,3.579,3.579,0,0,1-1.264-2.806,3.7,3.7,0,0,1,1.542-3.193,7.61,7.61,0,0,1,4.457-1.125h1.609v-.75a2.157,2.157,0,0,0-.466-1.451,1.832,1.832,0,0,0-1.47-.544,2.083,2.083,0,0,0-1.385.423,1.438,1.438,0,0,0-.5,1.161h-3.5a3.511,3.511,0,0,1,.7-2.1,4.637,4.637,0,0,1,1.984-1.518,7.229,7.229,0,0,1,2.879-.55,5.712,5.712,0,0,1,3.84,1.216A4.252,4.252,0,0,1,175.285-8.7v5.673a6.257,6.257,0,0,0,.52,2.818V0Zm-2.891-2.431a3.011,3.011,0,0,0,1.427-.345,2.264,2.264,0,0,0,.968-.925v-2.25h-1.306q-2.625,0-2.794,1.814l-.012.206a1.4,1.4,0,0,0,.46,1.076A1.785,1.785,0,0,0,169.382-2.431Zm15.675-1.185a1.126,1.126,0,0,0-.635-1.01,7.213,7.213,0,0,0-2.038-.659q-4.669-.98-4.669-3.967a3.6,3.6,0,0,1,1.445-2.909,5.831,5.831,0,0,1,3.78-1.167,6.275,6.275,0,0,1,3.985,1.173,3.7,3.7,0,0,1,1.494,3.048h-3.5a1.691,1.691,0,0,0-.484-1.24,2.047,2.047,0,0,0-1.512-.49,2.092,2.092,0,0,0-1.367.4,1.26,1.26,0,0,0-.484,1.016,1.077,1.077,0,0,0,.55.937,5.662,5.662,0,0,0,1.857.617,15.164,15.164,0,0,1,2.2.587q2.77,1.016,2.77,3.52a3.414,3.414,0,0,1-1.536,2.9A6.626,6.626,0,0,1,182.953.242a6.921,6.921,0,0,1-2.921-.587,4.9,4.9,0,0,1-2-1.609,3.738,3.738,0,0,1-.726-2.207h3.314a1.825,1.825,0,0,0,.689,1.427,2.735,2.735,0,0,0,1.718.5,2.531,2.531,0,0,0,1.518-.381A1.186,1.186,0,0,0,185.058-3.616Z" transform="translate(357.179 1259.192)" fill="#161616"/>
    <path id="Trazado_233730" data-name="Trazado 233730" d="M526.252,216.1h95.412a7.313,7.313,0,0,0,7.313-7.313V47.511a7.313,7.313,0,0,0-7.313-7.313H526.252a7.313,7.313,0,0,0-7.313,7.313V208.788a7.313,7.313,0,0,0,7.313,7.313" transform="translate(285 1238)" fill="#161616"/>
    <path id="Trazado_233731" data-name="Trazado 233731" d="M527.751,83.449h92.415a5.329,5.329,0,0,0,5.329-5.329V51.2a5.329,5.329,0,0,0-5.329-5.329H527.751a5.329,5.329,0,0,0-5.329,5.329V78.12a5.329,5.329,0,0,0,5.329,5.329" transform="translate(285 1238)" fill="#e1edff"/>
    <path id="Trazado_233732" data-name="Trazado 233732" d="M565.648,72.548a4.745,4.745,0,1,0,4.745-4.745,4.745,4.745,0,0,0-4.745,4.745" transform="translate(285 1238)" fill="#f8a800"/>
    <path id="Trazado_233733" data-name="Trazado 233733" d="M546.545,72.548A4.745,4.745,0,1,0,551.29,67.8a4.745,4.745,0,0,0-4.745,4.745" transform="translate(285 1238)" fill="#2f077f"/>
    <path id="Trazado_233734" data-name="Trazado 233734" d="M527.441,72.548a4.745,4.745,0,1,0,4.745-4.745,4.745,4.745,0,0,0-4.745,4.745" transform="translate(285 1238)" fill="#59e5f5"/>
    <path id="Trazado_233735" data-name="Trazado 233735" d="M539.833,52.652h11.491a1.17,1.17,0,1,0,0-2.341H539.833a1.17,1.17,0,1,0,0,2.341" transform="translate(285 1238)" fill="#fff"/>
    <path id="Trazado_233736" data-name="Trazado 233736" d="M563.338,52.652h53.8a1.17,1.17,0,0,0,0-2.341h-53.8a1.17,1.17,0,1,0,0,2.341" transform="translate(285 1238)" fill="#fff"/>
    <path id="Trazado_233737" data-name="Trazado 233737" d="M527.751,126.019h92.415a5.329,5.329,0,0,0,5.329-5.329V93.771a5.329,5.329,0,0,0-5.329-5.329H527.751a5.329,5.329,0,0,0-5.329,5.329V120.69a5.329,5.329,0,0,0,5.329,5.329" transform="translate(285 1238)" fill="#e1edff"/>
    <path id="Trazado_233738" data-name="Trazado 233738" d="M539.833,95.221h11.491a1.171,1.171,0,1,0,0-2.341H539.833a1.171,1.171,0,1,0,0,2.341" transform="translate(285 1238)" fill="#fff"/>
    <path id="Trazado_233739" data-name="Trazado 233739" d="M563.338,95.221h53.8a1.171,1.171,0,0,0,0-2.341h-53.8a1.171,1.171,0,1,0,0,2.341" transform="translate(285 1238)" fill="#fff"/>
    <path id="Trazado_234537" data-name="Trazado 234537" d="M0,0H49.621V4.44H0Z" transform="translate(813.864 1341.452)" fill="#a1b3c9"/>
    <path id="Trazado_234538" data-name="Trazado 234538" d="M0,0H49.621V4.44H0Z" transform="translate(813.864 1351.899)" fill="#a1b3c9"/>
    <path id="Trazado_233740" data-name="Trazado 233740" d="M527.751,168.588h92.415a5.329,5.329,0,0,0,5.329-5.329V136.34a5.329,5.329,0,0,0-5.329-5.329H527.751a5.329,5.329,0,0,0-5.329,5.329v26.919a5.329,5.329,0,0,0,5.329,5.329" transform="translate(285 1238)" fill="#e1edff"/>
    <path id="Trazado_233741" data-name="Trazado 233741" d="M539.833,137.791h11.491a1.171,1.171,0,1,0,0-2.341H539.833a1.171,1.171,0,1,0,0,2.341" transform="translate(285 1238)" fill="#fff"/>
    <path id="Trazado_233742" data-name="Trazado 233742" d="M563.338,137.791h53.8a1.171,1.171,0,0,0,0-2.341h-53.8a1.171,1.171,0,1,0,0,2.341" transform="translate(285 1238)" fill="#fff"/>
    <path id="Trazado_234539" data-name="Trazado 234539" d="M0,0H49.621V4.44H0Z" transform="translate(813.864 1384.021)" fill="#a1b3c9"/>
    <path id="Trazado_234540" data-name="Trazado 234540" d="M0,0H49.621V4.44H0Z" transform="translate(813.864 1394.469)" fill="#a1b3c9"/>
    <path id="Trazado_233743" data-name="Trazado 233743" d="M527.751,211.158h92.415a5.329,5.329,0,0,0,5.329-5.329V178.91a5.329,5.329,0,0,0-5.329-5.329H527.751a5.329,5.329,0,0,0-5.329,5.329v26.919a5.329,5.329,0,0,0,5.329,5.329" transform="translate(285 1238)" fill="#e1edff"/>
    <path id="Trazado_233744" data-name="Trazado 233744" d="M546.545,200.257a4.745,4.745,0,1,0,4.745-4.745,4.745,4.745,0,0,0-4.745,4.745" transform="translate(285 1238)" fill="#59e5f5"/>
    <path id="Trazado_233745" data-name="Trazado 233745" d="M527.441,200.257a4.745,4.745,0,1,0,4.745-4.745,4.745,4.745,0,0,0-4.745,4.745" transform="translate(285 1238)" fill="#2f077f"/>
    <path id="Trazado_233746" data-name="Trazado 233746" d="M539.833,180.361h11.491a1.17,1.17,0,1,0,0-2.341H539.833a1.17,1.17,0,1,0,0,2.341" transform="translate(285 1238)" fill="#fff"/>
    <path id="Trazado_233747" data-name="Trazado 233747" d="M563.338,180.361h53.8a1.17,1.17,0,0,0,0-2.341h-53.8a1.17,1.17,0,1,0,0,2.341" transform="translate(285 1238)" fill="#fff"/>
    <path id="Trazado_234541" data-name="Trazado 234541" d="M0,0H184.981V156.1H0Z" transform="translate(928.712 1297.219)" fill="#161616"/>
    <path id="Trazado_234542" data-name="Trazado 234542" d="M0,0H1030V253.862H0Z" transform="translate(285 1238)" fill="none"/>
    <path id="Trazado_234543" data-name="Trazado 234543" d="M0,0H175.615V146.881H0Z" transform="translate(933.394 1301.83)" fill="url(#radial-gradient-2)"/>
    <path id="Trazado_234544" data-name="Trazado 234544" d="M0,0H175.615V146.881H0Z" transform="translate(933.394 1301.83)" fill="none"/>
    <path id="Trazado_234545" data-name="Trazado 234545" d="M0,0H235.454V13.269H0Z" transform="translate(903.475 1440.832)" fill="#161616"/>
    <path id="Trazado_233748" data-name="Trazado 233748" d="M688.721,208.426H713.7a1.17,1.17,0,1,0,0-2.341H688.721a1.17,1.17,0,1,0,0,2.341" transform="translate(285 1238)" fill="#938d8e"/>
    <path id="Trazado_233749" data-name="Trazado 233749" d="M726.707,208.426H837.018a1.17,1.17,0,1,0,0-2.341H726.707a1.17,1.17,0,1,0,0,2.341" transform="translate(285 1238)" fill="#938d8e"/>
    <g id="Grupo_238573" data-name="Grupo 238573" transform="translate(285 1238)">
      <g id="Grupo_238572" data-name="Grupo 238572" clip-path="url(#clip-path-3)">
        <path id="Trazado_233750" data-name="Trazado 233750" d="M680.916,71.447h22.807a1.17,1.17,0,1,0,0-2.341H680.916a1.17,1.17,0,1,0,0,2.341" fill="#fff"/>
      </g>
    </g>
    <g id="Grupo_238576" data-name="Grupo 238576" transform="translate(285 1238)">
      <g id="Grupo_238575" data-name="Grupo 238575" clip-path="url(#clip-path-4)">
        <path id="Trazado_233751" data-name="Trazado 233751" d="M715.6,71.447H816.335a1.17,1.17,0,1,0,0-2.341H715.6a1.17,1.17,0,1,0,0,2.341" fill="#fff"/>
      </g>
    </g>
    <path id="Trazado_234546" data-name="Trazado 234546" d="M0,0H1030V253.862H0Z" transform="translate(285 1238)" fill="none"/>
    <path id="Trazado_234547" data-name="Trazado 234547" d="M20.7,0H15.253V-9.483H7.19V0H1.716V-22.709H7.19v9.015h8.063v-9.015H20.7Zm8.765,0H24.19V-16.875h5.272ZM23.878-21.227a2.346,2.346,0,0,1,.811-1.84,3.06,3.06,0,0,1,2.106-.717,3.06,3.06,0,0,1,2.106.717,2.346,2.346,0,0,1,.811,1.84,2.346,2.346,0,0,1-.811,1.84,3.06,3.06,0,0,1-2.106.717,3.06,3.06,0,0,1-2.106-.717A2.346,2.346,0,0,1,23.878-21.227ZM48.365-8.313a10.177,10.177,0,0,1-1.77,6.278A5.676,5.676,0,0,1,41.814.312a4.865,4.865,0,0,1-3.821-1.7V6.488H32.737V-16.875H37.65l.156,1.56a4.865,4.865,0,0,1,3.977-1.872,5.721,5.721,0,0,1,4.851,2.3,10.3,10.3,0,0,1,1.731,6.324ZM43.109-8.64q0-4.492-2.62-4.492a2.474,2.474,0,0,0-2.5,1.341v6.644a2.554,2.554,0,0,0,2.527,1.4q2.511,0,2.589-4.336ZM58.846.312A8.675,8.675,0,0,1,52.56-2a8,8,0,0,1-2.4-6.028v-.437a10.364,10.364,0,0,1,.959-4.57,7.019,7.019,0,0,1,2.8-3.065,8.452,8.452,0,0,1,4.367-1.084A7.3,7.3,0,0,1,63.9-14.98a8.672,8.672,0,0,1,2.059,6.153v2.043H55.508a3.788,3.788,0,0,0,1.232,2.23,3.666,3.666,0,0,0,2.464.811A4.724,4.724,0,0,0,63.1-5.49l2.4,2.839a6.714,6.714,0,0,1-2.784,2.16A9.408,9.408,0,0,1,58.846.312Zm-.593-13.444q-2.308,0-2.745,3.057h5.3v-.406a2.6,2.6,0,0,0-.639-1.957A2.545,2.545,0,0,0,58.253-13.132Zm20.026,1.014-1.731-.125q-2.48,0-3.182,1.56V0H68.11V-16.875h4.929l.172,2.168a4.07,4.07,0,0,1,3.7-2.48A5.126,5.126,0,0,1,78.373-17Z" transform="translate(982.086 1358.039)" fill="#fff"/>
    <path id="Trazado_234548" data-name="Trazado 234548" d="M8.2-6.254l2.667-10.621h5.537L10.9,0H5.537L.031-16.875H5.584ZM23.52,0H18.248V-16.875H23.52ZM17.936-21.227a2.346,2.346,0,0,1,.811-1.84,3.06,3.06,0,0,1,2.106-.717,3.06,3.06,0,0,1,2.106.717,2.346,2.346,0,0,1,.811,1.84,2.346,2.346,0,0,1-.811,1.84,3.06,3.06,0,0,1-2.106.717,3.06,3.06,0,0,1-2.106-.717A2.346,2.346,0,0,1,17.936-21.227ZM35.591-4.741a1.214,1.214,0,0,0-.7-1.076,10.676,10.676,0,0,0-2.667-.842,12.162,12.162,0,0,1-3.244-1.146,5.434,5.434,0,0,1-1.95-1.723,4.115,4.115,0,0,1-.671-2.324,4.664,4.664,0,0,1,1.918-3.829A7.9,7.9,0,0,1,33.3-17.187a8.755,8.755,0,0,1,5.365,1.513A4.731,4.731,0,0,1,40.691-11.7H35.42q0-2.028-2.137-2.028a2.118,2.118,0,0,0-1.388.46,1.425,1.425,0,0,0-.561,1.146,1.308,1.308,0,0,0,.686,1.139,6.484,6.484,0,0,0,2.191.717,18.936,18.936,0,0,1,2.644.671Q40.66-8.282,40.66-4.9a4.42,4.42,0,0,1-2.051,3.759A8.994,8.994,0,0,1,33.3.312a9.178,9.178,0,0,1-3.868-.78,6.468,6.468,0,0,1-2.651-2.121,4.8,4.8,0,0,1-.951-2.823h4.913a2.031,2.031,0,0,0,.78,1.708,3.208,3.208,0,0,0,1.918.538A2.523,2.523,0,0,0,35.053-3.6,1.4,1.4,0,0,0,35.591-4.741Zm6.862-3.852a9.96,9.96,0,0,1,.983-4.5,7.027,7.027,0,0,1,2.823-3.034,8.5,8.5,0,0,1,4.32-1.061,7.759,7.759,0,0,1,5.973,2.347,9.007,9.007,0,0,1,2.184,6.387v.187A8.739,8.739,0,0,1,56.545-2,7.78,7.78,0,0,1,50.611.312a7.869,7.869,0,0,1-5.786-2.16A8.449,8.449,0,0,1,42.469-7.7Zm5.256.328a6.279,6.279,0,0,0,.733,3.431,2.442,2.442,0,0,0,2.168,1.092q2.807,0,2.87-4.32v-.53q0-4.539-2.9-4.539-2.636,0-2.854,3.915Zm23.551-3.852-1.731-.125q-2.48,0-3.182,1.56V0H61.092V-16.875H66.02l.172,2.168a4.07,4.07,0,0,1,3.7-2.48A5.126,5.126,0,0,1,71.354-17Z" transform="translate(985.6 1396.369)" fill="#fff"/>
    <path id="Trazado_234549" data-name="Trazado 234549" d="M6.314-17.611,10.837-4.838l4.5-12.773H20.1V0H16.462V-4.814l.363-8.309L12.071,0H9.579L4.838-13.111l.363,8.3V0H1.572V-17.611ZM30.625,0a3.882,3.882,0,0,1-.351-1.173,4.23,4.23,0,0,1-3.3,1.415A4.647,4.647,0,0,1,23.785-.871a3.579,3.579,0,0,1-1.264-2.806A3.7,3.7,0,0,1,24.064-6.87a7.61,7.61,0,0,1,4.457-1.125h1.609v-.75a2.157,2.157,0,0,0-.466-1.451,1.832,1.832,0,0,0-1.47-.544,2.083,2.083,0,0,0-1.385.423,1.438,1.438,0,0,0-.5,1.161h-3.5a3.511,3.511,0,0,1,.7-2.1A4.637,4.637,0,0,1,25.5-12.779a7.229,7.229,0,0,1,2.879-.55,5.712,5.712,0,0,1,3.84,1.216A4.252,4.252,0,0,1,33.637-8.7v5.673a6.257,6.257,0,0,0,.52,2.818V0ZM27.734-2.431a3.011,3.011,0,0,0,1.427-.345,2.264,2.264,0,0,0,.968-.925v-2.25H28.823q-2.625,0-2.794,1.814l-.012.206a1.4,1.4,0,0,0,.46,1.076A1.785,1.785,0,0,0,27.734-2.431Zm1.33-16.147h3.81l-3.35,3.75H26.682ZM35.778-6.664a7.823,7.823,0,0,1,1.373-4.874,4.488,4.488,0,0,1,3.768-1.79,4.018,4.018,0,0,1,3.35,1.609l.23-1.367h3.072V5.032H44.063V-1.125A4.03,4.03,0,0,1,40.894.242a4.455,4.455,0,0,1-3.725-1.814A8.206,8.206,0,0,1,35.778-6.664Zm3.5.248a5.132,5.132,0,0,0,.659,2.859,2.11,2.11,0,0,0,1.857.981A2.351,2.351,0,0,0,44.063-3.86V-9.275a2.331,2.331,0,0,0-2.25-1.236,2.136,2.136,0,0,0-1.875.981A5.667,5.667,0,0,0,39.273-6.416ZM58.154-1.33A4.384,4.384,0,0,1,54.574.242a4.134,4.134,0,0,1-3.211-1.21,5.163,5.163,0,0,1-1.131-3.544v-8.576h3.5v8.464q0,2.046,1.863,2.046a2.524,2.524,0,0,0,2.443-1.235v-9.276h3.508V0h-3.29ZM67.867,0H64.359V-13.087h3.508ZM64.153-16.474a1.721,1.721,0,0,1,.526-1.294,1.977,1.977,0,0,1,1.433-.508,1.981,1.981,0,0,1,1.427.508,1.711,1.711,0,0,1,.532,1.294,1.716,1.716,0,0,1-.538,1.306,1.986,1.986,0,0,1-1.421.508,1.986,1.986,0,0,1-1.421-.508A1.716,1.716,0,0,1,64.153-16.474Zm9.809,3.387.109,1.512a4.569,4.569,0,0,1,3.762-1.754,3.8,3.8,0,0,1,3.1,1.222,5.7,5.7,0,0,1,1.04,3.653V0h-3.5V-8.37a2.268,2.268,0,0,0-.484-1.615,2.166,2.166,0,0,0-1.609-.5,2.4,2.4,0,0,0-2.213,1.258V0h-3.5V-13.087ZM92.2,0a3.882,3.882,0,0,1-.351-1.173,4.229,4.229,0,0,1-3.3,1.415A4.647,4.647,0,0,1,85.362-.871,3.579,3.579,0,0,1,84.1-3.677,3.7,3.7,0,0,1,85.641-6.87,7.61,7.61,0,0,1,90.1-7.995h1.609v-.75a2.157,2.157,0,0,0-.466-1.451,1.832,1.832,0,0,0-1.47-.544,2.083,2.083,0,0,0-1.385.423,1.438,1.438,0,0,0-.5,1.161h-3.5a3.511,3.511,0,0,1,.7-2.1,4.637,4.637,0,0,1,1.984-1.518,7.229,7.229,0,0,1,2.879-.55,5.712,5.712,0,0,1,3.84,1.216A4.252,4.252,0,0,1,95.214-8.7v5.673a6.257,6.257,0,0,0,.52,2.818V0ZM89.311-2.431a3.011,3.011,0,0,0,1.427-.345,2.264,2.264,0,0,0,.968-.925v-2.25H90.4q-2.625,0-2.794,1.814l-.012.206a1.4,1.4,0,0,0,.46,1.076A1.785,1.785,0,0,0,89.311-2.431Zm15.675-1.185a1.126,1.126,0,0,0-.635-1.01,7.213,7.213,0,0,0-2.038-.659q-4.669-.98-4.669-3.967a3.6,3.6,0,0,1,1.445-2.909,5.83,5.83,0,0,1,3.78-1.167,6.275,6.275,0,0,1,3.985,1.173,3.7,3.7,0,0,1,1.494,3.048h-3.5a1.691,1.691,0,0,0-.484-1.24,2.047,2.047,0,0,0-1.512-.49,2.092,2.092,0,0,0-1.367.4,1.26,1.26,0,0,0-.484,1.016,1.077,1.077,0,0,0,.55.937,5.662,5.662,0,0,0,1.857.617,15.164,15.164,0,0,1,2.2.587q2.77,1.016,2.77,3.52a3.414,3.414,0,0,1-1.536,2.9A6.626,6.626,0,0,1,102.882.242a6.921,6.921,0,0,1-2.921-.587,4.9,4.9,0,0,1-2-1.609,3.738,3.738,0,0,1-.726-2.207h3.314a1.825,1.825,0,0,0,.689,1.427,2.735,2.735,0,0,0,1.718.5,2.531,2.531,0,0,0,1.518-.381A1.186,1.186,0,0,0,104.987-3.616ZM121.7-4.27l2.431-8.817h3.653L123.372,0h-3.338l-4.415-13.087h3.653ZM133.012,0H129.5V-13.087h3.508ZM129.3-16.474a1.721,1.721,0,0,1,.526-1.294,1.977,1.977,0,0,1,1.433-.508,1.981,1.981,0,0,1,1.427.508,1.711,1.711,0,0,1,.532,1.294,1.716,1.716,0,0,1-.538,1.306,1.986,1.986,0,0,1-1.421.508,1.986,1.986,0,0,1-1.421-.508A1.716,1.716,0,0,1,129.3-16.474Zm13.946,6.664a9.5,9.5,0,0,0-1.258-.1,2.56,2.56,0,0,0-2.6,1.343V0h-3.5V-13.087h3.3l.1,1.56a3.239,3.239,0,0,1,2.915-1.8,3.663,3.663,0,0,1,1.089.157Zm7.065-6.5v3.217h2.238v2.564H150.31v6.531a1.56,1.56,0,0,0,.278,1.04,1.4,1.4,0,0,0,1.064.314,5.575,5.575,0,0,0,1.028-.085V-.073a7.2,7.2,0,0,1-2.117.314q-3.677,0-3.75-3.713v-7.052H144.9v-2.564h1.911V-16.3ZM162.332-1.33a4.384,4.384,0,0,1-3.58,1.572,4.134,4.134,0,0,1-3.211-1.21,5.163,5.163,0,0,1-1.131-3.544v-8.576h3.5v8.464q0,2.046,1.863,2.046a2.524,2.524,0,0,0,2.443-1.235v-9.276h3.508V0h-3.29ZM175.94,0a3.882,3.882,0,0,1-.351-1.173,4.23,4.23,0,0,1-3.3,1.415A4.647,4.647,0,0,1,169.1-.871a3.579,3.579,0,0,1-1.264-2.806,3.7,3.7,0,0,1,1.542-3.193,7.61,7.61,0,0,1,4.457-1.125h1.609v-.75a2.157,2.157,0,0,0-.466-1.451,1.832,1.832,0,0,0-1.47-.544,2.083,2.083,0,0,0-1.385.423,1.438,1.438,0,0,0-.5,1.161h-3.5a3.511,3.511,0,0,1,.7-2.1,4.637,4.637,0,0,1,1.984-1.518,7.229,7.229,0,0,1,2.879-.55,5.712,5.712,0,0,1,3.84,1.216A4.252,4.252,0,0,1,178.951-8.7v5.673a6.257,6.257,0,0,0,.52,2.818V0Zm-2.891-2.431a3.011,3.011,0,0,0,1.427-.345,2.264,2.264,0,0,0,.968-.925v-2.25h-1.306q-2.625,0-2.794,1.814l-.012.206a1.4,1.4,0,0,0,.46,1.076A1.785,1.785,0,0,0,173.049-2.431ZM185.325,0h-3.508V-18.578h3.508Zm8.9.242a6.425,6.425,0,0,1-4.687-1.766,6.277,6.277,0,0,1-1.808-4.705v-.339a7.906,7.906,0,0,1,.762-3.526,5.592,5.592,0,0,1,2.159-2.395,6.06,6.06,0,0,1,3.187-.841,5.431,5.431,0,0,1,4.227,1.693,6.881,6.881,0,0,1,1.542,4.8v1.427h-8.334A3.247,3.247,0,0,0,192.3-3.35a3.09,3.09,0,0,0,2.159.774,3.773,3.773,0,0,0,3.157-1.464l1.718,1.923A5.247,5.247,0,0,1,197.2-.381,6.984,6.984,0,0,1,194.228.242Zm-.4-10.753a2.184,2.184,0,0,0-1.687.7,3.649,3.649,0,0,0-.829,2.017h4.862v-.28a2.6,2.6,0,0,0-.629-1.8A2.254,2.254,0,0,0,193.828-10.511Zm14.853,6.894a1.126,1.126,0,0,0-.635-1.01,7.213,7.213,0,0,0-2.038-.659q-4.669-.98-4.669-3.967a3.6,3.6,0,0,1,1.445-2.909,5.831,5.831,0,0,1,3.78-1.167,6.275,6.275,0,0,1,3.985,1.173,3.7,3.7,0,0,1,1.494,3.048h-3.5a1.691,1.691,0,0,0-.484-1.24,2.047,2.047,0,0,0-1.512-.49,2.092,2.092,0,0,0-1.367.4,1.26,1.26,0,0,0-.484,1.016,1.077,1.077,0,0,0,.55.937,5.662,5.662,0,0,0,1.857.617,15.164,15.164,0,0,1,2.2.587q2.77,1.016,2.77,3.52a3.414,3.414,0,0,1-1.536,2.9A6.626,6.626,0,0,1,206.577.242a6.921,6.921,0,0,1-2.921-.587,4.9,4.9,0,0,1-2-1.609,3.738,3.738,0,0,1-.726-2.207h3.314a1.825,1.825,0,0,0,.689,1.427,2.735,2.735,0,0,0,1.718.5,2.531,2.531,0,0,0,1.518-.381A1.186,1.186,0,0,0,208.681-3.616Z" transform="translate(862.012 1259.192)" fill="#161616"/>
    <path id="Trazado_233752" data-name="Trazado 233752" d="M1027.425,84.2h-33.6a2.575,2.575,0,0,1-2.575-2.575V24.836a2.575,2.575,0,0,1,2.575-2.575h33.6A2.575,2.575,0,0,1,1030,24.836V81.622a2.575,2.575,0,0,1-2.575,2.575" transform="translate(285 1238)" fill="#161616"/>
    <path id="Trazado_233753" data-name="Trazado 233753" d="M1026.9,37.49h-32.54a1.876,1.876,0,0,1-1.876-1.876V26.135a1.876,1.876,0,0,1,1.876-1.876h32.54a1.877,1.877,0,0,1,1.876,1.876v9.479a1.877,1.877,0,0,1-1.876,1.876" transform="translate(285 1238)" fill="#e1edff"/>
    <path id="Trazado_233754" data-name="Trazado 233754" d="M1013.554,33.651a1.671,1.671,0,1,1-1.671-1.671,1.671,1.671,0,0,1,1.671,1.671" transform="translate(285 1238)" fill="#f8a800"/>
    <path id="Trazado_233755" data-name="Trazado 233755" d="M1020.28,33.651a1.671,1.671,0,1,1-1.671-1.671,1.671,1.671,0,0,1,1.671,1.671" transform="translate(285 1238)" fill="#2f077f"/>
    <path id="Trazado_233756" data-name="Trazado 233756" d="M1027.007,33.651a1.67,1.67,0,1,1-1.671-1.671,1.671,1.671,0,0,1,1.671,1.671" transform="translate(285 1238)" fill="#59e5f5"/>
    <path id="Trazado_233757" data-name="Trazado 233757" d="M1022.643,26.646H1018.6a.412.412,0,0,1,0-.824h4.046a.412.412,0,0,1,0,.824" transform="translate(285 1238)" fill="#fff"/>
    <path id="Trazado_233758" data-name="Trazado 233758" d="M1014.367,26.646H995.424a.412.412,0,0,1,0-.824h18.943a.412.412,0,0,1,0,.824" transform="translate(285 1238)" fill="#fff"/>
    <path id="Trazado_233759" data-name="Trazado 233759" d="M1026.9,52.479h-32.54a1.876,1.876,0,0,1-1.876-1.876V41.124a1.876,1.876,0,0,1,1.876-1.876h32.54a1.877,1.877,0,0,1,1.876,1.876V50.6a1.877,1.877,0,0,1-1.876,1.876" transform="translate(285 1238)" fill="#e1edff"/>
    <path id="Trazado_233760" data-name="Trazado 233760" d="M1022.643,41.635H1018.6a.412.412,0,0,1,0-.824h4.046a.412.412,0,0,1,0,.824" transform="translate(285 1238)" fill="#fff"/>
    <path id="Trazado_233761" data-name="Trazado 233761" d="M1014.367,41.635H995.424a.412.412,0,0,1,0-.824h18.943a.412.412,0,0,1,0,.824" transform="translate(285 1238)" fill="#fff"/>
    <path id="Trazado_234550" data-name="Trazado 234550" d="M0,0H17.472V1.563H0Z" transform="translate(1294.034 1282.533)" fill="#a1b3c9"/>
    <path id="Trazado_234551" data-name="Trazado 234551" d="M0,0H17.472V1.563H0Z" transform="translate(1294.034 1286.211)" fill="#a1b3c9"/>
    <path id="Trazado_233762" data-name="Trazado 233762" d="M1026.9,67.467h-32.54a1.875,1.875,0,0,1-1.876-1.875V56.113a1.876,1.876,0,0,1,1.876-1.876h32.54a1.877,1.877,0,0,1,1.876,1.876v9.479a1.876,1.876,0,0,1-1.876,1.875" transform="translate(285 1238)" fill="#e1edff"/>
    <path id="Trazado_233763" data-name="Trazado 233763" d="M1022.643,56.624H1018.6a.412.412,0,0,1,0-.824h4.046a.412.412,0,0,1,0,.824" transform="translate(285 1238)" fill="#fff"/>
    <path id="Trazado_233764" data-name="Trazado 233764" d="M1014.367,56.624H995.424a.412.412,0,0,1,0-.824h18.943a.412.412,0,0,1,0,.824" transform="translate(285 1238)" fill="#fff"/>
    <path id="Trazado_234552" data-name="Trazado 234552" d="M0,0H17.472V1.563H0Z" transform="translate(1294.034 1297.521)" fill="#a1b3c9"/>
    <path id="Trazado_234553" data-name="Trazado 234553" d="M0,0H17.472V1.563H0Z" transform="translate(1294.034 1301.2)" fill="#a1b3c9"/>
    <path id="Trazado_233765" data-name="Trazado 233765" d="M1026.9,82.456h-32.54a1.875,1.875,0,0,1-1.876-1.875V71.1a1.876,1.876,0,0,1,1.876-1.876h32.54a1.877,1.877,0,0,1,1.876,1.876v9.479a1.876,1.876,0,0,1-1.876,1.875" transform="translate(285 1238)" fill="#e1edff"/>
    <path id="Trazado_233766" data-name="Trazado 233766" d="M1020.28,78.618a1.671,1.671,0,1,1-1.671-1.671,1.671,1.671,0,0,1,1.671,1.671" transform="translate(285 1238)" fill="#59e5f5"/>
    <path id="Trazado_233767" data-name="Trazado 233767" d="M1027.007,78.618a1.67,1.67,0,1,1-1.671-1.671,1.671,1.671,0,0,1,1.671,1.671" transform="translate(285 1238)" fill="#2f077f"/>
    <path id="Trazado_233768" data-name="Trazado 233768" d="M1022.643,71.613H1018.6a.412.412,0,0,1,0-.824h4.046a.412.412,0,0,1,0,.824" transform="translate(285 1238)" fill="#fff"/>
    <path id="Trazado_233769" data-name="Trazado 233769" d="M1014.367,71.613H995.424a.412.412,0,0,1,0-.824h18.943a.412.412,0,0,1,0,.824" transform="translate(285 1238)" fill="#fff"/>
    <path id="Trazado_234554" data-name="Trazado 234554" d="M0,0H65.133V54.964H0Z" transform="translate(1205.934 1266.958)" fill="#161616"/>
    <path id="Trazado_234555" data-name="Trazado 234555" d="M0,0H1030V253.862H0Z" transform="translate(285 1238)" fill="none"/>
    <path id="Trazado_234556" data-name="Trazado 234556" d="M0,0H61.835V51.718H0Z" transform="translate(1207.584 1268.581)" fill="url(#radial-gradient-3)"/>
    <path id="Trazado_234557" data-name="Trazado 234557" d="M0,0H61.835V51.718H0Z" transform="translate(1207.584 1268.581)" fill="none"/>
    <path id="Trazado_234558" data-name="Trazado 234558" d="M0,0H82.9V4.672H0Z" transform="translate(1197.049 1317.525)" fill="#161616"/>
    <path id="Trazado_233770" data-name="Trazado 233770" d="M970.219,81.5h-8.794a.412.412,0,0,1,0-.824h8.794a.412.412,0,0,1,0,.824" transform="translate(285 1238)" fill="#938d8e"/>
    <path id="Trazado_233771" data-name="Trazado 233771" d="M956.844,81.5H918a.412.412,0,0,1,0-.824h38.841a.412.412,0,0,1,0,.824" transform="translate(285 1238)" fill="#938d8e"/>
    <g id="Grupo_238585" data-name="Grupo 238585" transform="translate(285 1238)">
      <g id="Grupo_238584" data-name="Grupo 238584" clip-path="url(#clip-path-5)">
        <path id="Trazado_233772" data-name="Trazado 233772" d="M972.968,33.264h-8.03a.412.412,0,1,1,0-.824h8.03a.412.412,0,0,1,0,.824" fill="#fff"/>
      </g>
    </g>
    <g id="Grupo_238588" data-name="Grupo 238588" transform="translate(285 1238)">
      <g id="Grupo_238587" data-name="Grupo 238587" clip-path="url(#clip-path-6)">
        <path id="Trazado_233773" data-name="Trazado 233773" d="M960.754,33.264H925.286a.412.412,0,0,1,0-.824h35.468a.412.412,0,0,1,0,.824" fill="#fff"/>
      </g>
    </g>
    <path id="Trazado_234559" data-name="Trazado 234559" d="M0,0H1030V253.862H0Z" transform="translate(285 1238)" fill="none"/>
    <path id="Trazado_234560" data-name="Trazado 234560" d="M7.375-3.833a4.715,4.715,0,0,1-.434,2.07A3.206,3.206,0,0,1,5.709-.376,3.433,3.433,0,0,1,3.888.11,3.481,3.481,0,0,1,2.076-.36,3.2,3.2,0,0,1,.843-1.7a4.579,4.579,0,0,1-.464-2v-.45A4.736,4.736,0,0,1,.81-6.23,3.2,3.2,0,0,1,2.046-7.617a3.457,3.457,0,0,1,1.831-.489,3.423,3.423,0,0,1,1.812.483A3.256,3.256,0,0,1,6.928-6.247,4.6,4.6,0,0,1,7.375-4.2ZM5.415-4.168a3.362,3.362,0,0,0-.4-1.809A1.277,1.277,0,0,0,3.877-6.6q-1.45,0-1.532,2.175l-.005.588a3.458,3.458,0,0,0,.39,1.807,1.275,1.275,0,0,0,1.159.632,1.26,1.26,0,0,0,1.126-.621,3.364,3.364,0,0,0,.4-1.785ZM8.1-1.8a1.054,1.054,0,0,1,.73.261.856.856,0,0,1,.291.667A.856.856,0,0,1,8.826-.2,1.054,1.054,0,0,1,8.1.06,1.045,1.045,0,0,1,7.362-.2a.862.862,0,0,1-.288-.664.862.862,0,0,1,.288-.664A1.045,1.045,0,0,1,8.1-1.8Zm6.464-.329a.792.792,0,0,0-.3-.659,3.72,3.72,0,0,0-1.052-.489,10.089,10.089,0,0,1-1.23-.489,2.33,2.33,0,0,1-1.554-2.1,1.881,1.881,0,0,1,.387-1.172,2.5,2.5,0,0,1,1.1-.791A4.263,4.263,0,0,1,13.5-8.106a3.729,3.729,0,0,1,1.546.308,2.448,2.448,0,0,1,1.063.876,2.287,2.287,0,0,1,.379,1.3H14.565a.967.967,0,0,0-.3-.758,1.167,1.167,0,0,0-.81-.269,1.316,1.316,0,0,0-.816.228.7.7,0,0,0-.3.579.7.7,0,0,0,.329.557,4.155,4.155,0,0,0,1.159.516,7.1,7.1,0,0,1,1.362.574,2.289,2.289,0,0,1,1.3,2.059A1.952,1.952,0,0,1,15.7-.489a3.517,3.517,0,0,1-2.169.6,4.3,4.3,0,0,1-1.76-.349,2.654,2.654,0,0,1-1.186-.956,2.49,2.49,0,0,1-.4-1.4h1.933a1.226,1.226,0,0,0,.332.947,1.57,1.57,0,0,0,1.079.3,1.241,1.241,0,0,0,.755-.206A.68.68,0,0,0,14.559-2.125Zm3.976.329a1.054,1.054,0,0,1,.73.261.856.856,0,0,1,.291.667.856.856,0,0,1-.291.667,1.054,1.054,0,0,1-.73.261A1.045,1.045,0,0,1,17.8-.2a.862.862,0,0,1-.288-.664.862.862,0,0,1,.288-.664A1.045,1.045,0,0,1,18.535-1.8Z" transform="translate(1227.973 1288.374)" fill="#fff"/>
    <path id="Trazado_234561" data-name="Trazado 234561" d="M5.146-1.494H2.5L2.043,0H-.016L2.916-8H4.728L7.683,0H5.612ZM2.965-2.982H4.684L3.822-5.755Zm10.208.055a3.583,3.583,0,0,1-.623,2.21A2,2,0,0,1,10.867.11a1.713,1.713,0,0,1-1.345-.6V2.285H7.671V-5.942H9.4l.055.549a1.713,1.713,0,0,1,1.4-.659,2.015,2.015,0,0,1,1.708.81,3.627,3.627,0,0,1,.61,2.227Zm-1.851-.115q0-1.582-.923-1.582a.871.871,0,0,0-.879.472v2.339a.9.9,0,0,0,.89.494q.884,0,.912-1.527Zm8.182.115a3.583,3.583,0,0,1-.623,2.21A2,2,0,0,1,17.2.11a1.713,1.713,0,0,1-1.345-.6V2.285H14V-5.942h1.73l.055.549a1.713,1.713,0,0,1,1.4-.659,2.015,2.015,0,0,1,1.708.81,3.627,3.627,0,0,1,.61,2.227Zm-1.851-.115q0-1.582-.923-1.582a.871.871,0,0,0-.879.472v2.339a.9.9,0,0,0,.89.494q.884,0,.912-1.527Zm5.777,1.373a.428.428,0,0,0-.247-.379,3.759,3.759,0,0,0-.939-.3,4.282,4.282,0,0,1-1.142-.4,1.913,1.913,0,0,1-.686-.607,1.449,1.449,0,0,1-.236-.818,1.642,1.642,0,0,1,.675-1.348,2.782,2.782,0,0,1,1.768-.53,3.083,3.083,0,0,1,1.889.533,1.666,1.666,0,0,1,.714,1.4H23.372q0-.714-.752-.714a.746.746,0,0,0-.489.162.5.5,0,0,0-.2.4.46.46,0,0,0,.242.4,2.283,2.283,0,0,0,.772.253,6.668,6.668,0,0,1,.931.236,1.691,1.691,0,0,1,1.34,1.653A1.556,1.556,0,0,1,24.495-.4a3.167,3.167,0,0,1-1.87.511,3.232,3.232,0,0,1-1.362-.275,2.277,2.277,0,0,1-.934-.747,1.691,1.691,0,0,1-.335-.994h1.73A.715.715,0,0,0,22-1.3a1.129,1.129,0,0,0,.675.189.889.889,0,0,0,.568-.154A.492.492,0,0,0,23.432-1.669Z" transform="translate(1225.532 1301.87)" fill="#fff"/>
    <path id="Trazado_233774" data-name="Trazado 233774" d="M1027.425,169.03h-33.6a2.575,2.575,0,0,1-2.575-2.575V109.669a2.575,2.575,0,0,1,2.575-2.575h33.6a2.575,2.575,0,0,1,2.575,2.575v56.786a2.575,2.575,0,0,1-2.575,2.575" transform="translate(285 1238)" fill="#161616"/>
    <path id="Trazado_233775" data-name="Trazado 233775" d="M1026.9,122.322h-32.54a1.876,1.876,0,0,1-1.876-1.876v-9.479a1.876,1.876,0,0,1,1.876-1.876h32.54a1.877,1.877,0,0,1,1.876,1.876v9.479a1.877,1.877,0,0,1-1.876,1.876" transform="translate(285 1238)" fill="#e1edff"/>
    <path id="Trazado_233776" data-name="Trazado 233776" d="M1013.554,118.484a1.671,1.671,0,1,1-1.671-1.671,1.671,1.671,0,0,1,1.671,1.671" transform="translate(285 1238)" fill="#f8a800"/>
    <path id="Trazado_233777" data-name="Trazado 233777" d="M1020.28,118.484a1.671,1.671,0,1,1-1.671-1.671,1.671,1.671,0,0,1,1.671,1.671" transform="translate(285 1238)" fill="#2f077f"/>
    <path id="Trazado_233778" data-name="Trazado 233778" d="M1027.007,118.484a1.67,1.67,0,1,1-1.671-1.671,1.671,1.671,0,0,1,1.671,1.671" transform="translate(285 1238)" fill="#59e5f5"/>
    <path id="Trazado_233779" data-name="Trazado 233779" d="M1022.643,111.478H1018.6a.412.412,0,0,1,0-.824h4.046a.412.412,0,0,1,0,.824" transform="translate(285 1238)" fill="#fff"/>
    <path id="Trazado_233780" data-name="Trazado 233780" d="M1014.367,111.478H995.424a.412.412,0,0,1,0-.824h18.943a.412.412,0,0,1,0,.824" transform="translate(285 1238)" fill="#fff"/>
    <path id="Trazado_233781" data-name="Trazado 233781" d="M1026.9,137.311h-32.54a1.876,1.876,0,0,1-1.876-1.876v-9.479a1.876,1.876,0,0,1,1.876-1.876h32.54a1.877,1.877,0,0,1,1.876,1.876v9.479a1.877,1.877,0,0,1-1.876,1.876" transform="translate(285 1238)" fill="#e1edff"/>
    <path id="Trazado_233782" data-name="Trazado 233782" d="M1022.643,126.467H1018.6a.412.412,0,0,1,0-.824h4.046a.412.412,0,0,1,0,.824" transform="translate(285 1238)" fill="#fff"/>
    <path id="Trazado_233783" data-name="Trazado 233783" d="M1014.367,126.467H995.424a.412.412,0,0,1,0-.824h18.943a.412.412,0,0,1,0,.824" transform="translate(285 1238)" fill="#fff"/>
    <path id="Trazado_234562" data-name="Trazado 234562" d="M0,0H17.472V1.563H0Z" transform="translate(1294.034 1367.366)" fill="#a1b3c9"/>
    <path id="Trazado_234563" data-name="Trazado 234563" d="M0,0H17.472V1.563H0Z" transform="translate(1294.034 1371.044)" fill="#a1b3c9"/>
    <path id="Trazado_233784" data-name="Trazado 233784" d="M1026.9,152.3h-32.54a1.876,1.876,0,0,1-1.876-1.876v-9.479a1.876,1.876,0,0,1,1.876-1.876h32.54a1.877,1.877,0,0,1,1.876,1.876v9.479a1.877,1.877,0,0,1-1.876,1.876" transform="translate(285 1238)" fill="#e1edff"/>
    <path id="Trazado_233785" data-name="Trazado 233785" d="M1022.643,141.456H1018.6a.412.412,0,0,1,0-.824h4.046a.412.412,0,0,1,0,.824" transform="translate(285 1238)" fill="#fff"/>
    <path id="Trazado_233786" data-name="Trazado 233786" d="M1014.367,141.456H995.424a.412.412,0,0,1,0-.824h18.943a.412.412,0,0,1,0,.824" transform="translate(285 1238)" fill="#fff"/>
    <path id="Trazado_234564" data-name="Trazado 234564" d="M0,0H17.472V1.563H0Z" transform="translate(1294.034 1382.355)" fill="#a1b3c9"/>
    <path id="Trazado_234565" data-name="Trazado 234565" d="M0,0H17.472V1.563H0Z" transform="translate(1294.034 1386.033)" fill="#a1b3c9"/>
    <path id="Trazado_233787" data-name="Trazado 233787" d="M1026.9,167.289h-32.54a1.876,1.876,0,0,1-1.876-1.876v-9.479a1.876,1.876,0,0,1,1.876-1.876h32.54a1.877,1.877,0,0,1,1.876,1.876v9.479a1.877,1.877,0,0,1-1.876,1.876" transform="translate(285 1238)" fill="#e1edff"/>
    <path id="Trazado_233788" data-name="Trazado 233788" d="M1020.28,163.451a1.671,1.671,0,1,1-1.671-1.671,1.671,1.671,0,0,1,1.671,1.671" transform="translate(285 1238)" fill="#59e5f5"/>
    <path id="Trazado_233789" data-name="Trazado 233789" d="M1027.007,163.451a1.67,1.67,0,1,1-1.671-1.671,1.671,1.671,0,0,1,1.671,1.671" transform="translate(285 1238)" fill="#2f077f"/>
    <path id="Trazado_233790" data-name="Trazado 233790" d="M1022.643,156.445H1018.6a.412.412,0,0,1,0-.824h4.046a.412.412,0,0,1,0,.824" transform="translate(285 1238)" fill="#fff"/>
    <path id="Trazado_233791" data-name="Trazado 233791" d="M1014.367,156.445H995.424a.412.412,0,0,1,0-.824h18.943a.412.412,0,0,1,0,.824" transform="translate(285 1238)" fill="#fff"/>
    <path id="Trazado_234566" data-name="Trazado 234566" d="M0,0H65.133V54.964H0Z" transform="translate(1205.934 1351.791)" fill="#161616"/>
    <path id="Trazado_234567" data-name="Trazado 234567" d="M0,0H1030V253.862H0Z" transform="translate(285 1238)" fill="none"/>
    <path id="Trazado_234568" data-name="Trazado 234568" d="M0,0H61.835V51.718H0Z" transform="translate(1207.584 1353.414)" fill="url(#radial-gradient-4)"/>
    <path id="Trazado_234569" data-name="Trazado 234569" d="M0,0H61.835V51.718H0Z" transform="translate(1207.584 1353.414)" fill="none"/>
    <path id="Trazado_234570" data-name="Trazado 234570" d="M0,0H82.9V4.672H0Z" transform="translate(1197.049 1402.358)" fill="#161616"/>
    <path id="Trazado_233792" data-name="Trazado 233792" d="M970.219,166.327h-8.794a.412.412,0,0,1,0-.824h8.794a.412.412,0,0,1,0,.824" transform="translate(285 1238)" fill="#938d8e"/>
    <path id="Trazado_233793" data-name="Trazado 233793" d="M956.844,166.327H918a.412.412,0,0,1,0-.824h38.841a.412.412,0,0,1,0,.824" transform="translate(285 1238)" fill="#938d8e"/>
    <g id="Grupo_238597" data-name="Grupo 238597" transform="translate(285 1238)">
      <g id="Grupo_238596" data-name="Grupo 238596" clip-path="url(#clip-path-7)">
        <path id="Trazado_233794" data-name="Trazado 233794" d="M972.968,118.1h-8.03a.412.412,0,1,1,0-.824h8.03a.412.412,0,0,1,0,.824" fill="#fff"/>
      </g>
    </g>
    <g id="Grupo_238600" data-name="Grupo 238600" transform="translate(285 1238)">
      <g id="Grupo_238599" data-name="Grupo 238599" clip-path="url(#clip-path-8)">
        <path id="Trazado_233795" data-name="Trazado 233795" d="M960.754,118.1H925.286a.412.412,0,0,1,0-.824h35.468a.412.412,0,0,1,0,.824" fill="#fff"/>
      </g>
    </g>
    <path id="Trazado_234571" data-name="Trazado 234571" d="M0,0H1030V253.862H0Z" transform="translate(285 1238)" fill="none"/>
    <path id="Trazado_234572" data-name="Trazado 234572" d="M7.375-3.833a4.715,4.715,0,0,1-.434,2.07A3.206,3.206,0,0,1,5.709-.376,3.433,3.433,0,0,1,3.888.11,3.481,3.481,0,0,1,2.076-.36,3.2,3.2,0,0,1,.843-1.7a4.579,4.579,0,0,1-.464-2v-.45A4.736,4.736,0,0,1,.81-6.23,3.2,3.2,0,0,1,2.046-7.617a3.457,3.457,0,0,1,1.831-.489,3.423,3.423,0,0,1,1.812.483A3.256,3.256,0,0,1,6.928-6.247,4.6,4.6,0,0,1,7.375-4.2ZM5.415-4.168a3.362,3.362,0,0,0-.4-1.809A1.277,1.277,0,0,0,3.877-6.6q-1.45,0-1.532,2.175l-.005.588a3.458,3.458,0,0,0,.39,1.807,1.275,1.275,0,0,0,1.159.632,1.26,1.26,0,0,0,1.126-.621,3.364,3.364,0,0,0,.4-1.785ZM8.1-1.8a1.054,1.054,0,0,1,.73.261.856.856,0,0,1,.291.667A.856.856,0,0,1,8.826-.2,1.054,1.054,0,0,1,8.1.06,1.045,1.045,0,0,1,7.362-.2a.862.862,0,0,1-.288-.664.862.862,0,0,1,.288-.664A1.045,1.045,0,0,1,8.1-1.8Zm6.464-.329a.792.792,0,0,0-.3-.659,3.72,3.72,0,0,0-1.052-.489,10.089,10.089,0,0,1-1.23-.489,2.33,2.33,0,0,1-1.554-2.1,1.881,1.881,0,0,1,.387-1.172,2.5,2.5,0,0,1,1.1-.791A4.263,4.263,0,0,1,13.5-8.106a3.729,3.729,0,0,1,1.546.308,2.448,2.448,0,0,1,1.063.876,2.287,2.287,0,0,1,.379,1.3H14.565a.967.967,0,0,0-.3-.758,1.167,1.167,0,0,0-.81-.269,1.316,1.316,0,0,0-.816.228.7.7,0,0,0-.3.579.7.7,0,0,0,.329.557,4.155,4.155,0,0,0,1.159.516,7.1,7.1,0,0,1,1.362.574,2.289,2.289,0,0,1,1.3,2.059A1.952,1.952,0,0,1,15.7-.489a3.517,3.517,0,0,1-2.169.6,4.3,4.3,0,0,1-1.76-.349,2.654,2.654,0,0,1-1.186-.956,2.49,2.49,0,0,1-.4-1.4h1.933a1.226,1.226,0,0,0,.332.947,1.57,1.57,0,0,0,1.079.3,1.241,1.241,0,0,0,.755-.206A.68.68,0,0,0,14.559-2.125Zm3.976.329a1.054,1.054,0,0,1,.73.261.856.856,0,0,1,.291.667.856.856,0,0,1-.291.667,1.054,1.054,0,0,1-.73.261A1.045,1.045,0,0,1,17.8-.2a.862.862,0,0,1-.288-.664.862.862,0,0,1,.288-.664A1.045,1.045,0,0,1,18.535-1.8Z" transform="translate(1227.973 1373.207)" fill="#fff"/>
    <path id="Trazado_234573" data-name="Trazado 234573" d="M5.146-1.494H2.5L2.043,0H-.016L2.916-8H4.728L7.683,0H5.612ZM2.965-2.982H4.684L3.822-5.755Zm10.208.055a3.583,3.583,0,0,1-.623,2.21A2,2,0,0,1,10.867.11a1.713,1.713,0,0,1-1.345-.6V2.285H7.671V-5.942H9.4l.055.549a1.713,1.713,0,0,1,1.4-.659,2.015,2.015,0,0,1,1.708.81,3.627,3.627,0,0,1,.61,2.227Zm-1.851-.115q0-1.582-.923-1.582a.871.871,0,0,0-.879.472v2.339a.9.9,0,0,0,.89.494q.884,0,.912-1.527Zm8.182.115a3.583,3.583,0,0,1-.623,2.21A2,2,0,0,1,17.2.11a1.713,1.713,0,0,1-1.345-.6V2.285H14V-5.942h1.73l.055.549a1.713,1.713,0,0,1,1.4-.659,2.015,2.015,0,0,1,1.708.81,3.627,3.627,0,0,1,.61,2.227Zm-1.851-.115q0-1.582-.923-1.582a.871.871,0,0,0-.879.472v2.339a.9.9,0,0,0,.89.494q.884,0,.912-1.527Zm5.777,1.373a.428.428,0,0,0-.247-.379,3.759,3.759,0,0,0-.939-.3,4.282,4.282,0,0,1-1.142-.4,1.913,1.913,0,0,1-.686-.607,1.449,1.449,0,0,1-.236-.818,1.642,1.642,0,0,1,.675-1.348,2.782,2.782,0,0,1,1.768-.53,3.083,3.083,0,0,1,1.889.533,1.666,1.666,0,0,1,.714,1.4H23.372q0-.714-.752-.714a.746.746,0,0,0-.489.162.5.5,0,0,0-.2.4.46.46,0,0,0,.242.4,2.283,2.283,0,0,0,.772.253,6.668,6.668,0,0,1,.931.236,1.691,1.691,0,0,1,1.34,1.653A1.556,1.556,0,0,1,24.495-.4a3.167,3.167,0,0,1-1.87.511,3.232,3.232,0,0,1-1.362-.275,2.277,2.277,0,0,1-.934-.747,1.691,1.691,0,0,1-.335-.994h1.73A.715.715,0,0,0,22-1.3a1.129,1.129,0,0,0,.675.189.889.889,0,0,0,.568-.154A.492.492,0,0,0,23.432-1.669Z" transform="translate(1225.532 1386.703)" fill="#fff"/>
    <path id="Trazado_233796" data-name="Trazado 233796" d="M1027.425,253.862h-33.6a2.575,2.575,0,0,1-2.575-2.575V194.5a2.575,2.575,0,0,1,2.575-2.575h33.6A2.575,2.575,0,0,1,1030,194.5v56.786a2.575,2.575,0,0,1-2.575,2.575" transform="translate(285 1238)" fill="#161616"/>
    <path id="Trazado_233797" data-name="Trazado 233797" d="M1026.9,207.154h-32.54a1.876,1.876,0,0,1-1.876-1.876V195.8a1.876,1.876,0,0,1,1.876-1.876h32.54a1.877,1.877,0,0,1,1.876,1.876v9.479a1.877,1.877,0,0,1-1.876,1.876" transform="translate(285 1238)" fill="#e1edff"/>
    <path id="Trazado_233798" data-name="Trazado 233798" d="M1013.554,203.316a1.671,1.671,0,1,1-1.671-1.671,1.671,1.671,0,0,1,1.671,1.671" transform="translate(285 1238)" fill="#f8a800"/>
    <path id="Trazado_233799" data-name="Trazado 233799" d="M1020.28,203.316a1.671,1.671,0,1,1-1.671-1.671,1.671,1.671,0,0,1,1.671,1.671" transform="translate(285 1238)" fill="#2f077f"/>
    <path id="Trazado_233800" data-name="Trazado 233800" d="M1027.007,203.316a1.67,1.67,0,1,1-1.671-1.671,1.671,1.671,0,0,1,1.671,1.671" transform="translate(285 1238)" fill="#59e5f5"/>
    <path id="Trazado_233801" data-name="Trazado 233801" d="M1022.643,196.311H1018.6a.412.412,0,0,1,0-.824h4.046a.412.412,0,0,1,0,.824" transform="translate(285 1238)" fill="#fff"/>
    <path id="Trazado_233802" data-name="Trazado 233802" d="M1014.367,196.311H995.424a.412.412,0,0,1,0-.824h18.943a.412.412,0,0,1,0,.824" transform="translate(285 1238)" fill="#fff"/>
    <path id="Trazado_233803" data-name="Trazado 233803" d="M1026.9,222.143h-32.54a1.876,1.876,0,0,1-1.876-1.876v-9.479a1.876,1.876,0,0,1,1.876-1.876h32.54a1.877,1.877,0,0,1,1.876,1.876v9.479a1.877,1.877,0,0,1-1.876,1.876" transform="translate(285 1238)" fill="#e1edff"/>
    <path id="Trazado_233804" data-name="Trazado 233804" d="M1022.643,211.3H1018.6a.412.412,0,0,1,0-.824h4.046a.412.412,0,0,1,0,.824" transform="translate(285 1238)" fill="#fff"/>
    <path id="Trazado_233805" data-name="Trazado 233805" d="M1014.367,211.3H995.424a.412.412,0,0,1,0-.824h18.943a.412.412,0,0,1,0,.824" transform="translate(285 1238)" fill="#fff"/>
    <path id="Trazado_234574" data-name="Trazado 234574" d="M0,0H17.472V1.563H0Z" transform="translate(1294.034 1452.198)" fill="#a1b3c9"/>
    <path id="Trazado_234575" data-name="Trazado 234575" d="M0,0H17.472V1.563H0Z" transform="translate(1294.034 1455.876)" fill="#a1b3c9"/>
    <path id="Trazado_233806" data-name="Trazado 233806" d="M1026.9,237.132h-32.54a1.876,1.876,0,0,1-1.876-1.876v-9.479a1.876,1.876,0,0,1,1.876-1.876h32.54a1.877,1.877,0,0,1,1.876,1.876v9.479a1.877,1.877,0,0,1-1.876,1.876" transform="translate(285 1238)" fill="#e1edff"/>
    <path id="Trazado_233807" data-name="Trazado 233807" d="M1022.643,226.289H1018.6a.412.412,0,0,1,0-.824h4.046a.412.412,0,0,1,0,.824" transform="translate(285 1238)" fill="#fff"/>
    <path id="Trazado_233808" data-name="Trazado 233808" d="M1014.367,226.289H995.424a.412.412,0,0,1,0-.824h18.943a.412.412,0,0,1,0,.824" transform="translate(285 1238)" fill="#fff"/>
    <path id="Trazado_234576" data-name="Trazado 234576" d="M0,0H17.472V1.563H0Z" transform="translate(1294.034 1467.188)" fill="#a1b3c9"/>
    <path id="Trazado_234577" data-name="Trazado 234577" d="M0,0H17.472V1.563H0Z" transform="translate(1294.034 1470.865)" fill="#a1b3c9"/>
    <path id="Trazado_233809" data-name="Trazado 233809" d="M1026.9,252.121h-32.54a1.876,1.876,0,0,1-1.876-1.876v-9.479a1.876,1.876,0,0,1,1.876-1.876h32.54a1.877,1.877,0,0,1,1.876,1.876v9.479a1.877,1.877,0,0,1-1.876,1.876" transform="translate(285 1238)" fill="#e1edff"/>
    <path id="Trazado_233810" data-name="Trazado 233810" d="M1020.28,248.283a1.671,1.671,0,1,1-1.671-1.671,1.671,1.671,0,0,1,1.671,1.671" transform="translate(285 1238)" fill="#59e5f5"/>
    <path id="Trazado_233811" data-name="Trazado 233811" d="M1027.007,248.283a1.67,1.67,0,1,1-1.671-1.671,1.671,1.671,0,0,1,1.671,1.671" transform="translate(285 1238)" fill="#2f077f"/>
    <path id="Trazado_233812" data-name="Trazado 233812" d="M1022.643,241.278H1018.6a.412.412,0,0,1,0-.824h4.046a.412.412,0,0,1,0,.824" transform="translate(285 1238)" fill="#fff"/>
    <path id="Trazado_233813" data-name="Trazado 233813" d="M1014.367,241.278H995.424a.412.412,0,0,1,0-.824h18.943a.412.412,0,0,1,0,.824" transform="translate(285 1238)" fill="#fff"/>
    <path id="Trazado_234578" data-name="Trazado 234578" d="M0,0H65.133V54.964H0Z" transform="translate(1205.934 1436.623)" fill="#161616"/>
    <path id="Trazado_234579" data-name="Trazado 234579" d="M0,0H1030V253.862H0Z" transform="translate(285 1238)" fill="none"/>
    <path id="Trazado_234580" data-name="Trazado 234580" d="M0,0H61.835V51.718H0Z" transform="translate(1207.584 1438.246)" fill="url(#radial-gradient-5)"/>
    <path id="Trazado_234581" data-name="Trazado 234581" d="M0,0H61.835V51.718H0Z" transform="translate(1207.584 1438.246)" fill="none"/>
    <path id="Trazado_234582" data-name="Trazado 234582" d="M0,0H82.9V4.672H0Z" transform="translate(1197.049 1487.189)" fill="#161616"/>
    <path id="Trazado_233814" data-name="Trazado 233814" d="M970.219,251.159h-8.794a.412.412,0,0,1,0-.824h8.794a.412.412,0,0,1,0,.824" transform="translate(285 1238)" fill="#938d8e"/>
    <path id="Trazado_233815" data-name="Trazado 233815" d="M956.844,251.159H918a.412.412,0,0,1,0-.824h38.841a.412.412,0,0,1,0,.824" transform="translate(285 1238)" fill="#938d8e"/>
    <g id="Grupo_238609" data-name="Grupo 238609" transform="translate(285 1238)">
      <g id="Grupo_238608" data-name="Grupo 238608" clip-path="url(#clip-path-9)">
        <path id="Trazado_233816" data-name="Trazado 233816" d="M972.968,202.929h-8.03a.412.412,0,1,1,0-.824h8.03a.412.412,0,0,1,0,.824" fill="#fff"/>
      </g>
    </g>
    <g id="Grupo_238612" data-name="Grupo 238612" transform="translate(285 1238)">
      <g id="Grupo_238611" data-name="Grupo 238611" clip-path="url(#clip-path-10)">
        <path id="Trazado_233817" data-name="Trazado 233817" d="M960.754,202.929H925.286a.412.412,0,0,1,0-.824h35.468a.412.412,0,0,1,0,.824" fill="#fff"/>
      </g>
    </g>
    <path id="Trazado_234583" data-name="Trazado 234583" d="M0,0H1030V253.862H0Z" transform="translate(285 1238)" fill="none"/>
    <path id="Trazado_234584" data-name="Trazado 234584" d="M7.375-3.833a4.715,4.715,0,0,1-.434,2.07A3.206,3.206,0,0,1,5.709-.376,3.433,3.433,0,0,1,3.888.11,3.481,3.481,0,0,1,2.076-.36,3.2,3.2,0,0,1,.843-1.7a4.579,4.579,0,0,1-.464-2v-.45A4.736,4.736,0,0,1,.81-6.23,3.2,3.2,0,0,1,2.046-7.617a3.457,3.457,0,0,1,1.831-.489,3.423,3.423,0,0,1,1.812.483A3.256,3.256,0,0,1,6.928-6.247,4.6,4.6,0,0,1,7.375-4.2ZM5.415-4.168a3.362,3.362,0,0,0-.4-1.809A1.277,1.277,0,0,0,3.877-6.6q-1.45,0-1.532,2.175l-.005.588a3.458,3.458,0,0,0,.39,1.807,1.275,1.275,0,0,0,1.159.632,1.26,1.26,0,0,0,1.126-.621,3.364,3.364,0,0,0,.4-1.785ZM8.1-1.8a1.054,1.054,0,0,1,.73.261.856.856,0,0,1,.291.667A.856.856,0,0,1,8.826-.2,1.054,1.054,0,0,1,8.1.06,1.045,1.045,0,0,1,7.362-.2a.862.862,0,0,1-.288-.664.862.862,0,0,1,.288-.664A1.045,1.045,0,0,1,8.1-1.8Zm6.464-.329a.792.792,0,0,0-.3-.659,3.72,3.72,0,0,0-1.052-.489,10.089,10.089,0,0,1-1.23-.489,2.33,2.33,0,0,1-1.554-2.1,1.881,1.881,0,0,1,.387-1.172,2.5,2.5,0,0,1,1.1-.791A4.263,4.263,0,0,1,13.5-8.106a3.729,3.729,0,0,1,1.546.308,2.448,2.448,0,0,1,1.063.876,2.287,2.287,0,0,1,.379,1.3H14.565a.967.967,0,0,0-.3-.758,1.167,1.167,0,0,0-.81-.269,1.316,1.316,0,0,0-.816.228.7.7,0,0,0-.3.579.7.7,0,0,0,.329.557,4.155,4.155,0,0,0,1.159.516,7.1,7.1,0,0,1,1.362.574,2.289,2.289,0,0,1,1.3,2.059A1.952,1.952,0,0,1,15.7-.489a3.517,3.517,0,0,1-2.169.6,4.3,4.3,0,0,1-1.76-.349,2.654,2.654,0,0,1-1.186-.956,2.49,2.49,0,0,1-.4-1.4h1.933a1.226,1.226,0,0,0,.332.947,1.57,1.57,0,0,0,1.079.3,1.241,1.241,0,0,0,.755-.206A.68.68,0,0,0,14.559-2.125Zm3.976.329a1.054,1.054,0,0,1,.73.261.856.856,0,0,1,.291.667.856.856,0,0,1-.291.667,1.054,1.054,0,0,1-.73.261A1.045,1.045,0,0,1,17.8-.2a.862.862,0,0,1-.288-.664.862.862,0,0,1,.288-.664A1.045,1.045,0,0,1,18.535-1.8Z" transform="translate(1227.973 1458.039)" fill="#fff"/>
    <path id="Trazado_234585" data-name="Trazado 234585" d="M5.146-1.494H2.5L2.043,0H-.016L2.916-8H4.728L7.683,0H5.612ZM2.965-2.982H4.684L3.822-5.755Zm10.208.055a3.583,3.583,0,0,1-.623,2.21A2,2,0,0,1,10.867.11a1.713,1.713,0,0,1-1.345-.6V2.285H7.671V-5.942H9.4l.055.549a1.713,1.713,0,0,1,1.4-.659,2.015,2.015,0,0,1,1.708.81,3.627,3.627,0,0,1,.61,2.227Zm-1.851-.115q0-1.582-.923-1.582a.871.871,0,0,0-.879.472v2.339a.9.9,0,0,0,.89.494q.884,0,.912-1.527Zm8.182.115a3.583,3.583,0,0,1-.623,2.21A2,2,0,0,1,17.2.11a1.713,1.713,0,0,1-1.345-.6V2.285H14V-5.942h1.73l.055.549a1.713,1.713,0,0,1,1.4-.659,2.015,2.015,0,0,1,1.708.81,3.627,3.627,0,0,1,.61,2.227Zm-1.851-.115q0-1.582-.923-1.582a.871.871,0,0,0-.879.472v2.339a.9.9,0,0,0,.89.494q.884,0,.912-1.527Zm5.777,1.373a.428.428,0,0,0-.247-.379,3.759,3.759,0,0,0-.939-.3,4.282,4.282,0,0,1-1.142-.4,1.913,1.913,0,0,1-.686-.607,1.449,1.449,0,0,1-.236-.818,1.642,1.642,0,0,1,.675-1.348,2.782,2.782,0,0,1,1.768-.53,3.083,3.083,0,0,1,1.889.533,1.666,1.666,0,0,1,.714,1.4H23.372q0-.714-.752-.714a.746.746,0,0,0-.489.162.5.5,0,0,0-.2.4.46.46,0,0,0,.242.4,2.283,2.283,0,0,0,.772.253,6.668,6.668,0,0,1,.931.236,1.691,1.691,0,0,1,1.34,1.653A1.556,1.556,0,0,1,24.495-.4a3.167,3.167,0,0,1-1.87.511,3.232,3.232,0,0,1-1.362-.275,2.277,2.277,0,0,1-.934-.747,1.691,1.691,0,0,1-.335-.994h1.73A.715.715,0,0,0,22-1.3a1.129,1.129,0,0,0,.675.189.889.889,0,0,0,.568-.154A.492.492,0,0,0,23.432-1.669Z" transform="translate(1225.532 1471.535)" fill="#fff"/>
    <path id="Trazado_234586" data-name="Trazado 234586" d="M0,0H0" transform="translate(1197.049 1292.236)" fill="none" stroke="#848484" stroke-linecap="round" stroke-width="1.304"/>
    <path id="Trazado_234587" data-name="Trazado 234587" d="M69.05,0,0,79.327" transform="translate(1126.294 1294.195)" fill="none" stroke="#848484" stroke-linecap="round" stroke-width="1.304" stroke-dasharray="0 2.597"/>
    <path id="Trazado_234588" data-name="Trazado 234588" d="M0,0H0" transform="translate(1125.441 1374.502)" fill="none" stroke="#848484" stroke-linecap="round" stroke-width="1.304"/>
    <path id="Trazado_234589" data-name="Trazado 234589" d="M0,0,69.615,79.976" transform="translate(1127.16 1376.477)" fill="none" stroke="#848484" stroke-linecap="round" stroke-width="1.304" stroke-dasharray="0 2.618"/>
    <path id="Trazado_234590" data-name="Trazado 234590" d="M0,0H0" transform="translate(1197.635 1457.439)" fill="none" stroke="#848484" stroke-linecap="round" stroke-width="1.304"/>
    <path id="Trazado_234591" data-name="Trazado 234591" d="M0,0H0" transform="translate(1193.107 1374.62)" fill="none" stroke="#848484" stroke-linecap="round" stroke-width="1.304"/>
    <path id="Trazado_234592" data-name="Trazado 234592" d="M63.763,0H0" transform="translate(1126.742 1374.62)" fill="none" stroke="#848484" stroke-linecap="round" stroke-width="1.304" stroke-dasharray="0 2.603"/>
    <path id="Trazado_234593" data-name="Trazado 234593" d="M0,0H0" transform="translate(1125.441 1374.62)" fill="none" stroke="#848484" stroke-linecap="round" stroke-width="1.304"/>
    <path id="Trazado_234594" data-name="Trazado 234594" d="M0,0H1030V253.862H0Z" transform="translate(285 1238)" fill="none"/>
    <path id="Trazado_234595" data-name="Trazado 234595" d="M0,0H1030V253.862H0Z" transform="translate(285 1238)" fill="none"/>
  </g>
</svg>
