<svg id="Grupo_238491" data-name="Grupo 238491" xmlns="http://www.w3.org/2000/svg" xmlns:xlink="http://www.w3.org/1999/xlink" width="111.698" height="103.368" viewBox="0 0 111.698 103.368">
  <defs>
    <clipPath id="clip-path">
      <rect id="Rect치ngulo_314101" data-name="Rect치ngulo 314101" width="111.698" height="103.368" fill="none"/>
    </clipPath>
  </defs>
  <rect id="Rect치ngulo_314100" data-name="Rect치ngulo 314100" width="50.613" height="42.377" transform="translate(0.918 0.918)" fill="#cafdff"/>
  <g id="Grupo_238490" data-name="Grupo 238490" transform="translate(0 0)">
    <g id="Grupo_238489" data-name="Grupo 238489" clip-path="url(#clip-path)">
      <path id="Trazado_233452" data-name="Trazado 233452" d="M51.531,44.213H.918A.918.918,0,0,1,0,43.295V.918A.917.917,0,0,1,.918,0H51.531a.917.917,0,0,1,.918.918V43.295a.918.918,0,0,1-.918.919m-49.7-1.836H50.613V1.835H1.835Z" transform="translate(0 0)"/>
      <path id="Trazado_233453" data-name="Trazado 233453" d="M51.531,12.815H.918a.918.918,0,0,1,0-1.836H51.531a.918.918,0,0,1,0,1.836" transform="translate(0 -1.092)"/>
      <path id="Trazado_233454" data-name="Trazado 233454" d="M8.435,8.764a2.518,2.518,0,1,1,2.517-2.516A2.524,2.524,0,0,1,8.435,8.764m0-3.2a.683.683,0,1,0,.681.685.689.689,0,0,0-.681-.685" transform="translate(-0.588 -0.371)"/>
      <path id="Trazado_233455" data-name="Trazado 233455" d="M20.39,8.764a2.518,2.518,0,1,1,2.52-2.516,2.519,2.519,0,0,1-2.52,2.516m0-3.2a.683.683,0,0,0,0,1.366.683.683,0,1,0,0-1.366" transform="translate(-1.778 -0.371)"/>
      <path id="Trazado_233456" data-name="Trazado 233456" d="M32.355,8.764a2.518,2.518,0,1,1,2.516-2.516,2.52,2.52,0,0,1-2.516,2.516m0-3.2a.683.683,0,1,0,.681.685.685.685,0,0,0-.681-.685" transform="translate(-2.968 -0.371)"/>
      <path id="Trazado_233457" data-name="Trazado 233457" d="M93,60.636a20.79,20.79,0,0,1,9.417,3.529l4.271-4.27,4.379,4.386-4.12,4.129a20.727,20.727,0,0,1,4.163,9.157h6.038v6.189h-5.83a20.783,20.783,0,0,1-3.536,9.428l4.271,4.26-4.386,4.386L103.557,97.7a20.706,20.706,0,0,1-9.159,4.172V107.9h-6.2v-5.829a20.58,20.58,0,0,1-9.417-3.529l-4.271,4.271-4.378-4.386,4.121-4.115a20.811,20.811,0,0,1-4.17-9.158H64.047v-6.2h5.83a20.669,20.669,0,0,1,3.536-9.417l-4.271-4.274,4.378-4.386,4.129,4.129a20.824,20.824,0,0,1,9.158-4.171V54.807H93Z" transform="translate(-6.371 -5.452)" fill="#8628a5"/>
      <path id="Trazado_233458" data-name="Trazado 233458" d="M94.3,108.719h-6.2a.918.918,0,0,1-.918-.919v-5.023a21.615,21.615,0,0,1-8.381-3.155l-3.74,3.74a.916.916,0,0,1-1.3,0l-4.378-4.386a.916.916,0,0,1,0-1.3l3.551-3.548a21.835,21.835,0,0,1-3.7-8.159H63.946a.918.918,0,0,1-.919-.918v-6.2a.918.918,0,0,1,.919-.918h5.028a21.692,21.692,0,0,1,3.158-8.382l-3.74-3.744a.915.915,0,0,1,0-1.295L72.77,60.13a.916.916,0,0,1,1.3,0l3.563,3.563a21.833,21.833,0,0,1,8.157-3.706v-5.28a.917.917,0,0,1,.918-.918H92.9a.918.918,0,0,1,.919.918v5.029a21.81,21.81,0,0,1,8.38,3.152l3.74-3.742a.916.916,0,0,1,1.3,0l4.38,4.386a.919.919,0,0,1,0,1.3l-3.554,3.562a21.745,21.745,0,0,1,3.7,8.158h5.288a.918.918,0,0,1,.918.919v6.189a.917.917,0,0,1-.918.918h-5.026a21.853,21.853,0,0,1-3.162,8.39l3.74,3.731a.916.916,0,0,1,0,1.3l-4.386,4.386a.923.923,0,0,1-.649.269h0a.928.928,0,0,1-.648-.27l-3.544-3.557a21.728,21.728,0,0,1-8.161,3.7V107.8a.918.918,0,0,1-.918.919m-5.285-1.836h4.368v-5.111a.919.919,0,0,1,.753-.9,19.833,19.833,0,0,0,8.752-3.988.917.917,0,0,1,1.222.071l3.463,3.477,3.087-3.086-3.62-3.612a.92.92,0,0,1-.109-1.169,19.977,19.977,0,0,0,3.382-9.012.917.917,0,0,1,.91-.814h4.912V78.384h-5.12a.919.919,0,0,1-.9-.753,19.888,19.888,0,0,0-3.979-8.751.916.916,0,0,1,.068-1.218l3.474-3.481-3.084-3.089-3.622,3.622a.921.921,0,0,1-1.17.106,19.975,19.975,0,0,0-9-3.374.917.917,0,0,1-.812-.91V55.623H87.623v5.112a.919.919,0,0,1-.752.9,19.967,19.967,0,0,0-8.754,3.988.919.919,0,0,1-1.218-.07l-3.48-3.48-3.082,3.087,3.623,3.625a.919.919,0,0,1,.1,1.172,19.852,19.852,0,0,0-3.379,9,.918.918,0,0,1-.911.813H64.863v4.365h5.113a.916.916,0,0,1,.9.751,19.983,19.983,0,0,0,3.987,8.754.916.916,0,0,1-.07,1.219l-3.472,3.468,3.082,3.087,3.622-3.622a.919.919,0,0,1,1.17-.106,19.747,19.747,0,0,0,9,3.372.918.918,0,0,1,.816.912Z" transform="translate(-6.269 -5.35)"/>
      <path id="Trazado_233459" data-name="Trazado 233459" d="M92.1,69.913A12.945,12.945,0,1,1,79.152,82.86,12.953,12.953,0,0,1,92.1,69.913" transform="translate(-7.873 -6.954)" fill="#fff8d1"/>
      <path id="Trazado_233460" data-name="Trazado 233460" d="M92,96.618a13.862,13.862,0,1,1,13.871-13.86A13.878,13.878,0,0,1,92,96.618m0-25.888a12.027,12.027,0,1,0,12.036,12.028A12.042,12.042,0,0,0,92,70.729" transform="translate(-7.772 -6.853)"/>
      <path id="Trazado_233461" data-name="Trazado 233461" d="M22.537,35.718a.915.915,0,0,1-.649-.27l-4.7-4.713a.918.918,0,0,1,0-1.3l4.7-4.7a.918.918,0,1,1,1.3,1.3l-4.053,4.054,4.053,4.064a.918.918,0,0,1-.649,1.566" transform="translate(-1.683 -2.434)"/>
      <path id="Trazado_233462" data-name="Trazado 233462" d="M34.974,35.718a.918.918,0,0,1-.649-1.566l4.061-4.064-4.06-4.054a.917.917,0,0,1,1.295-1.3l4.71,4.7a.927.927,0,0,1,.27.649.916.916,0,0,1-.269.647l-4.709,4.713a.915.915,0,0,1-.649.27" transform="translate(-3.388 -2.434)"/>
      <path id="Trazado_233463" data-name="Trazado 233463" d="M25.74,37.935a.9.9,0,0,1-.336-.065.915.915,0,0,1-.517-1.19l6.266-15.916a.917.917,0,0,1,1.707.673L26.592,37.353a.916.916,0,0,1-.853.582" transform="translate(-2.469 -2.008)"/>
      <path id="Trazado_233464" data-name="Trazado 233464" d="M89.617,48.288a.917.917,0,0,1-.918-.918V21.81H63.026a.918.918,0,1,1,0-1.835H89.617a.917.917,0,0,1,.918.918V47.37a.917.917,0,0,1-.918.918" transform="translate(-6.178 -1.987)"/>
      <path id="Trazado_233465" data-name="Trazado 233465" d="M92.045,50.613a.916.916,0,0,1-.7-.324L86.731,44.86a.917.917,0,0,1,1.4-1.188l3.916,4.606,3.91-4.606a.917.917,0,0,1,1.4,1.188l-4.608,5.428a.915.915,0,0,1-.7.324" transform="translate(-8.605 -4.312)"/>
      <path id="Trazado_233466" data-name="Trazado 233466" d="M54.63,82.21H28.04a.918.918,0,0,1-.919-.918V54.819a.918.918,0,0,1,1.836,0V80.374H54.63a.918.918,0,0,1,0,1.836" transform="translate(-2.698 -5.362)"/>
      <path id="Trazado_233467" data-name="Trazado 233467" d="M22.927,61.165a.918.918,0,0,1-.7-1.512l4.6-5.428a.916.916,0,0,1,1.4,0l4.614,5.428a.917.917,0,1,1-1.4,1.188l-3.914-4.605L23.626,60.84a.915.915,0,0,1-.7.324" transform="translate(-2.189 -5.361)"/>
    </g>
  </g>
</svg>
